<svg xmlns="http://www.w3.org/2000/svg" viewBox="0 0 35.365 13.888">
  <defs>
    <style>
      .cls-1 {
        fill: #fff;
      }
    </style>
  </defs>
  <g id="グループ化_34" data-name="グループ化 34" transform="translate(-820.512 -307.896)">
    <path id="パス_94" data-name="パス 94" class="cls-1" d="M6.176.784a5.237,5.237,0,0,0,4.672-2.5A9.423,9.423,0,0,0,11.856-6.16a10.643,10.643,0,0,0-.624-3.68,5.039,5.039,0,0,0-1.168-1.776A5.441,5.441,0,0,0,6.176-13.1,5.207,5.207,0,0,0,1.52-10.576,9.355,9.355,0,0,0,.512-6.144,10.617,10.617,0,0,0,1.136-2.48,5.039,5.039,0,0,0,2.3-.7,5.31,5.31,0,0,0,6.176.784Zm0-11.184c1.552,0,2.384,1.44,2.384,4.176,0,2.848-.8,4.288-2.368,4.288-1.584,0-2.4-1.472-2.4-4.336C3.792-8.88,4.672-10.4,6.176-10.4Z" transform="translate(820 321)"/>
    <path id="パス_95" data-name="パス 95" class="cls-1" d="M9.108.231c-.132-.275-.33-.759-.539-1.32L6.149-7.568a7.448,7.448,0,0,1-.374-1.144H3.41a8.446,8.446,0,0,1-.352,1.144L.66-1.089A10.225,10.225,0,0,1,.1.231H2.277a5.493,5.493,0,0,1,.3-1.166L2.948-2H6.27L6.644-.935A7.867,7.867,0,0,1,6.93.231Zm-3.3-3.784H3.41L4.444-6.666c.077-.22.088-.275.154-.506.088.3.132.407.165.506ZM9.724-8.712a9.184,9.184,0,0,1,.088,1.518v5.907A9.442,9.442,0,0,1,9.724.231h2.024a9.269,9.269,0,0,1-.088-1.518V-7.194a9.1,9.1,0,0,1,.088-1.518Zm2.992,6.281A3.1,3.1,0,0,0,13.354-.7,3.773,3.773,0,0,0,16.423.429c2.2,0,3.454-1.023,3.454-2.816a2.514,2.514,0,0,0-.33-1.331,2.478,2.478,0,0,0-1.111-.957,10.725,10.725,0,0,0-2.167-.594,2.971,2.971,0,0,1-1.034-.363.853.853,0,0,1-.374-.715c0-.627.572-1.045,1.43-1.045a1.574,1.574,0,0,1,1.221.462,1.339,1.339,0,0,1,.286.7l1.936-.209a3.1,3.1,0,0,0-.561-1.342A3.443,3.443,0,0,0,16.3-8.921c-2.035,0-3.322,1.023-3.322,2.64a2.339,2.339,0,0,0,.946,1.947,4.277,4.277,0,0,0,1.716.66,5.615,5.615,0,0,1,1.881.6.881.881,0,0,1,.429.792c0,.7-.6,1.144-1.562,1.144a1.779,1.779,0,0,1-1.463-.594,1.448,1.448,0,0,1-.3-.891Z" transform="translate(836 321)"/>
  </g>
</svg>
