<svg xmlns="http://www.w3.org/2000/svg" viewBox="0 0 31.425 13.424">
  <defs>
    <style>
      .cls-1 {
        fill: #fff;
      }
    </style>
  </defs>
  <g id="グループ化_24" data-name="グループ化 24" transform="translate(-749.288 -158.072)">
    <path id="パス_109" data-name="パス 109" class="cls-1" d="M2.288-9.968A16.922,16.922,0,0,1,4.24-10.08h.64v8.16A18.361,18.361,0,0,1,4.752.5H8.24A18.519,18.519,0,0,1,8.112-1.92V-10.3a24.84,24.84,0,0,1,.112-2.576,15.871,15.871,0,0,1-1.984.064H4.208a10.428,10.428,0,0,1-1.92-.112Z" transform="translate(747 171)"/>
    <path id="パス_108" data-name="パス 108" class="cls-1" d="M.836-1.254A9.617,9.617,0,0,1,.748.264C1.2.242,1.5.231,2.244.231H4.4A4.1,4.1,0,0,0,7.392-.792,4.746,4.746,0,0,0,8.679-4.323,4.524,4.524,0,0,0,7.458-7.689,4.191,4.191,0,0,0,4.389-8.712H2.244c-.792,0-1.067-.011-1.507-.033a8.614,8.614,0,0,1,.1,1.518Zm1.815-.11V-7.117h1.6A2.362,2.362,0,0,1,6.094-6.5,3.033,3.033,0,0,1,6.8-4.29,3.241,3.241,0,0,1,6.039-2a2.267,2.267,0,0,1-1.782.638ZM18.26.231c.033-.22.132-.627.275-1.166l1.76-6.446a13.365,13.365,0,0,1,.418-1.331H18.6a6.609,6.609,0,0,1-.176,1.188l-.869,3.773c-.077.308-.121.539-.253,1.386-.121-.638-.22-1.1-.3-1.375L15.928-7.612a11.01,11.01,0,0,1-.253-1.1H14.036a7.088,7.088,0,0,1-.242,1.133L12.716-3.7c-.055.22-.1.4-.286,1.331-.055-.352-.187-1.023-.253-1.32l-.869-3.828a6.318,6.318,0,0,1-.176-1.2H9.009a11.318,11.318,0,0,1,.429,1.331L11.2-.935c.209.792.231.869.286,1.166h1.8A7.123,7.123,0,0,1,13.541-.9l1-3.7a13.722,13.722,0,0,0,.319-1.485c.1.539.209,1.1.319,1.485L16.192-.913A9.547,9.547,0,0,1,16.445.231Z" transform="translate(760 171)"/>
  </g>
</svg>
