<svg xmlns="http://www.w3.org/2000/svg" viewBox="0 0 24 16">
  <defs>
    <style>
      .cls-1 {
        fill: #1a0101;
      }
    </style>
  </defs>
  <g id="グループ化_81" data-name="グループ化 81" transform="translate(-599 -293)">
    <path id="除外_20" data-name="除外 20" class="cls-1" d="M-6047,16h-24V0h24V16Zm-12-14.858c-6.015,0-10.909,3.076-10.909,6.857s4.894,6.857,10.909,6.857,10.909-3.076,10.909-6.857S-6052.985,1.142-6059,1.142Z" transform="translate(6670.001 293)"/>
    <path id="パス_120" data-name="パス 120" class="cls-1" d="M-3.5-8.7V0h-2.17V-4.662A8.192,8.192,0,0,0-5.72-5.876a.454.454,0,0,0-.266-.309,2.757,2.757,0,0,0-.969-.1H-7.17V-7.3A3.945,3.945,0,0,0-4.78-8.7Zm10.736,0L6.23,0H3.4q-.387-2-.682-4.555Q2.588-3.464,2.094,0H-.715l-1.01-8.7h2.2L.7-5.661.939-2.734q.124-2.272.623-5.962H3.915q.048.381.247,2.868l.247,3.3Q4.6-5.677,5.037-8.7Z" transform="translate(611 305.5)"/>
  </g>
</svg>
