<svg xmlns="http://www.w3.org/2000/svg" viewBox="0 0 42.568 13.712">
  <defs>
    <style>
      .cls-1 {
        fill: #fff;
      }
    </style>
  </defs>
  <g id="グループ化_25" data-name="グループ化 25" transform="translate(-819.752 -157.896)">
    <path id="パス_107" data-name="パス 107" class="cls-1" d="M8.768.5C9.9.5,10.576.528,11.5.608V-2.416a20.262,20.262,0,0,1-2.56.112H5.216A6.548,6.548,0,0,1,7.568-4.528,21.458,21.458,0,0,0,9.888-6.24,3.709,3.709,0,0,0,11.36-9.216a3.446,3.446,0,0,0-.528-1.872c-.8-1.3-2.448-2.016-4.608-2.016a5.341,5.341,0,0,0-4.24,1.648A5.211,5.211,0,0,0,.816-8.608l3.36.352a2.846,2.846,0,0,1,.4-1.344,1.816,1.816,0,0,1,1.664-.8c1.024,0,1.712.512,1.712,1.28,0,.736-.336,1.152-1.712,2.08A22.432,22.432,0,0,0,3.392-4.912a8.226,8.226,0,0,0-2.3,3.584A7.964,7.964,0,0,0,.752.56C1.344.512,1.712.5,3.152.5Z" transform="translate(819 171)"/>
    <path id="パス_106" data-name="パス 106" class="cls-1" d="M.42-2.21A2.814,2.814,0,0,0,1-.64,3.43,3.43,0,0,0,3.79.39c2,0,3.14-.93,3.14-2.56a2.286,2.286,0,0,0-.3-1.21,2.252,2.252,0,0,0-1.01-.87,9.75,9.75,0,0,0-1.97-.54,2.7,2.7,0,0,1-.94-.33.775.775,0,0,1-.34-.65c0-.57.52-.95,1.3-.95a1.431,1.431,0,0,1,1.11.42,1.217,1.217,0,0,1,.26.64L6.8-5.85a2.823,2.823,0,0,0-.51-1.22A3.13,3.13,0,0,0,3.68-8.11c-1.85,0-3.02.93-3.02,2.4a2.126,2.126,0,0,0,.86,1.77,3.889,3.889,0,0,0,1.56.6,5.1,5.1,0,0,1,1.71.55.8.8,0,0,1,.39.72c0,.64-.55,1.04-1.42,1.04a1.618,1.618,0,0,1-1.33-.54,1.316,1.316,0,0,1-.27-.81ZM14.28-5.59a3.1,3.1,0,0,0-.58-1.24,3.386,3.386,0,0,0-2.85-1.26,3.671,3.671,0,0,0-2.62.94A4.426,4.426,0,0,0,6.99-3.87,4.571,4.571,0,0,0,8.12-.65,3.759,3.759,0,0,0,10.88.38,3.459,3.459,0,0,0,13.63-.71a3.677,3.677,0,0,0,.75-1.65l-1.74-.28a1.961,1.961,0,0,1-.31.89,1.716,1.716,0,0,1-1.46.68c-1.34,0-2.15-1.06-2.15-2.81a3.151,3.151,0,0,1,.71-2.21,1.883,1.883,0,0,1,1.41-.56,1.591,1.591,0,0,1,1.4.66,2.163,2.163,0,0,1,.33.76ZM22.23.21c-.12-.25-.3-.69-.49-1.2l-2.2-5.89a6.771,6.771,0,0,1-.34-1.04H17.05a7.678,7.678,0,0,1-.32,1.04L14.55-.99a9.3,9.3,0,0,1-.51,1.2h1.98a4.993,4.993,0,0,1,.27-1.06l.34-.97h3.02l.34.97A7.152,7.152,0,0,1,20.25.21Zm-3-3.44H17.05l.94-2.83c.07-.2.08-.25.14-.46.08.27.12.37.15.46ZM24.7-6.77a5.464,5.464,0,0,1-.65-1.15H22.19a9.738,9.738,0,0,1,.08,1.39v5.2A9.88,9.88,0,0,1,22.19.21h1.78a10.233,10.233,0,0,1-.08-1.53V-4.24c0-.2-.02-.62-.03-.79-.03-.35-.03-.35-.04-.47a11.278,11.278,0,0,0,.64,1.12l2.3,3.42A9.546,9.546,0,0,1,27.44.21h1.88a8.8,8.8,0,0,1-.08-1.39V-6.47a9.652,9.652,0,0,1,.08-1.45H27.53a8.214,8.214,0,0,1,.09,1.44v3.03c0,.37.03.9.06,1.25A12.261,12.261,0,0,0,27-3.34Z" transform="translate(833 171)"/>
  </g>
</svg>
