<svg xmlns="http://www.w3.org/2000/svg" viewBox="0 0 32 25.13">
  <defs>
    <style>
      .cls-1 {
        fill: #fff;
      }

      .cls-2 {
        fill: none;
        stroke: #fff;
        stroke-width: 2px;
      }
    </style>
  </defs>
  <g id="グループ化_35" data-name="グループ化 35" transform="translate(-900.5 -303.101)">
    <path id="パス_93" data-name="パス 93" class="cls-1" d="M-7.678.231A16.936,16.936,0,0,1-5.907.308v-1.76a10.979,10.979,0,0,1-1.683.088h-2.783a2.336,2.336,0,0,1,.517-.814A9.715,9.715,0,0,1-8.646-3.19,14.088,14.088,0,0,0-7-4.4a2.624,2.624,0,0,0,.968-1.98c0-1.54-1.287-2.519-3.311-2.519a3.439,3.439,0,0,0-2.706,1.045A3.585,3.585,0,0,0-12.826-6l1.947.22a2.057,2.057,0,0,1,.3-.979,1.464,1.464,0,0,1,1.276-.594c.792,0,1.342.418,1.342,1.023,0,.572-.242.88-1.254,1.562a15.106,15.106,0,0,0-1.881,1.4,5.392,5.392,0,0,0-1.529,2.288A5.165,5.165,0,0,0-12.892.275,12.418,12.418,0,0,1-11.363.231Zm4.587-7.458H-.528a12.449,12.449,0,0,1,1.65.088v-1.65A11.11,11.11,0,0,1-.55-8.712H-3.432c-.605,0-.847-.011-1.243-.044-.011.671-.011.748-.044,1.166l-.253,2.838c-.044.451-.066.627-.154,1.133l1.716.165A1.225,1.225,0,0,1-3.1-3.938a1.852,1.852,0,0,1,1.243-.429A1.519,1.519,0,0,1-.242-2.75,1.568,1.568,0,0,1-1.925-1.1a1.532,1.532,0,0,1-1.254-.517,1.529,1.529,0,0,1-.308-.616l-1.848.33a3.371,3.371,0,0,0,.77,1.375A3.549,3.549,0,0,0-1.87.451C.275.451,1.595-.781,1.595-2.794a2.853,2.853,0,0,0-.8-2.134,3.07,3.07,0,0,0-2.233-.858A2.9,2.9,0,0,0-3.289-5.2c.011-.121.044-.363.055-.451ZM10.89.231c.033-.22.132-.627.275-1.166l1.76-6.446a13.365,13.365,0,0,1,.418-1.331H11.231a6.61,6.61,0,0,1-.176,1.188l-.869,3.773c-.077.308-.121.539-.253,1.386-.121-.638-.22-1.1-.3-1.375L8.558-7.612a11.01,11.01,0,0,1-.253-1.1H6.666a7.088,7.088,0,0,1-.242,1.133L5.346-3.7c-.055.22-.1.4-.286,1.331-.055-.352-.187-1.023-.253-1.32L3.938-7.513a6.318,6.318,0,0,1-.176-1.2H1.639a11.319,11.319,0,0,1,.429,1.331L3.828-.935c.209.792.231.869.286,1.166h1.8A7.123,7.123,0,0,1,6.171-.9l1-3.7a13.722,13.722,0,0,0,.319-1.485c.1.539.209,1.1.319,1.485L8.822-.913A9.548,9.548,0,0,1,9.075.231ZM-8.068,8.916a9.619,9.619,0,0,1,1.232-.077h.484v5.852a12.266,12.266,0,0,1-.088,1.54h2.013a10.974,10.974,0,0,1-.088-1.54V9.026a15.218,15.218,0,0,1,.088-1.782,12.3,12.3,0,0,1-1.243.044h-1.2a7.209,7.209,0,0,1-1.2-.066ZM7.145,16.231c.033-.22.132-.627.275-1.166l1.76-6.446A13.365,13.365,0,0,1,9.6,7.288H7.486A6.609,6.609,0,0,1,7.31,8.476l-.869,3.773c-.077.308-.121.539-.253,1.386-.121-.638-.22-1.1-.3-1.375L4.813,8.388a11.01,11.01,0,0,1-.253-1.1H2.921a7.088,7.088,0,0,1-.242,1.133L1.6,12.3c-.055.22-.1.4-.286,1.331-.055-.352-.187-1.023-.253-1.32L.193,8.487a6.318,6.318,0,0,1-.176-1.2H-2.106a11.319,11.319,0,0,1,.429,1.331l1.76,6.446c.209.792.231.869.286,1.166h1.8A7.123,7.123,0,0,1,2.426,15.1l1-3.7a13.722,13.722,0,0,0,.319-1.485c.1.539.209,1.1.319,1.485l1.012,3.685a9.547,9.547,0,0,1,.253,1.144Z" transform="translate(916 312)"/>
    <line id="線_29" data-name="線 29" class="cls-2" x2="32" transform="translate(900.5 315.5)"/>
  </g>
</svg>
