<svg xmlns="http://www.w3.org/2000/svg" viewBox="0 0 41.38 18.37">
  <defs>
    <style>
      .cls-1 {
        fill: #fff;
      }
    </style>
  </defs>
  <g id="グループ化_26" data-name="グループ化 26" transform="translate(-895.56 -156.01)">
    <path id="パス_105" data-name="パス 105" class="cls-1" d="M.56-2.976a5.947,5.947,0,0,0,.272.848A4.332,4.332,0,0,0,2.48-.064a7.252,7.252,0,0,0,3.728.9A8.632,8.632,0,0,0,9.536.208a4.008,4.008,0,0,0,1.5-1.2,3.569,3.569,0,0,0,.64-2.128,3.151,3.151,0,0,0-1.056-2.368A3.6,3.6,0,0,0,8.56-6.336c1.84-.432,2.752-1.488,2.752-3.184a3.1,3.1,0,0,0-.9-2.272,5.822,5.822,0,0,0-4.1-1.36,5.719,5.719,0,0,0-4.4,1.6A4.6,4.6,0,0,0,.848-9.52l3.456.5A1.722,1.722,0,0,1,6.256-10.5c1.056,0,1.664.5,1.664,1.36C7.92-8.112,7.168-7.6,5.648-7.6a14.056,14.056,0,0,1-1.7-.1v2.752c.624-.064,1.344-.1,1.968-.1a4.606,4.606,0,0,1,1.488.208,1.388,1.388,0,0,1,.864,1.376c0,.976-.784,1.6-2.032,1.6A2.487,2.487,0,0,1,4.4-2.544a1.7,1.7,0,0,1-.448-1.024Z" transform="translate(895 171)"/>
    <path id="パス_104" data-name="パス 104" class="cls-1" d="M5.76.21a8.338,8.338,0,0,1,.43-1.4L7.45-4.34c.06-.15.23-.69.28-.86.11-.44.11-.44.16-.63-.06.95-.08,1.35-.08,1.59V-1.3A10.279,10.279,0,0,1,7.73.21H9.4A9.288,9.288,0,0,1,9.32-1.3V-6.4A10.968,10.968,0,0,1,9.4-7.92H7.18a6.048,6.048,0,0,1-.37,1.29L5.04-1.97,3.26-6.63a6.7,6.7,0,0,1-.37-1.29H.67A10.785,10.785,0,0,1,.75-6.4v5.1A10.192,10.192,0,0,1,.67.21H2.34A9.854,9.854,0,0,1,2.26-1.3V-4.21c0-.25-.02-.65-.08-1.62.21.75.35,1.21.47,1.52L3.87-1.2A6.7,6.7,0,0,1,4.3.21ZM16.09-1.31a10.689,10.689,0,0,1-1.38.07H11.85V-3.27h2.29a10.517,10.517,0,0,1,1.4.07V-4.76a12.017,12.017,0,0,1-1.4.07H11.86V-6.48h2.73a10.551,10.551,0,0,1,1.39.07V-7.99a12.557,12.557,0,0,1-1.39.07h-3.1c-.69,0-.95-.01-1.36-.03a9.537,9.537,0,0,1,.08,1.37v5.43A8.641,8.641,0,0,1,10.13.24c.41-.02.69-.03,1.37-.03h3.2a9.873,9.873,0,0,1,1.39.07ZM21.68.21a8.338,8.338,0,0,1,.43-1.4l1.26-3.15c.06-.15.23-.69.28-.86.11-.44.11-.44.16-.63-.06.95-.08,1.35-.08,1.59V-1.3A10.279,10.279,0,0,1,23.65.21h1.67a9.288,9.288,0,0,1-.08-1.51V-6.4a10.968,10.968,0,0,1,.08-1.52H23.1a6.048,6.048,0,0,1-.37,1.29L20.96-1.97,19.18-6.63a6.7,6.7,0,0,1-.37-1.29H16.59a10.785,10.785,0,0,1,.08,1.52v5.1A10.192,10.192,0,0,1,16.59.21h1.67a9.854,9.854,0,0,1-.08-1.51V-4.21c0-.25-.02-.65-.08-1.62.21.75.35,1.21.47,1.52L19.79-1.2A6.7,6.7,0,0,1,20.22.21ZM7.7,4.41a3.1,3.1,0,0,0-.58-1.24A3.386,3.386,0,0,0,4.27,1.91a3.671,3.671,0,0,0-2.62.94A4.426,4.426,0,0,0,.41,6.13,4.571,4.571,0,0,0,1.54,9.35,3.759,3.759,0,0,0,4.3,10.38,3.459,3.459,0,0,0,7.05,9.29,3.677,3.677,0,0,0,7.8,7.64L6.06,7.36a1.961,1.961,0,0,1-.31.89,1.716,1.716,0,0,1-1.46.68c-1.34,0-2.15-1.06-2.15-2.81a3.151,3.151,0,0,1,.71-2.21,1.883,1.883,0,0,1,1.41-.56,1.591,1.591,0,0,1,1.4.66,2.163,2.163,0,0,1,.33.76Zm8.15,5.8c-.12-.25-.3-.69-.49-1.2l-2.2-5.89a6.771,6.771,0,0,1-.34-1.04H10.67a7.678,7.678,0,0,1-.32,1.04L8.17,9.01a9.3,9.3,0,0,1-.51,1.2H9.64a4.993,4.993,0,0,1,.27-1.06l.34-.97h3.02l.34.97a7.152,7.152,0,0,1,.26,1.06Zm-3-3.44H10.67l.94-2.83c.07-.2.08-.25.14-.46.08.27.12.37.15.46Zm7.58,3.44a12.692,12.692,0,0,1,1.48.07V8.66a11.676,11.676,0,0,1-1.48.07H17.75V3.6a9.745,9.745,0,0,1,.08-1.52H16.01a10.912,10.912,0,0,1,.08,1.54V8.85a8.484,8.484,0,0,1-.08,1.39c.37-.02.74-.03,1.36-.03Zm6.03,0a12.692,12.692,0,0,1,1.48.07V8.66a11.676,11.676,0,0,1-1.48.07H23.78V3.6a9.745,9.745,0,0,1,.08-1.52H22.04a10.912,10.912,0,0,1,.08,1.54V8.85a8.484,8.484,0,0,1-.08,1.39c.37-.02.74-.03,1.36-.03Z" transform="translate(909 164)"/>
  </g>
</svg>
