<svg xmlns="http://www.w3.org/2000/svg" viewBox="0 0 31.004 13.312">
  <defs>
    <style>
      .cls-1 {
        fill: #fff;
      }
    </style>
  </defs>
  <g id="グループ化_27" data-name="グループ化 27" transform="translate(-747.32 -208.184)">
    <path id="パス_100" data-name="パス 100" class="cls-1" d="M.32-2.224c.592-.048,1.04-.064,2.08-.064H6.928V-1.5A13.978,13.978,0,0,1,6.8.5h3.3a11.216,11.216,0,0,1-.128-1.968v-.8h.48a12.7,12.7,0,0,1,1.568.1V-5.088a11.288,11.288,0,0,1-1.584.128H9.968v-5.2a23.087,23.087,0,0,1,.128-2.656H6.816a16.008,16.008,0,0,1-1.488,1.9L1.856-6.848c-.816.96-.816.96-1.536,1.76Zm6.624-2.7H3.712L6.048-7.776c.432-.544.672-.864.992-1.312-.064.7-.1,1.584-.1,2.3Z" transform="translate(747 221)"/>
    <path id="パス_101" data-name="パス 101" class="cls-1" d="M2.717.231a10.292,10.292,0,0,1-.088-1.54V-2.937H4.554A3.265,3.265,0,0,0,7-3.784a2.9,2.9,0,0,0,.781-2.123,2.742,2.742,0,0,0-.715-1.98,3.344,3.344,0,0,0-2.475-.825H2.244c-.649,0-1.012-.011-1.507-.033A11.212,11.212,0,0,1,.825-7.238v5.951A10.072,10.072,0,0,1,.737.231ZM2.629-4.488V-7.161H4.51A1.351,1.351,0,0,1,5.577-6.8a1.3,1.3,0,0,1,.33.946,1.254,1.254,0,0,1-1.4,1.364ZM16.324.231c-.132-.275-.33-.759-.539-1.32l-2.42-6.479a7.448,7.448,0,0,1-.374-1.144H10.626a8.446,8.446,0,0,1-.352,1.144l-2.4,6.479A10.225,10.225,0,0,1,7.315.231H9.493a5.493,5.493,0,0,1,.3-1.166L10.164-2h3.322L13.86-.935A7.867,7.867,0,0,1,14.146.231Zm-3.3-3.784h-2.4L11.66-6.666c.077-.22.088-.275.154-.506.088.3.132.407.165.506Z" transform="translate(762 221)"/>
  </g>
</svg>
