<svg xmlns="http://www.w3.org/2000/svg" viewBox="0 0 39.128 18.38">
  <defs>
    <style>
      .cls-1 {
        fill: #fff;
      }
    </style>
  </defs>
  <g id="グループ化_28" data-name="グループ化 28" transform="translate(-819.832 -206.01)">
    <path id="パス_102" data-name="パス 102" class="cls-1" d="M4.544-10.24H8.256a25.918,25.918,0,0,1,2.608.112v-2.8a19.742,19.742,0,0,1-2.64.112H3.44c-.768,0-.928,0-1.6-.032-.016.608-.032.992-.064,1.328L1.344-6.528c-.048.448-.1.832-.16,1.312l2.976.288A1.992,1.992,0,0,1,6.176-6.112,2.026,2.026,0,0,1,8.384-4a2.064,2.064,0,0,1-2.24,2.128,1.909,1.909,0,0,1-2.1-1.552l-3.216.5a5.058,5.058,0,0,0,.8,1.792A5.331,5.331,0,0,0,6.16.832c3.392,0,5.408-1.824,5.408-4.9a4.333,4.333,0,0,0-1.2-3.2,4.643,4.643,0,0,0-3.44-1.312,4.184,4.184,0,0,0-2.592.768c.032-.272.048-.432.048-.512Z" transform="translate(819 221)"/>
    <path id="パス_103" data-name="パス 103" class="cls-1" d="M.67-7.92A8.349,8.349,0,0,1,.75-6.54v5.37A8.583,8.583,0,0,1,.67.21H2.51a8.426,8.426,0,0,1-.08-1.38V-6.54a8.272,8.272,0,0,1,.08-1.38ZM5.75-6.77A5.464,5.464,0,0,1,5.1-7.92H3.24a9.738,9.738,0,0,1,.08,1.39v5.2A9.88,9.88,0,0,1,3.24.21H5.02a10.234,10.234,0,0,1-.08-1.53V-4.24c0-.2-.02-.62-.03-.79-.03-.35-.03-.35-.04-.47a11.278,11.278,0,0,0,.64,1.12L7.81-.96A9.546,9.546,0,0,1,8.49.21h1.88a8.8,8.8,0,0,1-.08-1.39V-6.47a9.652,9.652,0,0,1,.08-1.45H8.58a8.214,8.214,0,0,1,.09,1.44v3.03c0,.37.03.9.06,1.25a12.26,12.26,0,0,0-.68-1.14Zm9.21.32h1.2a11.582,11.582,0,0,1,1.51.07V-7.99a11.786,11.786,0,0,1-1.51.07H12a11.369,11.369,0,0,1-1.42-.07v1.61a11.331,11.331,0,0,1,1.43-.07h1.27v5.26A9.529,9.529,0,0,1,13.2.21h1.84a9.616,9.616,0,0,1-.08-1.4ZM7.7,4.41a3.1,3.1,0,0,0-.58-1.24A3.386,3.386,0,0,0,4.27,1.91a3.671,3.671,0,0,0-2.62.94A4.426,4.426,0,0,0,.41,6.13,4.571,4.571,0,0,0,1.54,9.35,3.759,3.759,0,0,0,4.3,10.38,3.459,3.459,0,0,0,7.05,9.29,3.677,3.677,0,0,0,7.8,7.64L6.06,7.36a1.961,1.961,0,0,1-.31.89,1.716,1.716,0,0,1-1.46.68c-1.34,0-2.15-1.06-2.15-2.81a3.151,3.151,0,0,1,.71-2.21,1.883,1.883,0,0,1,1.41-.56,1.591,1.591,0,0,1,1.4.66,2.163,2.163,0,0,1,.33.76Zm4.16-2.5c-2.36,0-3.88,1.65-3.88,4.22,0,2.59,1.52,4.26,3.88,4.26,2.34,0,3.88-1.69,3.88-4.27a4.368,4.368,0,0,0-1.15-3.17A3.655,3.655,0,0,0,11.86,1.91Zm.01,7.03c-1.34,0-2.18-1.09-2.18-2.83,0-1.69.84-2.76,2.17-2.76a1.953,1.953,0,0,1,1.42.56,3.061,3.061,0,0,1,.74,2.22C14.02,7.87,13.2,8.94,11.87,8.94Zm9.45,1.27a8.338,8.338,0,0,1,.43-1.4l1.26-3.15c.06-.15.23-.69.28-.86.11-.44.11-.44.16-.63-.06.95-.08,1.35-.08,1.59V8.7a10.279,10.279,0,0,1-.08,1.51h1.67a9.288,9.288,0,0,1-.08-1.51V3.6a10.968,10.968,0,0,1,.08-1.52H22.74a6.048,6.048,0,0,1-.37,1.29L20.6,8.03,18.82,3.37a6.7,6.7,0,0,1-.37-1.29H16.23a10.785,10.785,0,0,1,.08,1.52V8.7a10.192,10.192,0,0,1-.08,1.51H17.9a9.854,9.854,0,0,1-.08-1.51V5.79c0-.25-.02-.65-.08-1.62.21.75.35,1.21.47,1.52L19.43,8.8a6.7,6.7,0,0,1,.43,1.41Z" transform="translate(834 214)"/>
  </g>
</svg>
