<svg xmlns="http://www.w3.org/2000/svg" viewBox="0 0 29.907 13.952">
  <defs>
    <style>
      .cls-1 {
        fill: #fff;
      }
    </style>
  </defs>
  <g id="グループ化_29" data-name="グループ化 29" transform="translate(-899.768 -207.88)">
    <path id="パス_92" data-name="パス 92" class="cls-1" d="M11.424-9.92a5.169,5.169,0,0,0-1.072-1.792A5.031,5.031,0,0,0,6.608-13.12,5.172,5.172,0,0,0,2.1-10.976,8.961,8.961,0,0,0,.768-5.936,7.563,7.563,0,0,0,2.4-.784,5.168,5.168,0,0,0,6.4.832c3.152,0,5.328-1.936,5.328-4.7,0-2.752-1.824-4.48-4.72-4.48a4.859,4.859,0,0,0-2.128.416,2.886,2.886,0,0,0-1.008.72A5.471,5.471,0,0,1,4.336-9.2,2.237,2.237,0,0,1,6.48-10.576,1.669,1.669,0,0,1,8.288-9.248ZM6.432-5.808A1.941,1.941,0,0,1,8.64-3.824,2.086,2.086,0,0,1,6.368-1.76,2.065,2.065,0,0,1,4.144-3.792,2.023,2.023,0,0,1,6.432-5.808Z" transform="translate(899 221)"/>
    <path id="パス_91" data-name="パス 91" class="cls-1" d="M.462-2.431A3.1,3.1,0,0,0,1.1-.7,3.773,3.773,0,0,0,4.169.429c2.2,0,3.454-1.023,3.454-2.816a2.514,2.514,0,0,0-.33-1.331,2.478,2.478,0,0,0-1.111-.957,10.725,10.725,0,0,0-2.167-.594,2.971,2.971,0,0,1-1.034-.363.853.853,0,0,1-.374-.715c0-.627.572-1.045,1.43-1.045a1.574,1.574,0,0,1,1.221.462,1.339,1.339,0,0,1,.286.7L7.48-6.435a3.1,3.1,0,0,0-.561-1.342A3.443,3.443,0,0,0,4.048-8.921C2.013-8.921.726-7.9.726-6.281a2.339,2.339,0,0,0,.946,1.947,4.277,4.277,0,0,0,1.716.66,5.615,5.615,0,0,1,1.881.6.881.881,0,0,1,.429.792c0,.7-.605,1.144-1.562,1.144a1.779,1.779,0,0,1-1.463-.594,1.448,1.448,0,0,1-.3-.891ZM10.615.231a10.292,10.292,0,0,1-.088-1.54V-2.937h1.925a3.265,3.265,0,0,0,2.442-.847,2.9,2.9,0,0,0,.781-2.123,2.742,2.742,0,0,0-.715-1.98,3.344,3.344,0,0,0-2.475-.825H10.142c-.649,0-1.012-.011-1.507-.033a11.212,11.212,0,0,1,.088,1.507v5.951A10.072,10.072,0,0,1,8.635.231Zm-.088-4.719V-7.161h1.881a1.351,1.351,0,0,1,1.067.363,1.3,1.3,0,0,1,.33.946,1.254,1.254,0,0,1-1.4,1.364Z" transform="translate(914 221)"/>
  </g>
</svg>
