<svg xmlns="http://www.w3.org/2000/svg" viewBox="0 0 39.155 13.424">
  <defs>
    <style>
      .cls-1 {
        fill: #fff;
      }
    </style>
  </defs>
  <g id="グループ化_30" data-name="グループ化 30" transform="translate(-744.848 -258.072)">
    <path id="パス_99" data-name="パス 99" class="cls-1" d="M11.424-12.88c-.656.048-1.1.064-2.576.064H3.44a22.249,22.249,0,0,1-2.592-.112V-9.9a19.19,19.19,0,0,1,2.416-.112h4.56A24.8,24.8,0,0,0,5.2-5.728,22.57,22.57,0,0,0,3.28.5h3.7a19.83,19.83,0,0,1,2.256-7.5,12.453,12.453,0,0,1,2.192-3.216Z" transform="translate(744 271)"/>
    <path id="パス_98" data-name="パス 98" class="cls-1" d="M2.717.231a10.292,10.292,0,0,1-.088-1.54V-2.937H4.554A3.265,3.265,0,0,0,7-3.784a2.9,2.9,0,0,0,.781-2.123,2.742,2.742,0,0,0-.715-1.98,3.344,3.344,0,0,0-2.475-.825H2.244c-.649,0-1.012-.011-1.507-.033A11.212,11.212,0,0,1,.825-7.238v5.951A10.072,10.072,0,0,1,.737.231ZM2.629-4.488V-7.161H4.51A1.351,1.351,0,0,1,5.577-6.8a1.3,1.3,0,0,1,.33.946,1.254,1.254,0,0,1-1.4,1.364ZM16.357.231c-.352-.737-.473-.99-.7-1.551-.913-2.189-1.111-2.475-1.815-2.7a2.331,2.331,0,0,0,1.144-.594,2.345,2.345,0,0,0,.6-1.716c0-1.507-.99-2.387-2.717-2.387H10.131c-.671,0-1.056-.011-1.518-.033A10.751,10.751,0,0,1,8.7-7.227v5.918A9.745,9.745,0,0,1,8.613.231h1.98a10.079,10.079,0,0,1-.088-1.551V-3.355h1.386a1.247,1.247,0,0,1,.979.4,4.1,4.1,0,0,1,.748,1.441,8.727,8.727,0,0,1,.55,1.749ZM10.505-4.906V-7.183h2c.792,0,1.2.363,1.2,1.078a1.141,1.141,0,0,1-1.232,1.2Zm9.416-2.541a6.011,6.011,0,0,1-.715-1.265H17.16a10.712,10.712,0,0,1,.088,1.529v5.72A10.868,10.868,0,0,1,17.16.231h1.958a11.257,11.257,0,0,1-.088-1.683V-4.664c0-.22-.022-.682-.033-.869-.033-.385-.033-.385-.044-.517a12.406,12.406,0,0,0,.7,1.232l2.53,3.762A10.5,10.5,0,0,1,22.935.231H25A9.681,9.681,0,0,1,24.915-1.3V-7.117A10.617,10.617,0,0,1,25-8.712H23.034a9.035,9.035,0,0,1,.1,1.584V-3.8c0,.407.033.99.066,1.375a13.487,13.487,0,0,0-.748-1.254Z" transform="translate(759 271)"/>
  </g>
</svg>
