<svg xmlns="http://www.w3.org/2000/svg" viewBox="0 0 40.126 14">
  <defs>
    <style>
      .cls-1 {
        fill: #fff;
      }
    </style>
  </defs>
  <g id="グループ化_31" data-name="グループ化 31" transform="translate(-819.544 -257.832)">
    <path id="パス_97" data-name="パス 97" class="cls-1" d="M8.992-6.512a2.958,2.958,0,0,0,2.256-3.024c0-2.224-1.968-3.632-5.072-3.632a5.563,5.563,0,0,0-4.384,1.632,3.313,3.313,0,0,0-.656,2.1A2.951,2.951,0,0,0,1.9-7.392a2.991,2.991,0,0,0,1.552.88,3.612,3.612,0,0,0-1.68.736A3.168,3.168,0,0,0,.544-3.152,3.425,3.425,0,0,0,1.52-.64,6.606,6.606,0,0,0,6.16.832,6.671,6.671,0,0,0,10.768-.592a3.437,3.437,0,0,0,1.056-2.56,3.172,3.172,0,0,0-.7-2.192A3.067,3.067,0,0,0,8.992-6.512Zm-2.8-4.128c1.152,0,1.872.544,1.872,1.408,0,.9-.7,1.44-1.856,1.44-1.168,0-1.9-.56-1.9-1.44C4.3-10.1,5.04-10.64,6.192-10.64Zm.016,5.488c1.44,0,2.3.624,2.3,1.7s-.848,1.7-2.336,1.7C4.72-1.76,3.84-2.384,3.84-3.424,3.84-4.5,4.736-5.152,6.208-5.152Z" transform="translate(819 271)"/>
    <path id="パス_96" data-name="パス 96" class="cls-1" d="M4.53-6.45h1.2a11.582,11.582,0,0,1,1.51.07V-7.99a11.786,11.786,0,0,1-1.51.07H1.57A11.369,11.369,0,0,1,.15-7.99v1.61a11.331,11.331,0,0,1,1.43-.07H2.85v5.26A9.529,9.529,0,0,1,2.77.21H4.61a9.616,9.616,0,0,1-.08-1.4Zm8.69,5.14a10.689,10.689,0,0,1-1.38.07H8.98V-3.27h2.29a10.517,10.517,0,0,1,1.4.07V-4.76a12.017,12.017,0,0,1-1.4.07H8.99V-6.48h2.73a10.551,10.551,0,0,1,1.39.07V-7.99a12.557,12.557,0,0,1-1.39.07H8.62c-.69,0-.95-.01-1.36-.03a9.537,9.537,0,0,1,.08,1.37v5.43A8.641,8.641,0,0,1,7.26.24C7.67.22,7.95.21,8.63.21h3.2a9.873,9.873,0,0,1,1.39.07Zm.05-.9a2.814,2.814,0,0,0,.58,1.57A3.43,3.43,0,0,0,16.64.39c2,0,3.14-.93,3.14-2.56a2.286,2.286,0,0,0-.3-1.21,2.252,2.252,0,0,0-1.01-.87,9.75,9.75,0,0,0-1.97-.54,2.7,2.7,0,0,1-.94-.33.775.775,0,0,1-.34-.65c0-.57.52-.95,1.3-.95a1.431,1.431,0,0,1,1.11.42,1.217,1.217,0,0,1,.26.64l1.76-.19a2.823,2.823,0,0,0-.51-1.22,3.13,3.13,0,0,0-2.61-1.04c-1.85,0-3.02.93-3.02,2.4a2.126,2.126,0,0,0,.86,1.77,3.889,3.889,0,0,0,1.56.6,5.1,5.1,0,0,1,1.71.55.8.8,0,0,1,.39.72c0,.64-.55,1.04-1.42,1.04a1.618,1.618,0,0,1-1.33-.54,1.316,1.316,0,0,1-.27-.81ZM23.96-6.45h1.2a11.582,11.582,0,0,1,1.51.07V-7.99a11.786,11.786,0,0,1-1.51.07H21a11.369,11.369,0,0,1-1.42-.07v1.61a11.331,11.331,0,0,1,1.43-.07h1.27v5.26A9.529,9.529,0,0,1,22.2.21h1.84a9.616,9.616,0,0,1-.08-1.4Z" transform="translate(833 271)"/>
  </g>
</svg>
