<svg xmlns="http://www.w3.org/2000/svg" viewBox="0 0 30.389 14.12">
  <defs>
    <style>
      .cls-1 {
        fill: #fff;
      }
    </style>
  </defs>
  <g id="グループ化_33" data-name="グループ化 33" transform="translate(-900.672 -257.88)">
    <path id="パス_90" data-name="パス 90" class="cls-1" d="M.928-2.336A4.67,4.67,0,0,0,2.16-.432,5.384,5.384,0,0,0,5.856.816,7.244,7.244,0,0,0,8,.48a4.763,4.763,0,0,0,2.72-2.432,10.4,10.4,0,0,0,.912-4.48,8.256,8.256,0,0,0-1.008-4.32A5.163,5.163,0,0,0,6.016-13.12C2.848-13.12.672-11.184.672-8.352c0,2.688,1.872,4.432,4.752,4.432A4.181,4.181,0,0,0,8.608-5.072,4.837,4.837,0,0,1,8.064-2.9a2.285,2.285,0,0,1-2.048,1.12,1.962,1.962,0,0,1-1.5-.592,1.81,1.81,0,0,1-.384-.688Zm5.04-4.112A1.993,1.993,0,0,1,3.792-8.5a2.047,2.047,0,0,1,2.24-2.048A2.057,2.057,0,0,1,8.288-8.512,2.093,2.093,0,0,1,5.968-6.448Z" transform="translate(900 271)"/>
    <g id="グループ化_32" data-name="グループ化 32">
      <path id="除外_19" data-name="除外 19" class="cls-1" d="M-6055.939,10H-6071V0h15.061V10Zm-12.509-8.566h0v7.3l9.956-3.792-9.956-3.507Z" transform="translate(6987 262)"/>
    </g>
  </g>
</svg>
