<svg xmlns="http://www.w3.org/2000/svg" viewBox="0 0 31.864 11.242">
  <defs>
    <style>
      .cls-1 {
        fill: #fff;
      }
    </style>
  </defs>
  <path id="パス_82" data-name="パス 82" class="cls-1" d="M11.158.168a14.692,14.692,0,0,1-.714-1.652L7.336-9.562a9.27,9.27,0,0,1-.476-1.414H4.424a8.292,8.292,0,0,1-.448,1.414L.9-1.484A15.3,15.3,0,0,1,.154.168h2.3A6.982,6.982,0,0,1,2.87-1.3l.56-1.526H7.91L8.47-1.3A9.414,9.414,0,0,1,8.862.168ZM7.406-4.438H3.934L5.39-8.582c.042-.126.042-.126.266-.784.154.462.2.63.252.784Zm12.25,2.814a14.775,14.775,0,0,1-1.988.1h-3.92V-8.918a12.766,12.766,0,0,1,.112-2.058H11.746A13.651,13.651,0,0,1,11.858-8.9v7.266A11.108,11.108,0,0,1,11.746.21c.5-.028.994-.042,1.778-.042h4.144a13.591,13.591,0,0,1,1.988.1ZM26.922.168a11.4,11.4,0,0,1,.616-1.862l2.1-4.928a17.085,17.085,0,0,0,.644-2.044c-.014.21-.056.924-.112,2.142v4.648A13.017,13.017,0,0,1,30.058.168h1.96a12.137,12.137,0,0,1-.112-2.044V-8.9a14.5,14.5,0,0,1,.112-2.072H29.442a7.758,7.758,0,0,1-.5,1.666L26.11-2.366,23.268-9.31a9.688,9.688,0,0,1-.518-1.666H20.188A13.888,13.888,0,0,1,20.3-8.9v7.028A13.131,13.131,0,0,1,20.188.168h1.96a12.791,12.791,0,0,1-.112-2.044V-6.468c0-.308-.056-1.456-.112-2.2a15.58,15.58,0,0,0,.714,2.142l2.016,4.8A9.531,9.531,0,0,1,25.27.168Z" transform="translate(-0.154 10.976)"/>
</svg>
