<svg xmlns="http://www.w3.org/2000/svg" viewBox="0 0 43.39 8.47">
  <defs>
    <style>
      .cls-1 {
        fill: #fff;
      }
    </style>
  </defs>
  <path id="パス_83" data-name="パス 83" class="cls-1" d="M7.7-5.59a3.1,3.1,0,0,0-.58-1.24A3.386,3.386,0,0,0,4.27-8.09a3.671,3.671,0,0,0-2.62.94A4.426,4.426,0,0,0,.41-3.87,4.571,4.571,0,0,0,1.54-.65,3.759,3.759,0,0,0,4.3.38,3.459,3.459,0,0,0,7.05-.71,3.677,3.677,0,0,0,7.8-2.36L6.06-2.64a1.961,1.961,0,0,1-.31.89,1.716,1.716,0,0,1-1.46.68c-1.34,0-2.15-1.06-2.15-2.81a3.151,3.151,0,0,1,.71-2.21,1.883,1.883,0,0,1,1.41-.56,1.591,1.591,0,0,1,1.4.66,2.163,2.163,0,0,1,.33.76ZM15.85.21c-.12-.25-.3-.69-.49-1.2l-2.2-5.89a6.771,6.771,0,0,1-.34-1.04H10.67a7.678,7.678,0,0,1-.32,1.04L8.17-.99A9.3,9.3,0,0,1,7.66.21H9.64A4.993,4.993,0,0,1,9.91-.85l.34-.97h3.02l.34.97A7.152,7.152,0,0,1,13.87.21Zm-3-3.44H10.67l.94-2.83c.07-.2.08-.25.14-.46.08.27.12.37.15.46Zm5.67-3.54a5.464,5.464,0,0,1-.65-1.15H16.01a9.738,9.738,0,0,1,.08,1.39v5.2A9.88,9.88,0,0,1,16.01.21h1.78a10.233,10.233,0,0,1-.08-1.53V-4.24c0-.2-.02-.62-.03-.79-.03-.35-.03-.35-.04-.47a11.278,11.278,0,0,0,.64,1.12l2.3,3.42A9.546,9.546,0,0,1,21.26.21h1.88a8.8,8.8,0,0,1-.08-1.39V-6.47a9.652,9.652,0,0,1,.08-1.45H21.35a8.214,8.214,0,0,1,.09,1.44v3.03c0,.37.03.9.06,1.25a12.261,12.261,0,0,0-.68-1.14ZM30.9-5.59a3.1,3.1,0,0,0-.58-1.24,3.386,3.386,0,0,0-2.85-1.26,3.671,3.671,0,0,0-2.62.94,4.426,4.426,0,0,0-1.24,3.28A4.571,4.571,0,0,0,24.74-.65,3.759,3.759,0,0,0,27.5.38,3.459,3.459,0,0,0,30.25-.71,3.677,3.677,0,0,0,31-2.36l-1.74-.28a1.961,1.961,0,0,1-.31.89,1.716,1.716,0,0,1-1.46.68c-1.34,0-2.15-1.06-2.15-2.81a3.151,3.151,0,0,1,.71-2.21,1.883,1.883,0,0,1,1.41-.56,1.591,1.591,0,0,1,1.4.66,2.163,2.163,0,0,1,.33.76Zm6.5,4.28a10.689,10.689,0,0,1-1.38.07H33.16V-3.27h2.29a10.517,10.517,0,0,1,1.4.07V-4.76a12.017,12.017,0,0,1-1.4.07H33.17V-6.48H35.9a10.551,10.551,0,0,1,1.39.07V-7.99a12.557,12.557,0,0,1-1.39.07H32.8c-.69,0-.95-.01-1.36-.03a9.537,9.537,0,0,1,.08,1.37v5.43A8.641,8.641,0,0,1,31.44.24c.41-.02.69-.03,1.37-.03h3.2A9.873,9.873,0,0,1,37.4.28ZM42.32.21A12.692,12.692,0,0,1,43.8.28V-1.34a11.676,11.676,0,0,1-1.48.07H39.64V-6.4a9.745,9.745,0,0,1,.08-1.52H37.9a10.912,10.912,0,0,1,.08,1.54v5.23A8.484,8.484,0,0,1,37.9.24c.37-.02.74-.03,1.36-.03Z" transform="translate(-0.41 8.09)"/>
</svg>
