<svg xmlns="http://www.w3.org/2000/svg" viewBox="0 0 39.039 11.037">
  <defs>
    <style>
      .cls-1 {
        fill: #fd664b;
      }
    </style>
  </defs>
  <path id="パス_89" data-name="パス 89" class="cls-1" d="M10.01-7.267a4.029,4.029,0,0,0-.754-1.612,4.4,4.4,0,0,0-3.705-1.638A4.773,4.773,0,0,0,2.145-9.3,5.754,5.754,0,0,0,.533-5.031,5.942,5.942,0,0,0,2-.845,4.887,4.887,0,0,0,5.59.494,4.5,4.5,0,0,0,9.165-.923a4.779,4.779,0,0,0,.975-2.145L7.878-3.432a2.55,2.55,0,0,1-.4,1.157,2.231,2.231,0,0,1-1.9.884c-1.742,0-2.795-1.378-2.795-3.653A4.1,4.1,0,0,1,3.7-7.917a2.448,2.448,0,0,1,1.833-.728,2.069,2.069,0,0,1,1.82.858,2.811,2.811,0,0,1,.429.988ZM18.187-10.3a10.854,10.854,0,0,1,.1,1.794v2.327H13.468v-2.34a11.941,11.941,0,0,1,.1-1.781h-2.34a11.158,11.158,0,0,1,.1,1.794v6.981a10.954,10.954,0,0,1-.1,1.794h2.34a11.794,11.794,0,0,1-.1-1.794V-4.264h4.823v2.743a11.158,11.158,0,0,1-.1,1.794H20.54a11.9,11.9,0,0,1-.1-1.794V-8.515a10.29,10.29,0,0,1,.1-1.781Zm4.888,1.924a11.367,11.367,0,0,1,1.456-.091H25.1v6.916A14.5,14.5,0,0,1,25,.273h2.379a12.97,12.97,0,0,1-.1-1.82V-8.242a17.985,17.985,0,0,1,.1-2.106,14.535,14.535,0,0,1-1.469.052H24.492a8.52,8.52,0,0,1-1.417-.078Zm16.263.312A3.447,3.447,0,0,0,38.1-9.789a4.173,4.173,0,0,0-2.522-.715,3.945,3.945,0,0,0-3.523,1.937,7.681,7.681,0,0,0-.871,3.731,6.27,6.27,0,0,0,1.2,4.043A3.909,3.909,0,0,0,35.516.52,4.264,4.264,0,0,0,38.558-.6a3.728,3.728,0,0,0,1.014-2.535A3.355,3.355,0,0,0,35.88-6.695a3.737,3.737,0,0,0-1.768.377,2.534,2.534,0,0,0-.871.7,4.723,4.723,0,0,1,.442-1.872,2.014,2.014,0,0,1,1.9-1.287,1.51,1.51,0,0,1,1.638,1.2ZM37.453-3.146a1.925,1.925,0,0,1-.26,1.04,1.98,1.98,0,0,1-1.7.858,1.9,1.9,0,0,1-2.015-1.885A1.862,1.862,0,0,1,35.5-4.979,1.718,1.718,0,0,1,37.453-3.146Z" transform="translate(-0.533 10.517)"/>
</svg>
