<svg xmlns="http://www.w3.org/2000/svg" viewBox="0 0 35 16.999">
  <defs>
    <style>
      .cls-1 {
        fill: #1a0101;
      }
    </style>
  </defs>
  <g id="グループ化_73" data-name="グループ化 73" transform="translate(-396 -361)">
    <g id="グループ化_75" data-name="グループ化 75">
      <path id="除外_2" data-name="除外 2" class="cls-1" d="M-4939,17h-35V0h35V17Zm-26.5-16a7.509,7.509,0,0,0-7.5,7.5,7.509,7.509,0,0,0,7.5,7.5h18a7.508,7.508,0,0,0,7.5-7.5,7.508,7.508,0,0,0-7.5-7.5Z" transform="translate(5370 361)"/>
      <path id="パス_110" data-name="パス 110" class="cls-1" d="M6.08-2.56a2.043,2.043,0,0,1-.33.92A1.91,1.91,0,0,1,4.13-.9c-1.4,0-2.28-1.14-2.28-2.97s.86-2.95,2.28-2.95a1.811,1.811,0,0,1,1.46.62,2.084,2.084,0,0,1,.43.86l1.39-.32a3.556,3.556,0,0,0-.31-.77A3.07,3.07,0,0,0,6.04-7.52,3.534,3.534,0,0,0,4.12-8a3.475,3.475,0,0,0-2.5.95A4.528,4.528,0,0,0,.45-3.82,4.516,4.516,0,0,0,1.54-.68,3.439,3.439,0,0,0,4.11.28,3.4,3.4,0,0,0,6.84-.81a3.821,3.821,0,0,0,.67-1.5Zm7.31-5.28a7.545,7.545,0,0,1,.08,1.29v1.92H9.45V-6.56a8.2,8.2,0,0,1,.08-1.28H8.04a7.62,7.62,0,0,1,.08,1.29v5.38A7.545,7.545,0,0,1,8.04.12H9.53a7.849,7.849,0,0,1-.08-1.29V-3.43h4.02v2.26A7.62,7.62,0,0,1,13.39.12h1.49a7.927,7.927,0,0,1-.08-1.29V-6.56a7.8,7.8,0,0,1,.08-1.28Zm8.1-.05a11.049,11.049,0,0,1-1.37.05H16.94a11.046,11.046,0,0,1-1.37-.07v1.32a9.549,9.549,0,0,1,1.31-.07h3.09a16.526,16.526,0,0,0-1.75,2.91A14.947,14.947,0,0,0,17.01.12h1.58a12.88,12.88,0,0,1,1.86-5.41,6.805,6.805,0,0,1,1.04-1.44ZM25.06.28A2.838,2.838,0,0,0,27.49-.9a5.252,5.252,0,0,0,.74-2.96,6.725,6.725,0,0,0-.39-2.32,2.8,2.8,0,0,0-.66-1.01A2.9,2.9,0,0,0,25.07-8a2.843,2.843,0,0,0-2.55,1.39,5.888,5.888,0,0,0-.61,2.77,6.693,6.693,0,0,0,.39,2.3,2.8,2.8,0,0,0,.66,1.01A2.881,2.881,0,0,0,25.06.28Zm.01-1.16a1.465,1.465,0,0,1-1.28-.65,4.5,4.5,0,0,1-.51-2.38,3.731,3.731,0,0,1,.66-2.43,1.345,1.345,0,0,1,1.12-.51,1.445,1.445,0,0,1,1.09.42,3.878,3.878,0,0,1,.7,2.56,3.853,3.853,0,0,1-.7,2.57A1.453,1.453,0,0,1,25.07-.88Z" transform="translate(399 373)"/>
    </g>
  </g>
</svg>
