<svg xmlns="http://www.w3.org/2000/svg" viewBox="0 0 34 16">
  <defs>
    <style>
      .cls-1 {
        fill: #1a0101;
      }
    </style>
  </defs>
  <g id="グループ化_73" data-name="グループ化 73" transform="translate(-396 -361)">
    <g id="グループ化_75" data-name="グループ化 75" transform="translate(396 361)">
      <path id="除外_2" data-name="除外 2" class="cls-1" d="M34,16H0V0H34V16ZM8.03.941a7.059,7.059,0,0,0,0,14.118H25.97a7.059,7.059,0,1,0,0-14.118Z" transform="translate(0 0)"/>
      <path id="パス_121" data-name="パス 121" class="cls-1" d="M-5.968-5.35H-8.435V-7a2.965,2.965,0,0,0-.079-.9.34.34,0,0,0-.349-.179.364.364,0,0,0-.387.217,3.3,3.3,0,0,0-.082.938V-2.52a3.075,3.075,0,0,0,.082.9.351.351,0,0,0,.369.211.347.347,0,0,0,.36-.211,3.433,3.433,0,0,0,.085-.99V-3.8h2.467v.369a7.272,7.272,0,0,1-.208,2.086A2.132,2.132,0,0,1-7.1-.264,3.153,3.153,0,0,1-8.851.2a3.635,3.635,0,0,1-1.787-.393,1.909,1.909,0,0,1-.932-1.087A7.133,7.133,0,0,1-11.8-3.369V-6.141a12.323,12.323,0,0,1,.07-1.538,2.153,2.153,0,0,1,.419-.987,2.336,2.336,0,0,1,.967-.747,3.493,3.493,0,0,1,1.421-.272,3.474,3.474,0,0,1,1.8.422A2.023,2.023,0,0,1-6.19-8.212a6.332,6.332,0,0,1,.223,1.96ZM.589-9.486V0H-1.878V-3.984h-.738V0H-5.083V-9.486h2.467v3.393h.738V-9.486Zm5.092,0v2.068L4.169,0H1.813L3.5-7.781H1.157V-9.486Zm6.111,3.211v3.164a7.49,7.49,0,0,1-.117,1.57,2.171,2.171,0,0,1-.486.92,2.1,2.1,0,0,1-.891.615A3.428,3.428,0,0,1,9.132.182a4.338,4.338,0,0,1-1.412-.2,1.936,1.936,0,0,1-.9-.612A2.621,2.621,0,0,1,6.349-1.5a5.466,5.466,0,0,1-.141-1.462V-6.275a6.36,6.36,0,0,1,.226-1.957,1.931,1.931,0,0,1,.9-1.043,3.167,3.167,0,0,1,1.626-.393,3.41,3.41,0,0,1,1.395.272,2.327,2.327,0,0,1,.92.665,2.194,2.194,0,0,1,.413.885A8.082,8.082,0,0,1,11.792-6.275Zm-2.367-.8a3.545,3.545,0,0,0-.073-.946.324.324,0,0,0-.343-.19.339.339,0,0,0-.349.2,3.084,3.084,0,0,0-.085.935v4.629a3.436,3.436,0,0,0,.079,1A.338.338,0,0,0,9-1.277a.334.334,0,0,0,.346-.2,2.972,2.972,0,0,0,.082-.9Z" transform="translate(17 13)"/>
    </g>
  </g>
</svg>
