<svg xmlns="http://www.w3.org/2000/svg" viewBox="0 0 35 16.999">
  <defs>
    <style>
      .cls-1 {
        fill: #1a0101;
      }

      .cls-2 {
        fill: none;
        stroke: #1a0101;
      }
    </style>
  </defs>
  <g id="グループ化_76" data-name="グループ化 76" transform="translate(-472 -361)">
    <path id="除外_4" data-name="除外 4" class="cls-1" d="M-4939,17h-35V0h35V17Zm-26.5-16a7.509,7.509,0,0,0-7.5,7.5,7.509,7.509,0,0,0,7.5,7.5h18a7.508,7.508,0,0,0,7.5-7.5,7.508,7.508,0,0,0-7.5-7.5Z" transform="translate(5446 361)"/>
    <path id="パス_111" data-name="パス 111" class="cls-1" d="M-6.88-4.552a2.33,2.33,0,0,0-.664-1.112,2.561,2.561,0,0,0-1.872-.672,2.6,2.6,0,0,0-1.888.688,3.48,3.48,0,0,0-.976,2.576,3.564,3.564,0,0,0,.872,2.488A2.692,2.692,0,0,0-9.424.16a2.64,2.64,0,0,0,2.136-.9,2.8,2.8,0,0,0,.5-1.1l-.952-.184a1.612,1.612,0,0,1-.3.76A1.61,1.61,0,0,1-9.4-.632c-1.192,0-1.952-.96-1.952-2.472s.736-2.448,1.944-2.448a1.594,1.594,0,0,1,1.256.528,1.661,1.661,0,0,1,.352.7ZM-1.6-6.216a5.51,5.51,0,0,1,.064.976v1.6H-4.92V-5.248a5.827,5.827,0,0,1,.064-.968H-5.864A5.626,5.626,0,0,1-5.8-5.24v4.3A5.51,5.51,0,0,1-5.864.04h1.008A5.626,5.626,0,0,1-4.92-.936v-1.9h3.384v1.9A5.568,5.568,0,0,1-1.6.04H-.584A5.805,5.805,0,0,1-.648-.936V-5.248a5.586,5.586,0,0,1,.064-.968Z" transform="translate(489 369)"/>
    <path id="パス_112" data-name="パス 112" class="cls-1" d="M-13.472-1.768a2.161,2.161,0,0,0,.44,1.176A2.472,2.472,0,0,0-11.016.16c1.472,0,2.3-.672,2.3-1.888a1.492,1.492,0,0,0-.608-1.288,3.135,3.135,0,0,0-1.288-.5,5.409,5.409,0,0,1-1.136-.288A.817.817,0,0,1-12.36-4.6c0-.576.512-.968,1.264-.968a1.34,1.34,0,0,1,1.072.416,1.066,1.066,0,0,1,.256.6l.952-.112a2.061,2.061,0,0,0-.368-.9,2.261,2.261,0,0,0-1.9-.784c-1.328,0-2.184.7-2.184,1.768A1.466,1.466,0,0,0-12.6-3.3a3.249,3.249,0,0,0,1.16.44,4.644,4.644,0,0,1,1.36.392.845.845,0,0,1,.424.784c0,.656-.52,1.056-1.376,1.056a1.52,1.52,0,0,1-1.24-.5,1.193,1.193,0,0,1-.232-.744ZM-1.888.04a6.524,6.524,0,0,1,.2-.824l1.28-4.5A6.612,6.612,0,0,1-.1-6.216H-1.184a4.266,4.266,0,0,1-.144.848l-.824,3.192c0,.016-.072.336-.2.96-.128-.56-.176-.776-.232-.952l-.968-3.256a6.012,6.012,0,0,1-.184-.792h-.832a4.092,4.092,0,0,1-.176.8L-5.7-2.152c-.056.176-.168.624-.232.936-.048-.28-.136-.68-.2-.928l-.832-3.224a4.941,4.941,0,0,1-.144-.848H-8.2a6.118,6.118,0,0,1,.32.936l1.272,4.5A6.069,6.069,0,0,1-6.392.04h.88a7.052,7.052,0,0,1,.2-.8l.928-3.168c.072-.24.144-.568.232-.984a9.91,9.91,0,0,0,.24.984L-2.976-.76a6.6,6.6,0,0,1,.192.8Z" transform="translate(503 376)"/>
    <line id="線_60" data-name="線 60" class="cls-2" x1="33" y2="15" transform="translate(472.5 362.5)"/>
  </g>
</svg>
