<svg xmlns="http://www.w3.org/2000/svg" viewBox="0 0 256.921 14.922">
  <defs>
    <style>
      .cls-1 {
        fill: #fff;
      }
    </style>
  </defs>
  <g id="グループ化_71" data-name="グループ化 71" transform="translate(-420.136 -427.6)">
    <path id="パス_72" data-name="パス 72" class="cls-1" d="M12,.192a12.072,12.072,0,0,1-.128-2.064v-8.464A13.989,13.989,0,0,1,12-12.544H9.664a13.989,13.989,0,0,1,.128,2.208V-4.96c0,.672.048,1.632.112,2.256-.352-.64-.864-1.472-1.248-2.048l-4.048-6.1a8.775,8.775,0,0,1-.976-1.7h-2.5a13.328,13.328,0,0,1,.128,2.064v8.256A17.311,17.311,0,0,1,1.136.192H3.472a17.709,17.709,0,0,1-.128-2.4V-7.456c0-.368-.032-1.088-.048-1.392-.048-.592-.048-.592-.064-.816.384.752.784,1.44,1.088,1.92L8.448-1.52A15.941,15.941,0,0,1,9.472.192ZM21.9-4.1a3.268,3.268,0,0,1-.528,1.472A3.055,3.055,0,0,1,18.784-1.44c-2.24,0-3.648-1.824-3.648-4.752,0-2.944,1.376-4.72,3.648-4.72a2.9,2.9,0,0,1,2.336.992,3.334,3.334,0,0,1,.688,1.376l2.224-.512a5.69,5.69,0,0,0-.5-1.232,4.912,4.912,0,0,0-1.7-1.744,5.654,5.654,0,0,0-3.072-.768,5.559,5.559,0,0,0-4,1.52A7.245,7.245,0,0,0,12.9-6.112,7.225,7.225,0,0,0,14.64-1.088,5.5,5.5,0,0,0,18.752.448,5.448,5.448,0,0,0,23.12-1.3a6.113,6.113,0,0,0,1.072-2.4ZM32.736.192a13.028,13.028,0,0,1,.7-2.128l2.4-5.632A19.526,19.526,0,0,0,36.576-9.9c-.016.24-.064,1.056-.128,2.448v5.312A14.876,14.876,0,0,1,36.32.192h2.24a13.872,13.872,0,0,1-.128-2.336v-8.032a16.571,16.571,0,0,1,.128-2.368H35.616a8.866,8.866,0,0,1-.576,1.9L31.808-2.7,28.56-10.64a11.072,11.072,0,0,1-.592-1.9H25.04a15.871,15.871,0,0,1,.128,2.368v8.032A15.006,15.006,0,0,1,25.04.192h2.24a14.619,14.619,0,0,1-.128-2.336V-7.392c0-.352-.064-1.664-.128-2.512a17.806,17.806,0,0,0,.816,2.448l2.3,5.488a10.892,10.892,0,0,1,.7,2.16ZM39.28-3.6a8.806,8.806,0,0,1,1.5-.1h2.48a8.78,8.78,0,0,1,1.52.1V-5.728a10.1,10.1,0,0,1-1.52.1h-2.48a10.024,10.024,0,0,1-1.5-.1ZM51.536.192a13.412,13.412,0,0,1-.128-2.08v-8.1a24.108,24.108,0,0,1,.128-2.64,11.636,11.636,0,0,1-1.632.08H48.432a8.891,8.891,0,0,1-1.6-.1v2.032a14.229,14.229,0,0,1,1.648-.1h.768v8.816A13.28,13.28,0,0,1,49.12.192ZM65.2-12.624a17.678,17.678,0,0,1-2.192.08H57.92a17.673,17.673,0,0,1-2.192-.112v2.112a15.278,15.278,0,0,1,2.1-.112h4.944A26.442,26.442,0,0,0,59.968-6,23.916,23.916,0,0,0,58.032.192H60.56a20.608,20.608,0,0,1,2.976-8.656,10.888,10.888,0,0,1,1.664-2.3Zm10.432,0a17.678,17.678,0,0,1-2.192.08H68.352a17.673,17.673,0,0,1-2.192-.112v2.112a15.278,15.278,0,0,1,2.1-.112H73.2A26.441,26.441,0,0,0,70.4-6,23.916,23.916,0,0,0,68.464.192h2.528a20.608,20.608,0,0,1,2.976-8.656,10.888,10.888,0,0,1,1.664-2.3ZM81.344.448A4.542,4.542,0,0,0,85.232-1.44a8.4,8.4,0,0,0,1.184-4.736,10.76,10.76,0,0,0-.624-3.712A4.483,4.483,0,0,0,84.736-11.5a4.647,4.647,0,0,0-3.376-1.3,4.549,4.549,0,0,0-4.08,2.224A9.421,9.421,0,0,0,76.3-6.144a10.708,10.708,0,0,0,.624,3.68A4.483,4.483,0,0,0,77.984-.848,4.61,4.61,0,0,0,81.344.448Zm.016-1.856a2.344,2.344,0,0,1-2.048-1.04A7.2,7.2,0,0,1,78.5-6.256a5.97,5.97,0,0,1,1.056-3.888,2.152,2.152,0,0,1,1.792-.816,2.312,2.312,0,0,1,1.744.672,6.205,6.205,0,0,1,1.12,4.1,6.165,6.165,0,0,1-1.12,4.112A2.325,2.325,0,0,1,81.36-1.408Z" transform="translate(419 442)"/>
    <path id="パス_73" data-name="パス 73" class="cls-1" d="M8.622.216a10.809,10.809,0,0,1,.558-1.8L13.032-11.97a14.15,14.15,0,0,1,.9-2.142h-2.97a10.43,10.43,0,0,1-.486,1.89L7.488-3.33c-.108.324-.252.828-.414,1.368-.126-.432-.342-1.152-.432-1.368L3.654-12.222a11.7,11.7,0,0,1-.486-1.89H.2a17.8,17.8,0,0,1,.9,2.142L4.95-1.584a13.36,13.36,0,0,1,.576,1.8ZM23.94-14.112a13.581,13.581,0,0,1,.144,2.322v3.456H16.848v-3.474a14.751,14.751,0,0,1,.144-2.3H14.31a13.716,13.716,0,0,1,.144,2.322v9.684A13.581,13.581,0,0,1,14.31.216h2.682a14.128,14.128,0,0,1-.144-2.322V-6.174h7.236v4.068A13.716,13.716,0,0,1,23.94.216h2.682a14.268,14.268,0,0,1-.144-2.322v-9.7a14.032,14.032,0,0,1,.144-2.3Zm6.7,8.136h3.852a17.586,17.586,0,0,1,2.448.126V-8.244a17.757,17.757,0,0,1-2.448.126H30.636v-3.816h4.788a17.2,17.2,0,0,1,2.466.126v-2.43a18.4,18.4,0,0,1-2.466.126h-5.04c-1.1,0-1.548-.018-2.286-.054a15.544,15.544,0,0,1,.144,2.34V-2.34A15.174,15.174,0,0,1,28.1.216H30.78a15.525,15.525,0,0,1-.144-2.592ZM53.19-4.608A3.677,3.677,0,0,1,52.6-2.952,3.437,3.437,0,0,1,49.68-1.62c-2.52,0-4.1-2.052-4.1-5.346,0-3.312,1.548-5.31,4.1-5.31a3.259,3.259,0,0,1,2.628,1.116,3.751,3.751,0,0,1,.774,1.548l2.5-.576a6.4,6.4,0,0,0-.558-1.386,5.526,5.526,0,0,0-1.908-1.962,6.361,6.361,0,0,0-3.456-.864,6.254,6.254,0,0,0-4.5,1.71,8.15,8.15,0,0,0-2.106,5.814,8.128,8.128,0,0,0,1.962,5.652A6.191,6.191,0,0,0,49.644.5a6.129,6.129,0,0,0,4.914-1.962,6.877,6.877,0,0,0,1.206-2.7ZM62.946-14.4A6.239,6.239,0,0,0,58.3-12.6,7.706,7.706,0,0,0,56.25-6.984c0,4.572,2.628,7.506,6.714,7.506S69.7-2.43,69.7-6.984A7.762,7.762,0,0,0,67.68-12.6,6.308,6.308,0,0,0,62.946-14.4ZM63-1.62a3.886,3.886,0,0,1-2.79-1.1,5.947,5.947,0,0,1-1.458-4.248c0-3.258,1.638-5.31,4.23-5.31a3.874,3.874,0,0,1,2.772,1.1,5.814,5.814,0,0,1,1.422,4.194C67.176-3.672,65.574-1.62,63-1.62ZM82.944.216A13.581,13.581,0,0,1,82.8-2.106v-9.522a15.737,15.737,0,0,1,.144-2.484H80.316a15.737,15.737,0,0,1,.144,2.484V-5.58c0,.756.054,1.836.126,2.538-.4-.72-.972-1.656-1.4-2.3L74.628-12.2a9.872,9.872,0,0,1-1.1-1.908H70.722a14.994,14.994,0,0,1,.144,2.322V-2.5A19.475,19.475,0,0,1,70.722.216H73.35a19.923,19.923,0,0,1-.144-2.7v-5.9c0-.414-.036-1.224-.054-1.566-.054-.666-.054-.666-.072-.918.432.846.882,1.62,1.224,2.16l4.644,7A17.932,17.932,0,0,1,80.1.216Zm7.794-12.168h2.25a18.927,18.927,0,0,1,2.646.126v-2.412a19.1,19.1,0,0,1-2.646.126H85.86a18.105,18.105,0,0,1-2.448-.126v2.412a17.874,17.874,0,0,1,2.466-.126h2.43v9.828a15.09,15.09,0,0,1-.144,2.34h2.718a14.941,14.941,0,0,1-.144-2.34ZM108.216.216c-.252-.486-.7-1.458-.846-1.782-1.782-4.212-2.124-4.716-3.258-5.076a3.806,3.806,0,0,0,2-1.044,3.7,3.7,0,0,0,.918-2.682c0-2.376-1.566-3.744-4.3-3.744h-4.32c-.99,0-1.548-.018-2.3-.054a16.015,16.015,0,0,1,.144,2.34v9.7A14.086,14.086,0,0,1,96.1.216h2.682a14.046,14.046,0,0,1-.144-2.358V-5.814h2.682c1.386,0,2.016.666,2.988,3.15a14.571,14.571,0,0,1,.936,2.88ZM98.64-7.866V-12.06h3.69c1.476,0,2.214.666,2.214,1.962a2.136,2.136,0,0,1-.576,1.584,2.426,2.426,0,0,1-1.71.648ZM115.164-14.4a6.239,6.239,0,0,0-4.644,1.8,7.706,7.706,0,0,0-2.052,5.616c0,4.572,2.628,7.506,6.714,7.506s6.732-2.952,6.732-7.506A7.762,7.762,0,0,0,119.9-12.6,6.308,6.308,0,0,0,115.164-14.4Zm.054,12.78a3.886,3.886,0,0,1-2.79-1.1,5.947,5.947,0,0,1-1.458-4.248c0-3.258,1.638-5.31,4.23-5.31a3.874,3.874,0,0,1,2.772,1.1,5.814,5.814,0,0,1,1.422,4.194C119.394-3.672,117.792-1.62,115.218-1.62Zm17.892-.468a19,19,0,0,1-2.556.126h-5.04v-9.5a16.413,16.413,0,0,1,.144-2.646H122.94a17.551,17.551,0,0,1,.144,2.664v9.342A14.282,14.282,0,0,1,122.94.27c.648-.036,1.278-.054,2.286-.054h5.328a17.474,17.474,0,0,1,2.556.126Zm10.494,0a19,19,0,0,1-2.556.126h-5.04v-9.5a16.413,16.413,0,0,1,.144-2.646h-2.718a17.551,17.551,0,0,1,.144,2.664v9.342A14.282,14.282,0,0,1,133.434.27c.648-.036,1.278-.054,2.286-.054h5.328A17.474,17.474,0,0,1,143.6.342Zm10.548.036a17.215,17.215,0,0,1-2.3.126h-5.4V-6.174h4.392a14.1,14.1,0,0,1,2.34.126V-8.406a18.734,18.734,0,0,1-2.34.126h-4.374v-3.708h5.184a16.12,16.12,0,0,1,2.322.126v-2.376a19.232,19.232,0,0,1-2.322.126h-5.436c-1.1,0-1.566-.018-2.286-.054a15.924,15.924,0,0,1,.144,2.322v9.738A14.56,14.56,0,0,1,143.928.27c.72-.036,1.206-.054,2.286-.054h5.616a15.475,15.475,0,0,1,2.322.126ZM167.292.216c-.252-.486-.7-1.458-.846-1.782-1.782-4.212-2.124-4.716-3.258-5.076a3.806,3.806,0,0,0,2-1.044,3.7,3.7,0,0,0,.918-2.682c0-2.376-1.566-3.744-4.3-3.744h-4.32c-.99,0-1.548-.018-2.3-.054a16.015,16.015,0,0,1,.144,2.34v9.7a14.086,14.086,0,0,1-.144,2.34h2.682a14.046,14.046,0,0,1-.144-2.358V-5.814H160.4c1.386,0,2.016.666,2.988,3.15a14.57,14.57,0,0,1,.936,2.88Zm-9.576-8.082V-12.06h3.69c1.476,0,2.214.666,2.214,1.962a2.136,2.136,0,0,1-.576,1.584,2.426,2.426,0,0,1-1.71.648Z" transform="translate(509.766 442)"/>
  </g>
</svg>
