<?xml version="1.0" encoding="utf-8"?>
<!-- Generator: Adobe Illustrator 22.1.0, SVG Export Plug-In . SVG Version: 6.00 Build 0)  -->
<svg version="1.1" id="レイヤー_1" xmlns="http://www.w3.org/2000/svg" xmlns:xlink="http://www.w3.org/1999/xlink" x="0px"
	 y="0px" viewBox="0 0 102 91.6" style="enable-background:new 0 0 102 91.6;" xml:space="preserve">
<style type="text/css">
	.st0{fill:#656565;}
	.st1{fill:none;stroke:#656565;}
	.st2{fill:#C7C7C7;}
	.st3{fill:url(#長方形_22_1_);}
	.st4{fill:none;stroke:#858E95;stroke-linecap:round;stroke-linejoin:round;}
	.st5{fill:none;stroke:#858E95;stroke-linecap:round;}
	.st6{opacity:0.35;}
	.st7{fill:#E7F8F8;}
	.st8{fill:#2C2F31;}
	.st9{fill:none;stroke:#707070;}
</style>
<g id="グループ化_70" transform="translate(-263 -467)">
	<g transform="matrix(1, 0, 0, 1, 263, 467)">
		<g id="長方形_19-2_1_" transform="translate(92.97 7)">
			<path class="st0" d="M1,1h5c1.1,0,2,0.9,2,2v79.6c0,1.1-0.9,2-2,2H1c-1.1,0-2-0.9-2-2V3C-1,1.9-0.1,1,1,1z"/>
			<path class="st1" d="M1,1.5h5c0.8,0,1.5,0.7,1.5,1.5v79.6c0,0.8-0.7,1.5-1.5,1.5H1c-0.8,0-1.5-0.7-1.5-1.5V3
				C-0.5,2.2,0.2,1.5,1,1.5z"/>
		</g>
	</g>
	<g transform="matrix(1, 0, 0, 1, 263, 467)">
		<g id="長方形_19-2_2_" transform="translate(92.97 7)">
			<path class="st0" d="M-89.9,1h5c1.1,0,2,0.9,2,2v79.6c0,1.1-0.9,2-2,2h-5c-1.1,0-2-0.9-2-2V3C-91.9,1.9-91,1-89.9,1z"/>
			<path class="st1" d="M-89.9,1.5h5c0.8,0,1.5,0.7,1.5,1.5v79.6c0,0.8-0.7,1.5-1.5,1.5h-5c-0.8,0-1.5-0.7-1.5-1.5V3
				C-91.4,2.2-90.8,1.5-89.9,1.5z"/>
		</g>
	</g>
	<g transform="matrix(1, 0, 0, 1, 263, 467)">
		<g id="長方形_18-2" transform="translate(0.03 7)">
			<path class="st2" d="M2,0h5c1.1,0,2,0.9,2,2v79.6c0,1.1-0.9,2-2,2H2c-1.1,0-2-0.9-2-2V2C0,0.9,0.9,0,2,0z"/>
			<path class="st1" d="M2,0.5h5c0.8,0,1.5,0.7,1.5,1.5v79.6c0,0.8-0.7,1.5-1.5,1.5H2c-0.8,0-1.5-0.7-1.5-1.5V2
				C0.5,1.2,1.2,0.5,2,0.5z"/>
		</g>
	</g>
	<g transform="matrix(1, 0, 0, 1, 263, 467)">
		<g id="長方形_19-2" transform="translate(92.97 7)">
			<path class="st2" d="M2,0h5c1.1,0,2,0.9,2,2v79.6c0,1.1-0.9,2-2,2H2c-1.1,0-2-0.9-2-2V2C0,0.9,0.9,0,2,0z"/>
			<path class="st1" d="M2,0.5h5c0.8,0,1.5,0.7,1.5,1.5v79.6c0,0.8-0.7,1.5-1.5,1.5H2c-0.8,0-1.5-0.7-1.5-1.5V2
				C0.5,1.2,1.2,0.5,2,0.5z"/>
		</g>
	</g>
	<g id="長方形_20" transform="translate(264 468)">
		<path class="st2" d="M2,0h23c0.6,0,1,0.4,1,1v3c0,0.6-0.4,1-1,1H2C0.9,5,0,4.1,0,3V2C0,0.9,0.9,0,2,0z"/>
		<path class="st1" d="M2-0.5h23c0.8,0,1.5,0.7,1.5,1.5v3c0,0.8-0.7,1.5-1.5,1.5H2C0.6,5.5-0.5,4.4-0.5,3V2C-0.5,0.6,0.6-0.5,2-0.5z
			"/>
	</g>
	<g id="長方形_21" transform="translate(338 468)">
		<path class="st2" d="M1,0h23c1.1,0,2,0.9,2,2v1c0,1.1-0.9,2-2,2H1C0.4,5,0,4.6,0,4V1C0,0.4,0.4,0,1,0z"/>
		<path class="st1" d="M1-0.5h23c1.4,0,2.5,1.1,2.5,2.5v1c0,1.4-1.1,2.5-2.5,2.5H1C0.2,5.5-0.5,4.8-0.5,4V1C-0.5,0.2,0.2-0.5,1-0.5z
			"/>
	</g>
	
		<linearGradient id="長方形_22_1_" gradientUnits="userSpaceOnUse" x1="-190.8902" y1="830.252" x2="-190.8902" y2="829.387" gradientTransform="matrix(82 0 0 -5 15967 4635)">
		<stop  offset="0" style="stop-color:#F7E2D2"/>
		<stop  offset="1" style="stop-color:#AA825F"/>
	</linearGradient>
	<rect id="長方形_22" x="273" y="482" class="st3" width="82" height="5"/>
	<g id="グループ化_37" transform="translate(0 -7)">
		<path id="パス_23" class="st4" d="M267.4,477.4h11.8v17.2"/>
		<line id="線_30" class="st5" x1="281.5" y1="488.7" x2="281.5" y2="494.7"/>
		<line id="線_32" class="st5" x1="283.5" y1="488.7" x2="283.5" y2="494.7"/>
		<line id="線_34" class="st5" x1="285.5" y1="488.7" x2="285.5" y2="494.7"/>
		<line id="線_36" class="st5" x1="287.5" y1="488.7" x2="287.5" y2="494.7"/>
		<line id="線_37" class="st5" x1="289.5" y1="488.7" x2="289.5" y2="494.7"/>
		<line id="線_38" class="st5" x1="291.5" y1="488.7" x2="291.5" y2="494.7"/>
	</g>
	<g id="グループ化_38" transform="translate(627.869 971.086) rotate(180)">
		<path id="パス_23-2" class="st4" d="M267.4,500.5h11.8v-17.1"/>
		<line id="線_30-2" class="st5" x1="281.5" y1="483.5" x2="281.5" y2="489.5"/>
		<line id="線_32-2" class="st5" x1="283.5" y1="483.5" x2="283.5" y2="489.5"/>
		<line id="線_34-2" class="st5" x1="285.5" y1="483.5" x2="285.5" y2="489.5"/>
		<line id="線_36-2" class="st5" x1="287.5" y1="483.5" x2="287.5" y2="489.5"/>
		<line id="線_39" class="st5" x1="289.5" y1="483.5" x2="289.5" y2="489.5"/>
		<line id="線_40" class="st5" x1="291.5" y1="483.5" x2="291.5" y2="489.5"/>
	</g>
	<g id="合体_1" transform="translate(4066 479)" class="st6">
		<path class="st7" d="M-3712,15.5h-3c-0.3,0-0.5-0.2-0.5-0.5v-4v-0.5h-0.5h-72h-0.5V11v4c0,0.3-0.2,0.5-0.5,0.5h-3
			c-0.3,0-0.5-0.2-0.5-0.5V-3c0-0.3,0.2-0.5,0.5-0.5h3c0.3,0,0.5,0.2,0.5,0.5v3v0.5h0.5h72h0.5V0v-3c0-0.3,0.2-0.5,0.5-0.5h3
			c0.3,0,0.5,0.2,0.5,0.5v3v11v4C-3711.5,15.3-3711.7,15.5-3712,15.5z"/>
		<path class="st8" d="M-3712,15v-4V0l0-3l-3,0v3v1h-1h-72h-1V0l0-3l-3,0l0,18l3,0v-4v-1h1h72h1v1l0,4L-3712,15L-3712,15 M-3712,16
			h-3c-0.6,0-1-0.4-1-1v-4h-72v4c0,0.6-0.4,1-1,1h-3c-0.6,0-1-0.4-1-1V-3c0-0.6,0.4-1,1-1h3c0.6,0,1,0.4,1,1v3h72v-3
			c0-0.6,0.4-1,1-1h3c0.6,0,1,0.4,1,1v3v11v4C-3711,15.6-3711.4,16-3712,16z"/>
	</g>
	<line id="線_41" class="st9" x1="339.5" y1="473.5" x2="289.5" y2="473.5"/>
</g>
</svg>
