<svg xmlns="http://www.w3.org/2000/svg" xmlns:xlink="http://www.w3.org/1999/xlink" viewBox="0 0 102 91.629">
  <defs>
    <style>
      .cls-1 {
        fill: #c7c7c7;
        stroke: #656565;
      }

      .cls-2 {
        fill: url(#linear-gradient);
      }

      .cls-3, .cls-4, .cls-6, .cls-8 {
        fill: none;
      }

      .cls-3, .cls-4 {
        stroke: #858e95;
        stroke-linecap: round;
      }

      .cls-3 {
        stroke-linejoin: round;
      }

      .cls-5 {
        fill: #e7f8f8;
        opacity: 0.35;
      }

      .cls-6 {
        stroke: #707070;
      }

      .cls-7, .cls-9 {
        stroke: none;
      }

      .cls-9 {
        fill: #2c2f31;
      }

      .cls-10 {
        filter: url(#長方形_19);
      }

      .cls-11 {
        filter: url(#長方形_18);
      }
    </style>
    <filter id="長方形_18" x="0.029" y="7" width="10" height="84.629" filterUnits="userSpaceOnUse">
      <feOffset dx="1" dy="1" input="SourceAlpha"/>
      <feGaussianBlur result="blur"/>
      <feFlood flood-opacity="0.494"/>
      <feComposite operator="in" in2="blur"/>
      <feComposite in="SourceGraphic"/>
    </filter>
    <filter id="長方形_19" x="91.971" y="7" width="10" height="84.629" filterUnits="userSpaceOnUse">
      <feOffset dx="-1" dy="1" input="SourceAlpha"/>
      <feGaussianBlur result="blur-2"/>
      <feFlood flood-opacity="0.494"/>
      <feComposite operator="in" in2="blur-2"/>
      <feComposite in="SourceGraphic"/>
    </filter>
    <linearGradient id="linear-gradient" x1="0.5" y1="0.348" x2="0.5" y2="1.213" gradientUnits="objectBoundingBox">
      <stop offset="0" stop-color="#f7e2d2"/>
      <stop offset="1" stop-color="#aa825f"/>
    </linearGradient>
  </defs>
  <g id="グループ化_70" data-name="グループ化 70" transform="translate(-263 -467)">
    <g class="cls-11" transform="matrix(1, 0, 0, 1, 263, 467)">
      <g id="長方形_18-2" data-name="長方形 18" class="cls-1" transform="translate(0.03 7)">
        <rect class="cls-7" width="9" height="83.629" rx="2"/>
        <rect class="cls-8" x="0.5" y="0.5" width="8" height="82.629" rx="1.5"/>
      </g>
    </g>
    <g class="cls-10" transform="matrix(1, 0, 0, 1, 263, 467)">
      <g id="長方形_19-2" data-name="長方形 19" class="cls-1" transform="translate(92.97 7)">
        <rect class="cls-7" width="9" height="83.629" rx="2"/>
        <rect class="cls-8" x="0.5" y="0.5" width="8" height="82.629" rx="1.5"/>
      </g>
    </g>
    <g id="長方形_20" data-name="長方形 20" class="cls-1" transform="translate(264 468)">
      <path class="cls-7" d="M2,0H25a1,1,0,0,1,1,1V4a1,1,0,0,1-1,1H2A2,2,0,0,1,0,3V2A2,2,0,0,1,2,0Z"/>
      <path class="cls-8" d="M2-.5H25A1.5,1.5,0,0,1,26.5,1V4A1.5,1.5,0,0,1,25,5.5H2A2.5,2.5,0,0,1-.5,3V2A2.5,2.5,0,0,1,2-.5Z"/>
    </g>
    <g id="長方形_21" data-name="長方形 21" class="cls-1" transform="translate(338 468)">
      <path class="cls-7" d="M1,0H24a2,2,0,0,1,2,2V3a2,2,0,0,1-2,2H1A1,1,0,0,1,0,4V1A1,1,0,0,1,1,0Z"/>
      <path class="cls-8" d="M1-.5H24A2.5,2.5,0,0,1,26.5,2V3A2.5,2.5,0,0,1,24,5.5H1A1.5,1.5,0,0,1-.5,4V1A1.5,1.5,0,0,1,1-.5Z"/>
    </g>
    <rect id="長方形_22" data-name="長方形 22" class="cls-2" width="82" height="5" transform="translate(273 482)"/>
    <g id="グループ化_37" data-name="グループ化 37" transform="translate(0 -7)">
      <path id="パス_23" data-name="パス 23" class="cls-3" d="M4060.369,477.436h11.8v17.151" transform="translate(-3793 0)"/>
      <line id="線_30" data-name="線 30" class="cls-4" y2="6" transform="translate(281.5 488.73)"/>
      <line id="線_32" data-name="線 32" class="cls-4" y2="6" transform="translate(283.5 488.73)"/>
      <line id="線_34" data-name="線 34" class="cls-4" y2="6" transform="translate(285.5 488.73)"/>
      <line id="線_36" data-name="線 36" class="cls-4" y2="6" transform="translate(287.5 488.73)"/>
      <line id="線_37" data-name="線 37" class="cls-4" y2="6" transform="translate(289.5 488.73)"/>
      <line id="線_38" data-name="線 38" class="cls-4" y2="6" transform="translate(291.5 488.73)"/>
    </g>
    <g id="グループ化_38" data-name="グループ化 38" transform="translate(627.869 971.086) rotate(180)">
      <path id="パス_23-2" data-name="パス 23" class="cls-3" d="M4060.369,494.55h11.8V477.436" transform="translate(-3793 5.921)"/>
      <line id="線_30-2" data-name="線 30" class="cls-4" y2="6" transform="translate(281.5 483.5)"/>
      <line id="線_32-2" data-name="線 32" class="cls-4" y2="6" transform="translate(283.5 483.5)"/>
      <line id="線_34-2" data-name="線 34" class="cls-4" y2="6" transform="translate(285.5 483.5)"/>
      <line id="線_36-2" data-name="線 36" class="cls-4" y2="6" transform="translate(287.5 483.5)"/>
      <line id="線_39" data-name="線 39" class="cls-4" y2="6" transform="translate(289.5 483.5)"/>
      <line id="線_40" data-name="線 40" class="cls-4" y2="6" transform="translate(291.5 483.5)"/>
    </g>
    <g id="合体_1" data-name="合体 1" class="cls-5" transform="translate(4066 479)">
      <path class="cls-7" d="M -3712.000244140625 15.49982452392578 L -3714.999755859375 15.49982452392578 C -3715.275634765625 15.49982452392578 -3715.500244140625 15.27574729919434 -3715.500244140625 15.0003137588501 L -3715.500244140625 11.00035858154297 L -3715.500244140625 10.50035858154297 L -3716.000244140625 10.50035858154297 L -3788.00048828125 10.50035858154297 L -3788.50048828125 10.50035858154297 L -3788.50048828125 11.00035858154297 L -3788.50048828125 15.0003137588501 C -3788.50048828125 15.27574729919434 -3788.724609375 15.49982452392578 -3789 15.49982452392578 L -3792.00048828125 15.49982452392578 C -3792.27587890625 15.49982452392578 -3792.5 15.27574729919434 -3792.5 15.0003137588501 L -3792.5 -3.000441789627075 C -3792.5 -3.275875091552734 -3792.27587890625 -3.499952793121338 -3792.00048828125 -3.499952793121338 L -3789 -3.499952793121338 C -3788.724609375 -3.499952793121338 -3788.50048828125 -3.275875091552734 -3788.50048828125 -3.000441789627075 L -3788.50048828125 2.770487526504439e-06 L -3788.50048828125 0.5000027418136597 L -3788.00048828125 0.5000027418136597 L -3716.000244140625 0.5000027418136597 L -3715.500244140625 0.5000027418136597 L -3715.500244140625 2.770487526504439e-06 L -3715.500244140625 -3.000441789627075 C -3715.500244140625 -3.275875091552734 -3715.275634765625 -3.499952793121338 -3714.999755859375 -3.499952793121338 L -3712.000244140625 -3.499952793121338 C -3711.724365234375 -3.499952793121338 -3711.499755859375 -3.275875091552734 -3711.499755859375 -3.000441789627075 L -3711.499755859375 2.770487526504439e-06 L -3711.499755859375 11.00035858154297 L -3711.499755859375 15.0003137588501 C -3711.499755859375 15.27574729919434 -3711.724365234375 15.49982452392578 -3712.000244140625 15.49982452392578 Z"/>
      <path class="cls-9" d="M -3711.999755859375 15.0003137588501 L -3711.999755859375 11.00035858154297 L -3711.999755859375 2.770487526504439e-06 L -3712.000244140625 -2.999952793121338 L -3715.000244140625 -3.000441789627075 L -3715.000244140625 2.770487526504439e-06 L -3715.000244140625 1.00000274181366 L -3716.000244140625 1.00000274181366 L -3788.00048828125 1.00000274181366 L -3789.00048828125 1.00000274181366 L -3789.00048828125 2.770487526504439e-06 L -3789 -2.999952793121338 L -3792 -3.000441789627075 L -3792.00048828125 14.99982452392578 L -3789.00048828125 15.0003137588501 L -3789.00048828125 11.00035858154297 L -3789.00048828125 10.00035858154297 L -3788.00048828125 10.00035858154297 L -3716.000244140625 10.00035858154297 L -3715.000244140625 10.00035858154297 L -3715.000244140625 11.00035858154297 L -3714.999755859375 14.99982452392578 L -3712.000244140625 14.99982452392578 L -3711.999755859375 15.0003137588501 M -3712.000244140625 15.99982452392578 L -3714.999755859375 15.99982452392578 C -3715.552001953125 15.99982452392578 -3716.000244140625 15.55242538452148 -3716.000244140625 15.0003137588501 L -3716.000244140625 11.00035858154297 L -3788.00048828125 11.00035858154297 L -3788.00048828125 15.0003137588501 C -3788.00048828125 15.55242538452148 -3788.44775390625 15.99982452392578 -3789 15.99982452392578 L -3792.00048828125 15.99982452392578 C -3792.552490234375 15.99982452392578 -3793 15.55242538452148 -3793 15.0003137588501 L -3793 -3.000441789627075 C -3793 -3.552552700042725 -3792.552490234375 -3.999952793121338 -3792.00048828125 -3.999952793121338 L -3789 -3.999952793121338 C -3788.44775390625 -3.999952793121338 -3788.00048828125 -3.552552700042725 -3788.00048828125 -3.000441789627075 L -3788.00048828125 2.770487526504439e-06 L -3716.000244140625 2.770487526504439e-06 L -3716.000244140625 -3.000441789627075 C -3716.000244140625 -3.552552700042725 -3715.552001953125 -3.999952793121338 -3714.999755859375 -3.999952793121338 L -3712.000244140625 -3.999952793121338 C -3711.4482421875 -3.999952793121338 -3710.999755859375 -3.552552700042725 -3710.999755859375 -3.000441789627075 L -3710.999755859375 2.770487526504439e-06 L -3710.999755859375 11.00035858154297 L -3710.999755859375 15.0003137588501 C -3710.999755859375 15.55242538452148 -3711.4482421875 15.99982452392578 -3712.000244140625 15.99982452392578 Z"/>
    </g>
    <line id="線_41" data-name="線 41" class="cls-6" x1="50" transform="translate(289.5 473.5)"/>
  </g>
</svg>
