<?xml version="1.0" encoding="utf-8"?>
<!-- Generator: Adobe Illustrator 22.1.0, SVG Export Plug-In . SVG Version: 6.00 Build 0)  -->
<svg version="1.1" id="レイヤー_1" xmlns="http://www.w3.org/2000/svg" xmlns:xlink="http://www.w3.org/1999/xlink" x="0px"
	 y="0px" viewBox="0 0 82 59.6" style="enable-background:new 0 0 82 59.6;" xml:space="preserve">
<style type="text/css">
	.st0{opacity:0.345;}
	.st1{fill:#E7F8F8;}
	.st2{fill:#2C2F31;}
</style>
<g transform="matrix(1, 0, 0, 1, 0, 0)">
	<g id="合体_4-2" transform="translate(3793)" class="st0">
		<path class="st1" d="M-3711.5,6v46.8c0,0.8-0.7,1.5-1.5,1.5h-2h-0.5v0.5v2.8c0,0.8-0.7,1.5-1.5,1.5h-70c-0.8,0-1.5-0.7-1.5-1.5
			v-2.8v-0.5h-0.5h-2c-0.8,0-1.5-0.7-1.5-1.5V6c0-1.9,1.6-3.5,3.5-3.5h74C-3713.1,2.5-3711.5,4.1-3711.5,6z"/>
		<path class="st2" d="M-3715,3h-74c-1.7,0-3,1.3-3,3v46.8c0,0.6,0.4,1,1,1h2h1v1v2.8c0,0.6,0.4,1,1,1h70c0.6,0,1-0.4,1-1v-2.8v-1h1
			h2c0.6,0,1-0.4,1-1V6C-3712,4.3-3713.3,3-3715,3 M-3711,6v46.8c0,1.1-0.9,2-2,2h-2v2.8c0,1.1-0.9,2-2,2h-70c-1.1,0-2-0.9-2-2v-2.8
			h-2c-1.1,0-2-0.9-2-2V6c0-4.7,1.8-6,4-6h74C-3712.8,0-3711,0.9-3711,6z"/>
	</g>
</g>
</svg>
