<?xml version="1.0" encoding="utf-8"?>
<!-- Generator: Adobe Illustrator 22.1.0, SVG Export Plug-In . SVG Version: 6.00 Build 0)  -->
<svg version="1.1" id="レイヤー_1" xmlns="http://www.w3.org/2000/svg" xmlns:xlink="http://www.w3.org/1999/xlink" x="0px"
	 y="0px" viewBox="0 0 82 59.6" style="enable-background:new 0 0 82 59.6;" xml:space="preserve">
<style type="text/css">
	.st0{opacity:0.345;}
	.st1{fill:#E7F8F8;}
	.st2{fill:#2C2F31;}
</style>
<g transform="matrix(1, 0, 0, 1, 0, 0)">
	<g id="合体_4-2" transform="translate(3793)" class="st0">
		<path class="st1" d="M-3715,57.1h-74c-1.9,0-3.5-1.6-3.5-3.5V6.8c0-0.8,0.7-1.5,1.5-1.5h2h0.5V4.8V2c0-0.8,0.7-1.5,1.5-1.5h70
			c0.8,0,1.5,0.7,1.5,1.5v2.8v0.5h0.5h2c0.8,0,1.5,0.7,1.5,1.5v46.8C-3711.5,55.5-3713.1,57.1-3715,57.1z"/>
		<path class="st2" d="M-3715,56.6c1.7,0,3-1.3,3-3V6.8c0-0.6-0.4-1-1-1h-2h-1v-1V2c0-0.6-0.4-1-1-1h-70c-0.6,0-1,0.4-1,1v2.8v1h-1
			h-2c-0.6,0-1,0.4-1,1v46.8c0,1.7,1.3,3,3,3H-3715 M-3715,59.6h-74c-2.2,0-4-1.3-4-6V6.8c0-1.1,0.9-2,2-2h2V2c0-1.1,0.9-2,2-2h70
			c1.1,0,2,0.9,2,2v2.8h2c1.1,0,2,0.9,2,2v46.8C-3711,58.7-3712.8,59.6-3715,59.6z"/>
	</g>
</g>
</svg>
