<svg xmlns="http://www.w3.org/2000/svg" viewBox="0 0 25.74 10.647">
  <defs>
    <style>
      .cls-1 {
        fill: #fff;
      }
    </style>
  </defs>
  <path id="パス_80" data-name="パス 80" class="cls-1" d="M.988-1.482A11.366,11.366,0,0,1,.884.312C1.417.286,1.768.273,2.652.273H5.2A4.847,4.847,0,0,0,8.736-.936a5.609,5.609,0,0,0,1.521-4.173A5.346,5.346,0,0,0,8.814-9.087,4.953,4.953,0,0,0,5.187-10.3H2.652c-.936,0-1.261-.013-1.781-.039A10.18,10.18,0,0,1,.988-8.541Zm2.145-.13v-6.8H5.018A2.792,2.792,0,0,1,7.2-7.683,3.585,3.585,0,0,1,8.034-5.07a3.83,3.83,0,0,1-.9,2.7,2.679,2.679,0,0,1-2.106.754ZM11.4-10.3a10.854,10.854,0,0,1,.1,1.794v6.981A11.158,11.158,0,0,1,11.4.273h2.392a10.954,10.954,0,0,1-.1-1.794V-8.5a10.754,10.754,0,0,1,.1-1.794ZM21.879.273a10.84,10.84,0,0,1,.559-1.82l1.638-4.095c.078-.2.3-.9.364-1.118.143-.572.143-.572.208-.819-.078,1.235-.1,1.755-.1,2.067V-1.69a13.362,13.362,0,0,1-.1,1.963h2.171a12.074,12.074,0,0,1-.1-1.963V-8.32a14.258,14.258,0,0,1,.1-1.976H23.725a7.863,7.863,0,0,1-.481,1.677l-2.3,6.058L18.629-8.619a8.709,8.709,0,0,1-.481-1.677H15.262a14.02,14.02,0,0,1,.1,1.976v6.63a13.25,13.25,0,0,1-.1,1.963h2.171a12.81,12.81,0,0,1-.1-1.963V-5.473c0-.325-.026-.845-.1-2.106.273.975.455,1.573.611,1.976L19.422-1.56A8.706,8.706,0,0,1,19.981.273Z" transform="translate(-0.871 10.335)"/>
</svg>
