<svg xmlns="http://www.w3.org/2000/svg" viewBox="0 0 62.532 10.2">
  <defs>
    <style>
      .cls-1 {
        fill: #fff;
      }
    </style>
  </defs>
  <path id="パス_79" data-name="パス 79" class="cls-1" d="M.912-1.368A10.492,10.492,0,0,1,.816.288C1.308.264,1.632.252,2.448.252H4.8A4.474,4.474,0,0,0,8.064-.864a5.178,5.178,0,0,0,1.4-3.852A4.935,4.935,0,0,0,8.136-8.388,4.572,4.572,0,0,0,4.788-9.5H2.448C1.584-9.5,1.284-9.516.8-9.54A9.4,9.4,0,0,1,.912-7.884Zm1.98-.12V-7.764h1.74a2.577,2.577,0,0,1,2.016.672A3.309,3.309,0,0,1,7.416-4.68a3.536,3.536,0,0,1-.828,2.5,2.473,2.473,0,0,1-1.944.7ZM10.284-9.5a10.019,10.019,0,0,1,.1,1.656V-1.4a10.3,10.3,0,0,1-.1,1.656h2.208A10.112,10.112,0,0,1,12.4-1.4V-7.848a9.927,9.927,0,0,1,.1-1.656Zm3.024,6.852A3.377,3.377,0,0,0,14-.768,4.115,4.115,0,0,0,17.352.468c2.4,0,3.768-1.116,3.768-3.072a2.743,2.743,0,0,0-.36-1.452A2.7,2.7,0,0,0,19.548-5.1a11.7,11.7,0,0,0-2.364-.648,3.241,3.241,0,0,1-1.128-.4.931.931,0,0,1-.408-.78c0-.684.624-1.14,1.56-1.14a1.717,1.717,0,0,1,1.332.5,1.46,1.46,0,0,1,.312.768l2.112-.228a3.387,3.387,0,0,0-.612-1.464A3.756,3.756,0,0,0,17.22-9.732C15-9.732,13.6-8.616,13.6-6.852a2.551,2.551,0,0,0,1.032,2.124,4.666,4.666,0,0,0,1.872.72,6.126,6.126,0,0,1,2.052.66.961.961,0,0,1,.468.864c0,.768-.66,1.248-1.7,1.248a1.941,1.941,0,0,1-1.6-.648,1.58,1.58,0,0,1-.324-.972ZM26.616-7.74h1.44a13.9,13.9,0,0,1,1.812.084V-9.588a14.144,14.144,0,0,1-1.812.084H23.064a13.643,13.643,0,0,1-1.7-.084v1.932a13.6,13.6,0,0,1,1.716-.084H24.6v6.312a11.435,11.435,0,0,1-.1,1.68h2.208a11.54,11.54,0,0,1-.1-1.68ZM38.82.252c-.384-.8-.516-1.08-.768-1.692-1-2.388-1.212-2.7-1.98-2.94a2.543,2.543,0,0,0,1.248-.648A2.558,2.558,0,0,0,37.98-6.9c0-1.644-1.08-2.6-2.964-2.6H32.028c-.732,0-1.152-.012-1.656-.036a11.728,11.728,0,0,1,.1,1.656v6.456a10.631,10.631,0,0,1-.1,1.68h2.16a10.994,10.994,0,0,1-.1-1.692V-3.66h1.512a1.36,1.36,0,0,1,1.068.432,4.469,4.469,0,0,1,.816,1.572,9.52,9.52,0,0,1,.6,1.908Zm-6.384-5.6V-7.836H34.62c.864,0,1.308.4,1.308,1.176a1.244,1.244,0,0,1-1.344,1.308Zm14.172,3.78a12.826,12.826,0,0,1-1.656.084H41.52V-3.924h2.748a12.621,12.621,0,0,1,1.68.084V-5.712a14.42,14.42,0,0,1-1.68.084H41.532V-7.776h3.276a12.661,12.661,0,0,1,1.668.084v-1.9a15.069,15.069,0,0,1-1.668.084h-3.72c-.828,0-1.14-.012-1.632-.036a11.445,11.445,0,0,1,.1,1.644V-1.38a10.369,10.369,0,0,1-.1,1.668c.492-.024.828-.036,1.644-.036h3.84a11.848,11.848,0,0,1,1.668.084Zm.54-1.08a3.377,3.377,0,0,0,.7,1.884A4.115,4.115,0,0,0,51.192.468c2.4,0,3.768-1.116,3.768-3.072a2.743,2.743,0,0,0-.36-1.452A2.7,2.7,0,0,0,53.388-5.1a11.7,11.7,0,0,0-2.364-.648,3.241,3.241,0,0,1-1.128-.4.931.931,0,0,1-.408-.78c0-.684.624-1.14,1.56-1.14a1.717,1.717,0,0,1,1.332.5,1.46,1.46,0,0,1,.312.768L54.8-7.02a3.387,3.387,0,0,0-.612-1.464A3.756,3.756,0,0,0,51.06-9.732c-2.22,0-3.624,1.116-3.624,2.88a2.551,2.551,0,0,0,1.032,2.124,4.666,4.666,0,0,0,1.872.72,6.126,6.126,0,0,1,2.052.66.961.961,0,0,1,.468.864c0,.768-.66,1.248-1.7,1.248a1.941,1.941,0,0,1-1.6-.648,1.58,1.58,0,0,1-.324-.972Zm8.376,0a3.377,3.377,0,0,0,.7,1.884A4.115,4.115,0,0,0,59.568.468c2.4,0,3.768-1.116,3.768-3.072a2.743,2.743,0,0,0-.36-1.452A2.7,2.7,0,0,0,61.764-5.1,11.7,11.7,0,0,0,59.4-5.748a3.241,3.241,0,0,1-1.128-.4.931.931,0,0,1-.408-.78c0-.684.624-1.14,1.56-1.14a1.717,1.717,0,0,1,1.332.5,1.46,1.46,0,0,1,.312.768L63.18-7.02a3.387,3.387,0,0,0-.612-1.464,3.756,3.756,0,0,0-3.132-1.248c-2.22,0-3.624,1.116-3.624,2.88a2.551,2.551,0,0,0,1.032,2.124,4.666,4.666,0,0,0,1.872.72,6.126,6.126,0,0,1,2.052.66.961.961,0,0,1,.468.864c0,.768-.66,1.248-1.7,1.248a1.941,1.941,0,0,1-1.6-.648,1.58,1.58,0,0,1-.324-.972Z" transform="translate(-0.804 9.732)"/>
</svg>
