<svg xmlns="http://www.w3.org/2000/svg" viewBox="0 0 196 39">
  <defs>
    <style>
      .cls-1 {
        fill: #fcf16f;
      }

      .cls-2 {
        fill: #505050;
      }
    </style>
  </defs>
  <g id="グループ化_67" data-name="グループ化 67" transform="translate(-214 -424)">
    <g id="グループ化_68" data-name="グループ化 68">
      <rect id="長方形_14" data-name="長方形 14" class="cls-1" width="196" height="39" rx="6" transform="translate(214 424)"/>
      <path id="パス_74" data-name="パス 74" class="cls-2" d="M4.66-7.71a6.115,6.115,0,0,1-.22.99L3.15-2.43c-.05.15-.21.83-.28,1.2-.1-.52-.21-1.04-.26-1.23L1.5-6.66a5.343,5.343,0,0,1-.19-1.05H.13a7.349,7.349,0,0,1,.4,1.15L2.12-1.01A9.388,9.388,0,0,1,2.39,0h.93a7.721,7.721,0,0,1,.25-.98L4.81-5.13c.08-.27.19-.69.3-1.19A11.478,11.478,0,0,0,5.4-5.13L6.65-.98A7.849,7.849,0,0,1,6.9,0h.94c.04-.21.04-.21.26-1.01L9.69-6.56a7.908,7.908,0,0,1,.39-1.15H8.91a5.368,5.368,0,0,1-.18,1.05L7.62-2.47c-.03.1-.12.51-.26,1.24-.17-.75-.25-1.09-.3-1.26L5.78-6.72a7.9,7.9,0,0,1-.23-.99Zm10.72,0a6.5,6.5,0,0,1,.08,1.17v2.06H11.07V-6.56a6.545,6.545,0,0,1,.08-1.15H10.06a6.5,6.5,0,0,1,.08,1.17v5.37A6.289,6.289,0,0,1,10.06,0h1.09a6.5,6.5,0,0,1-.08-1.17V-3.63h4.39v2.46A6.568,6.568,0,0,1,15.38,0h1.09a6.64,6.64,0,0,1-.08-1.17V-6.56a6.545,6.545,0,0,1,.08-1.15Zm7,6.8a7.845,7.845,0,0,1-1.16.07H18.1V-3.63h2.57a7.52,7.52,0,0,1,1.18.07v-.97a8.513,8.513,0,0,1-1.18.07H18.1V-6.87h3.02a7.381,7.381,0,0,1,1.17.07v-.98a7.81,7.81,0,0,1-1.17.07h-2.9c-.49,0-.8-.01-1.14-.03a7.932,7.932,0,0,1,.08,1.19V-1.2A7.032,7.032,0,0,1,17.08.02C17.45,0,17.69,0,18.22,0h3a7.279,7.279,0,0,1,1.16.06Zm.35-6.8a6.787,6.787,0,0,1,.08,1.17v5.26A7.058,7.058,0,0,1,22.73,0h1.08a7.272,7.272,0,0,1-.08-1.28V-4.81c0-.42-.02-1.12-.06-1.73.17.33.48.86.59,1.03L27.28-.95a6.71,6.71,0,0,1,.56.95h1.23a6.289,6.289,0,0,1-.08-1.17V-6.49a6.959,6.959,0,0,1,.08-1.22H27.99a6.982,6.982,0,0,1,.08,1.21v3.62c0,.32.02.93.06,1.73-.22-.4-.52-.89-.69-1.14L24.46-6.76a5.011,5.011,0,0,1-.53-.95Zm9.38,0a6.357,6.357,0,0,1,.08,1.17v5.37A6.5,6.5,0,0,1,32.11,0h1.11a6.64,6.64,0,0,1-.08-1.17V-6.54a6.787,6.787,0,0,1,.08-1.17Zm1.71,0a6.787,6.787,0,0,1,.08,1.17v5.26A7.058,7.058,0,0,1,33.82,0H34.9a7.271,7.271,0,0,1-.08-1.28V-4.81c0-.42-.02-1.12-.06-1.73.17.33.48.86.59,1.03L38.37-.95a6.71,6.71,0,0,1,.56.95h1.23a6.289,6.289,0,0,1-.08-1.17V-6.49a6.959,6.959,0,0,1,.08-1.22H39.08a6.982,6.982,0,0,1,.08,1.21v3.62c0,.32.02.93.06,1.73-.22-.4-.52-.89-.69-1.14L35.55-6.76a5.011,5.011,0,0,1-.53-.95ZM43.28-1.2A7.181,7.181,0,0,1,43.2.02C43.56,0,43.81,0,44.34,0h1.73a3.433,3.433,0,0,0,2.49-.89,4.1,4.1,0,0,0,1.1-3.04,3.857,3.857,0,0,0-1.04-2.89,3.454,3.454,0,0,0-2.56-.89H44.34c-.51,0-.8-.01-1.14-.03a7.672,7.672,0,0,1,.08,1.19Zm.93.36V-6.87h1.85a2.44,2.44,0,0,1,1.87.66,3.144,3.144,0,0,1,.76,2.3,3.328,3.328,0,0,1-.81,2.38,2.407,2.407,0,0,1-1.85.69Zm5.8-6.87a6.357,6.357,0,0,1,.08,1.17v5.37A6.5,6.5,0,0,1,50.01,0h1.11a6.64,6.64,0,0,1-.08-1.17V-6.54a6.787,6.787,0,0,1,.08-1.17Zm1.48,5.5A2.557,2.557,0,0,0,52-.81a2.988,2.988,0,0,0,2.46.94c1.76,0,2.78-.84,2.78-2.29a1.778,1.778,0,0,0-.7-1.52,3.667,3.667,0,0,0-1.61-.64,7.6,7.6,0,0,1-1.43-.36,1.111,1.111,0,0,1-.81-1.07c0-.76.68-1.28,1.67-1.28a1.8,1.8,0,0,1,1.42.55,1.516,1.516,0,0,1,.33.79l1.01-.13a2.4,2.4,0,0,0-.45-1.08,2.721,2.721,0,0,0-2.29-.95c-1.61,0-2.65.84-2.65,2.13a1.753,1.753,0,0,0,.89,1.59,4.352,4.352,0,0,0,1.4.51,5.209,5.209,0,0,1,1.68.48,1.111,1.111,0,0,1,.56,1.03c0,.88-.69,1.41-1.82,1.41a1.977,1.977,0,0,1-1.62-.66,1.61,1.61,0,0,1-.3-.96Zm9.18-4.66h1.46a8.131,8.131,0,0,1,1.27.07v-.98a7.8,7.8,0,0,1-1.27.07H58.22a8.065,8.065,0,0,1-1.2-.07v.98a7.86,7.86,0,0,1,1.21-.07h1.5v5.69A7.251,7.251,0,0,1,59.65,0h1.1a6.761,6.761,0,0,1-.08-1.18ZM69.68,0a8.495,8.495,0,0,1-.46-.95c-.32-.74-.56-1.26-.78-1.69-.36-.7-.61-.97-1.01-1.1a2.065,2.065,0,0,0,1.08-.52,1.893,1.893,0,0,0,.56-1.47c0-1.28-.81-1.98-2.29-1.98H64.53c-.49,0-.8-.01-1.15-.03a7.589,7.589,0,0,1,.08,1.19v5.37A6.617,6.617,0,0,1,63.38,0h1.09a6.476,6.476,0,0,1-.08-1.18V-3.44h1.73c.79,0,1.18.39,1.75,1.76A7.249,7.249,0,0,1,68.45,0ZM64.39-4.26V-6.89h2.32c.91,0,1.39.43,1.39,1.25a1.306,1.306,0,0,1-.36.97,1.555,1.555,0,0,1-1.08.41ZM75.16-.91A7.845,7.845,0,0,1,74-.84H70.88V-3.63h2.57a7.52,7.52,0,0,1,1.18.07v-.97a8.513,8.513,0,0,1-1.18.07H70.88V-6.87H73.9a7.381,7.381,0,0,1,1.17.07v-.98a7.809,7.809,0,0,1-1.17.07H71c-.49,0-.8-.01-1.14-.03a7.932,7.932,0,0,1,.08,1.19V-1.2A7.033,7.033,0,0,1,69.86.02C70.23,0,70.47,0,71,0h3a7.279,7.279,0,0,1,1.16.06Zm.12-1.3a2.557,2.557,0,0,0,.51,1.4,2.988,2.988,0,0,0,2.46.94c1.76,0,2.78-.84,2.78-2.29a1.778,1.778,0,0,0-.7-1.52,3.666,3.666,0,0,0-1.61-.64,7.6,7.6,0,0,1-1.43-.36,1.111,1.111,0,0,1-.81-1.07c0-.76.68-1.28,1.67-1.28a1.8,1.8,0,0,1,1.42.55,1.516,1.516,0,0,1,.33.79l1.01-.13a2.4,2.4,0,0,0-.45-1.08,2.721,2.721,0,0,0-2.29-.95c-1.61,0-2.65.84-2.65,2.13a1.753,1.753,0,0,0,.89,1.59,4.352,4.352,0,0,0,1.4.51,5.209,5.209,0,0,1,1.68.48,1.111,1.111,0,0,1,.56,1.03c0,.88-.69,1.41-1.82,1.41a1.977,1.977,0,0,1-1.62-.66,1.61,1.61,0,0,1-.3-.96Zm5.92,0a2.557,2.557,0,0,0,.51,1.4,2.988,2.988,0,0,0,2.46.94c1.76,0,2.78-.84,2.78-2.29a1.778,1.778,0,0,0-.7-1.52,3.666,3.666,0,0,0-1.61-.64,7.6,7.6,0,0,1-1.43-.36,1.111,1.111,0,0,1-.81-1.07c0-.76.68-1.28,1.67-1.28a1.8,1.8,0,0,1,1.42.55,1.516,1.516,0,0,1,.33.79l1.01-.13a2.4,2.4,0,0,0-.45-1.08,2.721,2.721,0,0,0-2.29-.95c-1.61,0-2.65.84-2.65,2.13a1.753,1.753,0,0,0,.89,1.59,4.352,4.352,0,0,0,1.4.51,5.209,5.209,0,0,1,1.68.48,1.111,1.111,0,0,1,.56,1.03c0,.88-.69,1.41-1.82,1.41a1.977,1.977,0,0,1-1.62-.66,1.61,1.61,0,0,1-.3-.96Zm7.22,1.08H87.28V0h.66c-.01.63-.09.78-.57.96l.3.39c.59-.3.75-.58.75-1.35ZM92.47,0a6.689,6.689,0,0,1-.08-1.18V-3.07h2.14a2.251,2.251,0,0,0,2.55-2.39c0-1.44-.89-2.25-2.5-2.25H92.52c-.47,0-.78-.01-1.14-.03a7.713,7.713,0,0,1,.08,1.18v5.39A6.713,6.713,0,0,1,91.38,0Zm-.08-3.89v-3h2.14c1.04,0,1.58.51,1.58,1.47a1.41,1.41,0,0,1-1.58,1.53ZM103.54,0a8.495,8.495,0,0,1-.46-.95c-.32-.74-.56-1.26-.78-1.69-.36-.7-.61-.97-1.01-1.1a2.065,2.065,0,0,0,1.08-.52,1.893,1.893,0,0,0,.56-1.47c0-1.28-.81-1.98-2.29-1.98H98.39c-.49,0-.8-.01-1.15-.03a7.589,7.589,0,0,1,.08,1.19v5.37A6.617,6.617,0,0,1,97.24,0h1.09a6.476,6.476,0,0,1-.08-1.18V-3.44h1.73c.79,0,1.18.39,1.75,1.76A7.248,7.248,0,0,1,102.31,0ZM98.25-4.26V-6.89h2.32c.91,0,1.39.43,1.39,1.25a1.306,1.306,0,0,1-.36.97,1.555,1.555,0,0,1-1.08.41ZM109.02-.91a7.845,7.845,0,0,1-1.16.07h-3.12V-3.63h2.57a7.52,7.52,0,0,1,1.18.07v-.97a8.513,8.513,0,0,1-1.18.07h-2.57V-6.87h3.02a7.381,7.381,0,0,1,1.17.07v-.98a7.809,7.809,0,0,1-1.17.07h-2.9c-.49,0-.8-.01-1.14-.03a7.932,7.932,0,0,1,.08,1.19V-1.2a7.033,7.033,0,0,1-.08,1.22c.37-.02.61-.02,1.14-.02h3a7.279,7.279,0,0,1,1.16.06Zm.12-1.3a2.557,2.557,0,0,0,.51,1.4,2.988,2.988,0,0,0,2.46.94c1.76,0,2.78-.84,2.78-2.29a1.778,1.778,0,0,0-.7-1.52,3.666,3.666,0,0,0-1.61-.64,7.6,7.6,0,0,1-1.43-.36,1.111,1.111,0,0,1-.81-1.07c0-.76.68-1.28,1.67-1.28a1.8,1.8,0,0,1,1.42.55,1.516,1.516,0,0,1,.33.79l1.01-.13a2.4,2.4,0,0,0-.45-1.08,2.721,2.721,0,0,0-2.29-.95c-1.61,0-2.65.84-2.65,2.13a1.753,1.753,0,0,0,.89,1.59,4.352,4.352,0,0,0,1.4.51,5.209,5.209,0,0,1,1.68.48,1.111,1.111,0,0,1,.56,1.03c0,.88-.69,1.41-1.82,1.41a1.977,1.977,0,0,1-1.62-.66,1.61,1.61,0,0,1-.3-.96Zm5.92,0a2.557,2.557,0,0,0,.51,1.4,2.988,2.988,0,0,0,2.46.94c1.76,0,2.78-.84,2.78-2.29a1.778,1.778,0,0,0-.7-1.52,3.666,3.666,0,0,0-1.61-.64,7.6,7.6,0,0,1-1.43-.36,1.111,1.111,0,0,1-.81-1.07c0-.76.68-1.28,1.67-1.28a1.8,1.8,0,0,1,1.42.55,1.516,1.516,0,0,1,.33.79l1.01-.13a2.4,2.4,0,0,0-.45-1.08,2.721,2.721,0,0,0-2.29-.95c-1.61,0-2.65.84-2.65,2.13a1.753,1.753,0,0,0,.89,1.59,4.352,4.352,0,0,0,1.4.51,5.209,5.209,0,0,1,1.68.48,1.111,1.111,0,0,1,.56,1.03c0,.88-.69,1.41-1.82,1.41a1.977,1.977,0,0,1-1.62-.66,1.61,1.61,0,0,1-.3-.96Zm11.61-4.66h1.46a8.131,8.131,0,0,1,1.27.07v-.98a7.8,7.8,0,0,1-1.27.07h-3.91a8.065,8.065,0,0,1-1.2-.07v.98a7.86,7.86,0,0,1,1.21-.07h1.5v5.69A7.252,7.252,0,0,1,125.65,0h1.1a6.761,6.761,0,0,1-.08-1.18Zm8.03-.84a6.5,6.5,0,0,1,.08,1.17v2.06h-4.39V-6.56a6.546,6.546,0,0,1,.08-1.15h-1.09a6.5,6.5,0,0,1,.08,1.17v5.37A6.289,6.289,0,0,1,129.38,0h1.09a6.5,6.5,0,0,1-.08-1.17V-3.63h4.39v2.46A6.569,6.569,0,0,1,134.7,0h1.09a6.64,6.64,0,0,1-.08-1.17V-6.56a6.546,6.546,0,0,1,.08-1.15Zm1.7,0a6.358,6.358,0,0,1,.08,1.17v5.37A6.5,6.5,0,0,1,136.4,0h1.11a6.64,6.64,0,0,1-.08-1.17V-6.54a6.787,6.787,0,0,1,.08-1.17Zm1.48,5.5a2.557,2.557,0,0,0,.51,1.4,2.988,2.988,0,0,0,2.46.94c1.76,0,2.78-.84,2.78-2.29a1.778,1.778,0,0,0-.7-1.52,3.666,3.666,0,0,0-1.61-.64,7.6,7.6,0,0,1-1.43-.36,1.111,1.111,0,0,1-.81-1.07c0-.76.68-1.28,1.67-1.28a1.8,1.8,0,0,1,1.42.55,1.516,1.516,0,0,1,.33.79l1.01-.13a2.4,2.4,0,0,0-.45-1.08,2.721,2.721,0,0,0-2.29-.95c-1.61,0-2.65.84-2.65,2.13a1.753,1.753,0,0,0,.89,1.59,4.352,4.352,0,0,0,1.4.51,5.209,5.209,0,0,1,1.68.48,1.111,1.111,0,0,1,.56,1.03c0,.88-.69,1.41-1.82,1.41a1.977,1.977,0,0,1-1.62-.66,1.61,1.61,0,0,1-.3-.96Zm9.73-5.5c-.59,0-.85-.01-1.14-.02a6.362,6.362,0,0,1,.08,1.11v5.38a6.32,6.32,0,0,1-.09,1.26c.37-.02.65-.02,1.15-.02h2.31c1.57,0,2.46-.77,2.46-2.13a1.943,1.943,0,0,0-.61-1.51,1.749,1.749,0,0,0-.98-.43,1.83,1.83,0,0,0,.78-.41,1.726,1.726,0,0,0,.54-1.35c0-1.21-.83-1.88-2.3-1.88Zm-.13,3.26V-6.9h2.27c.93,0,1.41.4,1.41,1.17,0,.82-.51,1.28-1.4,1.28Zm0,.8h2.31c1.07,0,1.62.49,1.62,1.43,0,.92-.56,1.41-1.59,1.41h-2.34Zm10.59-4.06a6.7,6.7,0,0,1,.08,1.21v3.62a1.973,1.973,0,0,1-2.18,2.2,1.985,1.985,0,0,1-2.19-2.2V-6.5a6.353,6.353,0,0,1,.08-1.21h-1.1a6.625,6.625,0,0,1,.08,1.21v3.65c0,1.93,1.11,3,3.11,3a3.239,3.239,0,0,0,2.35-.82,3.005,3.005,0,0,0,.79-2.18V-6.52a6.525,6.525,0,0,1,.08-1.19Zm4.72.84h1.46a8.131,8.131,0,0,1,1.27.07v-.98a7.8,7.8,0,0,1-1.27.07h-3.91a8.065,8.065,0,0,1-1.2-.07v.98a7.86,7.86,0,0,1,1.21-.07h1.5v5.69A7.251,7.251,0,0,1,161.77,0h1.1a6.761,6.761,0,0,1-.08-1.18Zm5.74,0h1.46a8.131,8.131,0,0,1,1.27.07v-.98a7.8,7.8,0,0,1-1.27.07h-3.91a8.065,8.065,0,0,1-1.2-.07v.98a7.86,7.86,0,0,1,1.21-.07h1.5v5.69A7.251,7.251,0,0,1,167.51,0h1.1a6.761,6.761,0,0,1-.08-1.18Zm6-.99c-2.15,0-3.54,1.57-3.54,4,0,2.45,1.38,4.01,3.53,4.01s3.54-1.57,3.54-4.01S176.69-7.86,174.53-7.86Zm.01,7.17c-1.56,0-2.58-1.26-2.58-3.17s1.01-3.16,2.57-3.16a2.339,2.339,0,0,1,1.69.67,3.442,3.442,0,0,1,.86,2.5C177.08-1.92,176.09-.69,174.54-.69Zm3.87-7.02a6.787,6.787,0,0,1,.08,1.17v5.26A7.058,7.058,0,0,1,178.41,0h1.08a7.272,7.272,0,0,1-.08-1.28V-4.81c0-.42-.02-1.12-.06-1.73.17.33.48.86.59,1.03l3.02,4.56a6.71,6.71,0,0,1,.56.95h1.23a6.289,6.289,0,0,1-.08-1.17V-6.49a6.96,6.96,0,0,1,.08-1.22h-1.08a6.981,6.981,0,0,1,.08,1.21v3.62c0,.32.02.93.06,1.73-.22-.4-.52-.89-.69-1.14l-2.98-4.47a5.011,5.011,0,0,1-.53-.95ZM6.05,7.29A6.7,6.7,0,0,1,6.13,8.5v3.62a1.973,1.973,0,0,1-2.18,2.2,1.985,1.985,0,0,1-2.19-2.2V8.5a6.352,6.352,0,0,1,.08-1.21H.74A6.625,6.625,0,0,1,.82,8.5v3.65c0,1.93,1.11,3,3.11,3a3.239,3.239,0,0,0,2.35-.82,3.005,3.005,0,0,0,.79-2.18V8.48a6.525,6.525,0,0,1,.08-1.19Zm1.69,0a6.787,6.787,0,0,1,.08,1.17v5.26A7.058,7.058,0,0,1,7.74,15H8.82a7.272,7.272,0,0,1-.08-1.28V10.19c0-.42-.02-1.12-.06-1.73.17.33.48.86.59,1.03l3.02,4.56a6.71,6.71,0,0,1,.56.95h1.23A6.289,6.289,0,0,1,14,13.83V8.51a6.959,6.959,0,0,1,.08-1.22H13a6.982,6.982,0,0,1,.08,1.21v3.62c0,.32.02.93.06,1.73-.22-.4-.52-.89-.69-1.14L9.47,8.24a5.011,5.011,0,0,1-.53-.95Zm9.98.84h1.46a8.131,8.131,0,0,1,1.27.07V7.22a7.8,7.8,0,0,1-1.27.07H15.27a8.065,8.065,0,0,1-1.2-.07V8.2a7.86,7.86,0,0,1,1.21-.07h1.5v5.69A7.251,7.251,0,0,1,16.7,15h1.1a6.761,6.761,0,0,1-.08-1.18Zm2.71-.84a6.357,6.357,0,0,1,.08,1.17v5.37A6.5,6.5,0,0,1,20.43,15h1.11a6.64,6.64,0,0,1-.08-1.17V8.46a6.787,6.787,0,0,1,.08-1.17ZM26.21,15a7.955,7.955,0,0,1,1.24.06v-.98a8.75,8.75,0,0,1-1.24.07H23.17V8.55a7.166,7.166,0,0,1,.08-1.26H22.14a7.218,7.218,0,0,1,.08,1.27V13.8a7.032,7.032,0,0,1-.08,1.22c.37-.02.63-.02,1.15-.02Zm4.74-7.71c-.59,0-.85-.01-1.14-.02a6.363,6.363,0,0,1,.08,1.11v5.38a6.32,6.32,0,0,1-.09,1.26c.37-.02.65-.02,1.15-.02h2.31c1.57,0,2.46-.77,2.46-2.13a1.943,1.943,0,0,0-.61-1.51,1.749,1.749,0,0,0-.98-.43,1.83,1.83,0,0,0,.78-.41,1.726,1.726,0,0,0,.54-1.35c0-1.21-.83-1.88-2.3-1.88Zm-.13,3.26V8.1h2.27c.93,0,1.41.4,1.41,1.17,0,.82-.51,1.28-1.4,1.28Zm0,.8h2.31c1.07,0,1.62.49,1.62,1.43,0,.92-.56,1.41-1.59,1.41H30.82Zm10.59,2.74a7.845,7.845,0,0,1-1.16.07H37.13V11.37H39.7a7.52,7.52,0,0,1,1.18.07v-.97a8.513,8.513,0,0,1-1.18.07H37.13V8.13h3.02a7.381,7.381,0,0,1,1.17.07V7.22a7.809,7.809,0,0,1-1.17.07h-2.9c-.49,0-.8-.01-1.14-.03a7.932,7.932,0,0,1,.08,1.19V13.8a7.032,7.032,0,0,1-.08,1.22c.37-.02.61-.02,1.14-.02h3a7.279,7.279,0,0,1,1.16.06Zm5.65,0a7.845,7.845,0,0,1-1.16.07H42.78V11.37h2.57a7.52,7.52,0,0,1,1.18.07v-.97a8.513,8.513,0,0,1-1.18.07H42.78V8.13H45.8a7.381,7.381,0,0,1,1.17.07V7.22a7.809,7.809,0,0,1-1.17.07H42.9c-.49,0-.8-.01-1.14-.03a7.932,7.932,0,0,1,.08,1.19V13.8a7.032,7.032,0,0,1-.08,1.22c.37-.02.61-.02,1.14-.02h3a7.279,7.279,0,0,1,1.16.06ZM48.5,15a6.688,6.688,0,0,1-.08-1.18V11.93h2.14a2.251,2.251,0,0,0,2.55-2.39c0-1.44-.89-2.25-2.5-2.25H48.55c-.47,0-.78-.01-1.14-.03a7.713,7.713,0,0,1,.08,1.18v5.39A6.713,6.713,0,0,1,47.41,15Zm-.08-3.89v-3h2.14c1.04,0,1.58.51,1.58,1.47a1.41,1.41,0,0,1-1.58,1.53Zm7.05,1.68a2.557,2.557,0,0,0,.51,1.4,2.988,2.988,0,0,0,2.46.94c1.76,0,2.78-.84,2.78-2.29a1.778,1.778,0,0,0-.7-1.52,3.667,3.667,0,0,0-1.61-.64,7.6,7.6,0,0,1-1.43-.36,1.111,1.111,0,0,1-.81-1.07c0-.76.68-1.28,1.67-1.28a1.8,1.8,0,0,1,1.42.55,1.516,1.516,0,0,1,.33.79l1.01-.13a2.4,2.4,0,0,0-.45-1.08,2.721,2.721,0,0,0-2.29-.95c-1.61,0-2.65.84-2.65,2.13a1.753,1.753,0,0,0,.89,1.59,4.352,4.352,0,0,0,1.4.51,5.209,5.209,0,0,1,1.68.48,1.111,1.111,0,0,1,.56,1.03c0,.88-.69,1.41-1.82,1.41a1.977,1.977,0,0,1-1.62-.66,1.61,1.61,0,0,1-.3-.96Zm9.44-5.65c-2.15,0-3.54,1.57-3.54,4,0,2.45,1.38,4.01,3.53,4.01s3.54-1.57,3.54-4.01S67.07,7.14,64.91,7.14Zm.01,7.17c-1.56,0-2.58-1.26-2.58-3.17s1.01-3.16,2.57-3.16a2.339,2.339,0,0,1,1.69.67,3.442,3.442,0,0,1,.86,2.5C67.46,13.08,66.47,14.31,64.92,14.31Zm9.17-7.02a6.7,6.7,0,0,1,.08,1.21v3.62a2.185,2.185,0,1,1-4.37,0V8.5a6.353,6.353,0,0,1,.08-1.21h-1.1a6.624,6.624,0,0,1,.08,1.21v3.65c0,1.93,1.11,3,3.11,3a3.239,3.239,0,0,0,2.35-.82,3.005,3.005,0,0,0,.79-2.18V8.48a6.525,6.525,0,0,1,.08-1.19Zm1.69,0a6.787,6.787,0,0,1,.08,1.17v5.26A7.058,7.058,0,0,1,75.78,15h1.08a7.271,7.271,0,0,1-.08-1.28V10.19c0-.42-.02-1.12-.06-1.73.17.33.48.86.59,1.03l3.02,4.56a6.71,6.71,0,0,1,.56.95h1.23a6.289,6.289,0,0,1-.08-1.17V8.51a6.96,6.96,0,0,1,.08-1.22H81.04a6.983,6.983,0,0,1,.08,1.21v3.62c0,.32.02.93.06,1.73-.22-.4-.52-.89-.69-1.14L77.51,8.24a5.011,5.011,0,0,1-.53-.95Zm7.03,6.51a7.181,7.181,0,0,1-.08,1.22c.36-.02.61-.02,1.14-.02H85.6a3.433,3.433,0,0,0,2.49-.89,4.1,4.1,0,0,0,1.1-3.04,3.857,3.857,0,0,0-1.04-2.89,3.454,3.454,0,0,0-2.56-.89H83.87c-.51,0-.8-.01-1.14-.03a7.673,7.673,0,0,1,.08,1.19Zm.93.36V8.13h1.85a2.44,2.44,0,0,1,1.87.66,3.144,3.144,0,0,1,.76,2.3,3.328,3.328,0,0,1-.81,2.38,2.407,2.407,0,0,1-1.85.69Zm5.57-1.37a2.557,2.557,0,0,0,.51,1.4,2.988,2.988,0,0,0,2.46.94c1.76,0,2.78-.84,2.78-2.29a1.778,1.778,0,0,0-.7-1.52,3.666,3.666,0,0,0-1.61-.64,7.6,7.6,0,0,1-1.43-.36,1.111,1.111,0,0,1-.81-1.07c0-.76.68-1.28,1.67-1.28a1.8,1.8,0,0,1,1.42.55,1.516,1.516,0,0,1,.33.79l1.01-.13a2.4,2.4,0,0,0-.45-1.08,2.721,2.721,0,0,0-2.29-.95c-1.61,0-2.65.84-2.65,2.13a1.753,1.753,0,0,0,.89,1.59,4.352,4.352,0,0,0,1.4.51,5.209,5.209,0,0,1,1.68.48,1.111,1.111,0,0,1,.56,1.03c0,.88-.69,1.41-1.82,1.41a1.977,1.977,0,0,1-1.62-.66,1.61,1.61,0,0,1-.3-.96Zm14.93-3.5a3,3,0,0,0-3.1-2.15A3.2,3.2,0,0,0,98.82,8a4.319,4.319,0,0,0-1.18,3.16,4.335,4.335,0,0,0,1.09,3.07,3.611,3.611,0,0,0,5.03-.23,3.481,3.481,0,0,0,.58-1.28l-1-.21a2.193,2.193,0,0,1-.39.98,2.142,2.142,0,0,1-1.79.81c-1.55,0-2.54-1.23-2.54-3.17s.97-3.15,2.54-3.15a2.09,2.09,0,0,1,1.65.69,2.267,2.267,0,0,1,.46.88Zm3.7-2.15c-2.15,0-3.54,1.57-3.54,4,0,2.45,1.38,4.01,3.53,4.01s3.54-1.57,3.54-4.01S110.1,7.14,107.94,7.14Zm.01,7.17c-1.56,0-2.58-1.26-2.58-3.17s1.01-3.16,2.57-3.16a2.339,2.339,0,0,1,1.69.67,3.442,3.442,0,0,1,.86,2.5C110.49,13.08,109.5,14.31,107.95,14.31Zm3.87-7.02a6.787,6.787,0,0,1,.08,1.17v5.26a7.058,7.058,0,0,1-.08,1.28h1.08a7.271,7.271,0,0,1-.08-1.28V10.19c0-.42-.02-1.12-.06-1.73.17.33.48.86.59,1.03l3.02,4.56a6.71,6.71,0,0,1,.56.95h1.23a6.288,6.288,0,0,1-.08-1.17V8.51a6.959,6.959,0,0,1,.08-1.22h-1.08a6.982,6.982,0,0,1,.08,1.21v3.62c0,.32.02.93.06,1.73-.22-.4-.52-.89-.69-1.14l-2.98-4.47a5.011,5.011,0,0,1-.53-.95Zm9.98.84h1.46a8.131,8.131,0,0,1,1.27.07V7.22a7.8,7.8,0,0,1-1.27.07h-3.91a8.065,8.065,0,0,1-1.2-.07V8.2a7.86,7.86,0,0,1,1.21-.07h1.5v5.69a7.252,7.252,0,0,1-.08,1.18h1.1a6.761,6.761,0,0,1-.08-1.18Zm2.71-.84a6.358,6.358,0,0,1,.08,1.17v5.37a6.5,6.5,0,0,1-.08,1.17h1.11a6.64,6.64,0,0,1-.08-1.17V8.46a6.787,6.787,0,0,1,.08-1.17Zm1.71,0a6.787,6.787,0,0,1,.08,1.17v5.26a7.058,7.058,0,0,1-.08,1.28h1.08a7.271,7.271,0,0,1-.08-1.28V10.19c0-.42-.02-1.12-.06-1.73.17.33.48.86.59,1.03l3.02,4.56a6.71,6.71,0,0,1,.56.95h1.23a6.289,6.289,0,0,1-.08-1.17V8.51a6.96,6.96,0,0,1,.08-1.22h-1.08a6.981,6.981,0,0,1,.08,1.21v3.62c0,.32.02.93.06,1.73-.22-.4-.52-.89-.69-1.14l-2.98-4.47a5.011,5.011,0,0,1-.53-.95Zm12.25,0a6.7,6.7,0,0,1,.08,1.21v3.62a2.185,2.185,0,1,1-4.37,0V8.5a6.353,6.353,0,0,1,.08-1.21h-1.1a6.625,6.625,0,0,1,.08,1.21v3.65c0,1.93,1.11,3,3.11,3a3.239,3.239,0,0,0,2.35-.82,3.005,3.005,0,0,0,.79-2.18V8.48a6.525,6.525,0,0,1,.08-1.19Zm4.98-.15c-2.15,0-3.54,1.57-3.54,4,0,2.45,1.38,4.01,3.53,4.01s3.54-1.57,3.54-4.01S145.61,7.14,143.45,7.14Zm.01,7.17c-1.56,0-2.58-1.26-2.58-3.17s1.01-3.16,2.57-3.16a2.339,2.339,0,0,1,1.69.67,3.442,3.442,0,0,1,.86,2.5C146,13.08,145.01,14.31,143.46,14.31Zm9.17-7.02a6.7,6.7,0,0,1,.08,1.21v3.62a2.185,2.185,0,1,1-4.37,0V8.5a6.353,6.353,0,0,1,.08-1.21h-1.1a6.625,6.625,0,0,1,.08,1.21v3.65c0,1.93,1.11,3,3.11,3a3.239,3.239,0,0,0,2.35-.82,3.005,3.005,0,0,0,.79-2.18V8.48a6.525,6.525,0,0,1,.08-1.19Zm1.46,5.5a2.557,2.557,0,0,0,.51,1.4,2.988,2.988,0,0,0,2.46.94c1.76,0,2.78-.84,2.78-2.29a1.778,1.778,0,0,0-.7-1.52,3.667,3.667,0,0,0-1.61-.64,7.6,7.6,0,0,1-1.43-.36,1.111,1.111,0,0,1-.81-1.07c0-.76.68-1.28,1.67-1.28a1.8,1.8,0,0,1,1.42.55,1.516,1.516,0,0,1,.33.79l1.01-.13a2.4,2.4,0,0,0-.45-1.08,2.721,2.721,0,0,0-2.29-.95c-1.61,0-2.65.84-2.65,2.13a1.753,1.753,0,0,0,.89,1.59,4.352,4.352,0,0,0,1.4.51,5.209,5.209,0,0,1,1.68.48,1.111,1.111,0,0,1,.56,1.03c0,.88-.69,1.41-1.82,1.41a1.977,1.977,0,0,1-1.62-.66,1.61,1.61,0,0,1-.3-.96ZM164.31,15a7.956,7.956,0,0,1,1.24.06v-.98a8.75,8.75,0,0,1-1.24.07h-3.04V8.55a7.166,7.166,0,0,1,.08-1.26h-1.11a7.219,7.219,0,0,1,.08,1.27V13.8a7.033,7.033,0,0,1-.08,1.22c.37-.02.63-.02,1.15-.02Zm3.41,0a6.639,6.639,0,0,1-.08-1.17V11.8l2.3-3.6c.24-.37.49-.73.64-.91H169.3a4.121,4.121,0,0,1-.48.94l-1.66,2.69-1.65-2.69a4.317,4.317,0,0,1-.48-.94h-1.28c.22.3.43.6.63.91l2.31,3.59v2.04a7.964,7.964,0,0,1-.08,1.17Zm1.87-1.13V15h1.13V13.87Z" transform="translate(219 440)"/>
    </g>
  </g>
</svg>
