<svg xmlns="http://www.w3.org/2000/svg" viewBox="0 0 23.771 22.152">
  <defs>
    <style>
      .cls-1 {
        fill: #fff;
      }
    </style>
  </defs>
  <path id="パス_88" data-name="パス 88" class="cls-1" d="M-11.622-1.254A9.617,9.617,0,0,1-11.709.264c.451-.022.748-.033,1.5-.033h2.156A4.1,4.1,0,0,0-5.065-.792,4.746,4.746,0,0,0-3.778-4.323,4.524,4.524,0,0,0-5-7.689,4.191,4.191,0,0,0-8.068-8.712h-2.145c-.792,0-1.067-.011-1.507-.033a8.614,8.614,0,0,1,.1,1.518Zm1.815-.11V-7.117h1.6A2.362,2.362,0,0,1-6.363-6.5a3.033,3.033,0,0,1,.7,2.211A3.241,3.241,0,0,1-6.418-2,2.267,2.267,0,0,1-8.2-1.364Zm6.281-1.067A3.1,3.1,0,0,0-2.887-.7,3.773,3.773,0,0,0,.182.429c2.2,0,3.454-1.023,3.454-2.816a2.514,2.514,0,0,0-.33-1.331,2.478,2.478,0,0,0-1.111-.957A10.725,10.725,0,0,0,.028-5.269a2.971,2.971,0,0,1-1.034-.363.853.853,0,0,1-.374-.715c0-.627.572-1.045,1.43-1.045a1.574,1.574,0,0,1,1.221.462,1.339,1.339,0,0,1,.286.7l1.936-.209a3.1,3.1,0,0,0-.561-1.342A3.443,3.443,0,0,0,.061-8.921c-2.035,0-3.322,1.023-3.322,2.64a2.339,2.339,0,0,0,.946,1.947A4.277,4.277,0,0,0-.6-3.674a5.615,5.615,0,0,1,1.881.6.881.881,0,0,1,.429.792c0,.7-.605,1.144-1.562,1.144a1.779,1.779,0,0,1-1.463-.594,1.448,1.448,0,0,1-.3-.891ZM11.94-6.149A3.409,3.409,0,0,0,11.3-7.513,3.724,3.724,0,0,0,8.167-8.9,4.038,4.038,0,0,0,5.286-7.865,4.869,4.869,0,0,0,3.921-4.257,5.028,5.028,0,0,0,5.165-.715,4.135,4.135,0,0,0,8.2.418a3.8,3.8,0,0,0,3.025-1.2A4.044,4.044,0,0,0,12.05-2.6L10.136-2.9a2.157,2.157,0,0,1-.341.979,1.888,1.888,0,0,1-1.606.748c-1.474,0-2.365-1.166-2.365-3.091A3.466,3.466,0,0,1,6.606-6.7a2.071,2.071,0,0,1,1.551-.616,1.75,1.75,0,0,1,1.54.726,2.379,2.379,0,0,1,.363.836Zm-15.9,19.38c-.352-.737-.473-.99-.7-1.551-.913-2.189-1.111-2.475-1.815-2.7a2.331,2.331,0,0,0,1.144-.594,2.345,2.345,0,0,0,.6-1.716c0-1.507-.99-2.387-2.717-2.387h-2.739c-.671,0-1.056-.011-1.518-.033a10.751,10.751,0,0,1,.088,1.518v5.918a9.745,9.745,0,0,1-.088,1.54h1.98a10.078,10.078,0,0,1-.088-1.551V9.645h1.386a1.247,1.247,0,0,1,.979.4A4.1,4.1,0,0,1-6.7,11.482a8.727,8.727,0,0,1,.55,1.749ZM-9.812,8.094V5.817h2c.792,0,1.2.363,1.2,1.078a1.141,1.141,0,0,1-1.232,1.2ZM.649,5.905h1.32a12.741,12.741,0,0,1,1.661.077V4.211a12.965,12.965,0,0,1-1.661.077H-2.607a12.506,12.506,0,0,1-1.562-.077V5.982A12.464,12.464,0,0,1-2.6,5.905h1.4v5.786a10.482,10.482,0,0,1-.088,1.54H.737a10.578,10.578,0,0,1-.088-1.54Zm5.984-.352a6.011,6.011,0,0,1-.715-1.265H3.872A10.712,10.712,0,0,1,3.96,5.817v5.72a10.868,10.868,0,0,1-.088,1.694H5.83a11.257,11.257,0,0,1-.088-1.683V8.336c0-.22-.022-.682-.033-.869-.033-.385-.033-.385-.044-.517a12.406,12.406,0,0,0,.7,1.232L8.9,11.944a10.5,10.5,0,0,1,.748,1.287h2.068a9.681,9.681,0,0,1-.088-1.529V5.883a10.617,10.617,0,0,1,.088-1.595H9.746a9.035,9.035,0,0,1,.1,1.584V9.2c0,.407.033.99.066,1.375a13.487,13.487,0,0,0-.748-1.254Z" transform="translate(11.721 8.921)"/>
</svg>
