<svg xmlns="http://www.w3.org/2000/svg" viewBox="0 0 24 16">
  <defs>
    <style>
      .cls-1 {
        fill: #1a0101;
      }
    </style>
  </defs>
  <g id="グループ化_80" data-name="グループ化 80" transform="translate(-599 -293)">
    <path id="除外_20" data-name="除外 20" class="cls-1" d="M-6047,16h-24V0h24V16Zm-12-14.858c-6.015,0-10.909,3.076-10.909,6.857s4.894,6.857,10.909,6.857,10.909-3.076,10.909-6.857S-6052.985,1.142-6059,1.142Z" transform="translate(6670.001 293)"/>
    <path id="パス_119" data-name="パス 119" class="cls-1" d="M-8.357-8.7h1.692a10.525,10.525,0,0,1,2.216.15,1.7,1.7,0,0,1,.878.494,1.564,1.564,0,0,1,.376.765,11.566,11.566,0,0,1,.075,1.657v3.045a7.074,7.074,0,0,1-.11,1.566A1.178,1.178,0,0,1-3.615-.4a1.6,1.6,0,0,1-.677.312A6.117,6.117,0,0,1-5.505,0H-8.357ZM-6.1-7.208v5.72q.489,0,.6-.2A2.871,2.871,0,0,0-5.382-2.75V-6.128a4.535,4.535,0,0,0-.038-.757.359.359,0,0,0-.172-.244A1.116,1.116,0,0,0-6.1-7.208ZM2.863-8.7v5.812A10.085,10.085,0,0,1,2.8-1.5a1.885,1.885,0,0,1-.381.822,1.979,1.979,0,0,1-.835.639A3.143,3.143,0,0,1,.36.183,3.437,3.437,0,0,1-1.015-.075a2.069,2.069,0,0,1-.892-.671,1.86,1.86,0,0,1-.349-.873Q-2.31-2.079-2.31-3.55V-8.7H-.048v6.521a2.572,2.572,0,0,0,.062.728.242.242,0,0,0,.25.158A.261.261,0,0,0,.54-1.464,3.25,3.25,0,0,0,.6-2.288V-8.7Zm.875,0H6.016a5.347,5.347,0,0,1,1.421.145,1.588,1.588,0,0,1,.747.419,1.438,1.438,0,0,1,.338.663A5.939,5.939,0,0,1,8.61-6.263v.757a3.155,3.155,0,0,1-.172,1.214,1.177,1.177,0,0,1-.631.585,2.985,2.985,0,0,1-1.2.2H6V0H3.738ZM6-7.208V-5q.1.005.167.005A.523.523,0,0,0,6.6-5.143a1.125,1.125,0,0,0,.121-.636v-.714a.838.838,0,0,0-.14-.58A.876.876,0,0,0,6-7.208Z" transform="translate(611 305.5)"/>
  </g>
</svg>
