<svg xmlns="http://www.w3.org/2000/svg" viewBox="0 0 127.85 126.46"><defs><style>.cls-1,.cls-3{fill:#7c7777;}.cls-1,.cls-2{stroke:#505050;stroke-width:14px;}.cls-2{fill:none;}.cls-4{fill:#505050;}</style></defs><title>Controller</title><g id="レイヤー_2" data-name="レイヤー 2"><g id="レイヤー_1-2" data-name="レイヤー 1"><g id="Controller"><path id="パス_7-2" data-name="パス 7-2" class="cls-1" d="M63.18,63.83l-30.6,54.4,30.6-54.4v-.9L9,95l54.2-32.1v-.4l-63.1.7,63.1-.7v-.4l-55-30.9,55,30.9v-.8L31.38,7.63l31.8,53.7h0l.7,1.2h0l31.3-55.7-31.3,55.7,55-32.6-55,32.6h0l63.9-.7-63.9.7,55.7,31.3-55.7-31.3h0l32.6,55-32.6-55-.7,1.3Zm0,0,.7-1.3h0l-.7.4Zm0-.8.7-.4h-.7Zm0-.5h.7l-.7-.4Zm.7,0-.7-1.2v.8Z"/><line class="cls-2" x1="63.18" y1="126.43" x2="63.68" y2="0.03"/><g id="パス_8" data-name="パス 8"><path class="cls-3" d="M63.63,120.05a56.91,56.91,0,0,1-31.7-9.7,61.64,61.64,0,0,1-8.4-6.9,55,55,0,0,1-6.9-8.4,59.39,59.39,0,0,1-5.2-9.6,56.52,56.52,0,0,1,0-44.2,55.47,55.47,0,0,1,5.2-9.6,61.64,61.64,0,0,1,6.9-8.4,55,55,0,0,1,8.4-6.9,59.39,59.39,0,0,1,9.6-5.2,56.52,56.52,0,0,1,44.2,0,55.47,55.47,0,0,1,9.6,5.2,61.64,61.64,0,0,1,8.4,6.9,55,55,0,0,1,6.9,8.4,59.39,59.39,0,0,1,5.2,9.6,56.52,56.52,0,0,1,0,44.2,55.47,55.47,0,0,1-5.2,9.6,61.64,61.64,0,0,1-6.9,8.4,55,55,0,0,1-8.4,6.9,59.39,59.39,0,0,1-9.6,5.2A55.64,55.64,0,0,1,63.63,120.05Z"/><path class="cls-4" d="M63.63,9.55a53.8,53.8,0,1,0,53.8,53.8,53.88,53.88,0,0,0-53.8-53.8m0-6a59.8,59.8,0,1,1-59.8,59.8A59.83,59.83,0,0,1,63.63,3.55Z"/></g></g></g></g></svg>