<svg xmlns="http://www.w3.org/2000/svg" viewBox="0 0 39.273 11.037">
  <defs>
    <style>
      .cls-1 {
        fill: #fff;
      }
    </style>
  </defs>
  <path id="パス_86" data-name="パス 86" class="cls-1" d="M3.133-4.056H5.8a14.065,14.065,0,0,1,1.859.091V-6.006A14.065,14.065,0,0,1,5.8-5.915H3.133v-2.47H6.448a13.808,13.808,0,0,1,1.859.091v-2.093a14.416,14.416,0,0,1-1.872.091H2.652c-.9,0-1.248-.013-1.768-.039a11.941,11.941,0,0,1,.1,1.781v6.9A11.835,11.835,0,0,1,.871.273H3.237a12.1,12.1,0,0,1-.1-1.95ZM16.328-10.3a11.515,11.515,0,0,1,.1,1.872V-3.9a2.856,2.856,0,0,1-.442,1.729,2.43,2.43,0,0,1-2.028.832A2.438,2.438,0,0,1,12-2.08a2.691,2.691,0,0,1-.52-1.82V-8.424a11.114,11.114,0,0,1,.1-1.872H9.23a11.617,11.617,0,0,1,.1,1.872V-3.9A4.492,4.492,0,0,0,10.387-.728,4.742,4.742,0,0,0,13.936.52c2.951,0,4.641-1.6,4.641-4.407v-4.55a11.747,11.747,0,0,1,.1-1.859ZM23.4-8.8a7.1,7.1,0,0,1-.845-1.495H20.137a12.66,12.66,0,0,1,.1,1.807v6.76a12.844,12.844,0,0,1-.1,2h2.314a13.3,13.3,0,0,1-.1-1.989v-3.8c0-.26-.026-.806-.039-1.027-.039-.455-.039-.455-.052-.611a14.662,14.662,0,0,0,.832,1.456l2.99,4.446A12.41,12.41,0,0,1,26.962.273h2.444a11.441,11.441,0,0,1-.1-1.807V-8.411a12.547,12.547,0,0,1,.1-1.885H27.079A10.678,10.678,0,0,1,27.2-8.424v3.939c0,.481.039,1.17.078,1.625a15.939,15.939,0,0,0-.884-1.482ZM40.014-7.267a4.029,4.029,0,0,0-.754-1.612,4.4,4.4,0,0,0-3.705-1.638A4.773,4.773,0,0,0,32.149-9.3a5.754,5.754,0,0,0-1.612,4.264A5.942,5.942,0,0,0,32.006-.845,4.887,4.887,0,0,0,35.594.494,4.5,4.5,0,0,0,39.169-.923a4.779,4.779,0,0,0,.975-2.145l-2.262-.364a2.55,2.55,0,0,1-.4,1.157,2.231,2.231,0,0,1-1.9.884c-1.742,0-2.8-1.378-2.8-3.653a4.1,4.1,0,0,1,.923-2.873,2.448,2.448,0,0,1,1.833-.728,2.069,2.069,0,0,1,1.82.858,2.811,2.811,0,0,1,.429.988Z" transform="translate(-0.871 10.517)"/>
</svg>
