<?xml version="1.0" encoding="utf-8"?>
<!-- Generator: Adobe Illustrator 22.1.0, SVG Export Plug-In . SVG Version: 6.00 Build 0)  -->
<svg version="1.1" id="レイヤー_1" xmlns="http://www.w3.org/2000/svg" xmlns:xlink="http://www.w3.org/1999/xlink" x="0px"
	 y="0px" viewBox="0 0 68.9 423" style="enable-background:new 0 0 68.9 423;" xml:space="preserve">
<style type="text/css">
	.st0{fill:#636363;}
	.st1{fill:#8B8A8A;}
	.st2{fill:#FFFFFF;}
	.st3{fill:#3C3C3C;}
	.st4{fill:#505050;}
	.st5{fill:none;stroke:#505050;stroke-width:7;stroke-linecap:round;}
</style>
<g id="グループ化_72" transform="translate(-196.994 -483.05)">
	<g transform="matrix(1, 0, 0, 1, 196.99, 483.05)">
		<path id="パス_9-2_1_" class="st0" d="M33,2c15.4,0,28,12.5,28,28s-12.5,28-28,28s-28-12.5-28-28S17.6,2,33,2C33,2,33,2,33,2z"
			/>
	</g>
	<g transform="matrix(1, 0, 0, 1, 196.99, 483.05)">
		<path id="パス_9-2" class="st1" d="M33,0c15.4,0,28,12.5,28,28s-12.5,28-28,28s-28-12.5-28-28S17.6,0,33,0C33,0,33,0,33,0z"/>
	</g>
	<path id="パス_75" class="st2" d="M204.5,570c0.1,0.6,0.1,1.2,0.1,1.8v2.7H199v-2.7c0-0.6,0-1.2,0.1-1.8H197
		c0.1,0.6,0.1,1.2,0.1,1.8v7.5c0,0.6,0,1.2-0.1,1.8h2.1c-0.1-0.6-0.1-1.2-0.1-1.8v-3.2h5.6v3.2c0,0.6,0,1.2-0.1,1.8h2.1
		c-0.1-0.6-0.1-1.2-0.1-1.8v-7.5c0-0.6,0-1.2,0.1-1.8H204.5z M217.9,581.2c-0.3-0.5-0.5-1.1-0.7-1.7l-3.1-8.1
		c-0.2-0.5-0.4-0.9-0.5-1.4h-2.4c-0.1,0.5-0.3,1-0.4,1.4l-3.1,8.1c-0.2,0.6-0.5,1.1-0.7,1.7h2.3c0.1-0.5,0.2-1,0.4-1.5l0.6-1.5h4.5
		l0.6,1.5c0.2,0.5,0.3,1,0.4,1.5H217.9z M214.1,576.6h-3.5l1.5-4.1c0-0.1,0-0.1,0.3-0.8c0.2,0.5,0.2,0.6,0.3,0.8L214.1,576.6z
		 M227.7,581.2c-0.1-0.6-0.1-1.2-0.1-1.8V572c0-0.6,0-1.3,0.1-1.9h-2c0.1,0.6,0.1,1.3,0.1,1.9v4.7c0,0.6,0,1.4,0.1,2
		c-0.3-0.6-0.8-1.3-1.1-1.8l-3.5-5.3c-0.3-0.5-0.6-1-0.9-1.5h-2.2c0.1,0.6,0.1,1.2,0.1,1.8v7.2c0,0.7,0,1.4-0.1,2.1h2
		c-0.1-0.7-0.1-1.4-0.1-2.1v-4.6c0-0.3,0-1,0-1.2c0-0.5,0-0.5-0.1-0.7c0.3,0.7,0.7,1.3,1,1.7l3.6,5.4c0.3,0.5,0.6,1,0.9,1.5
		L227.7,581.2z M229,579.4c0,0.6,0,1.2-0.1,1.8c0.6,0,0.9,0,1.8,0h2.5c1.3,0.1,2.7-0.3,3.7-1.2c1.2-1.2,1.7-2.8,1.7-4.5
		c0.1-1.6-0.5-3.1-1.6-4.2c-1-0.9-2.4-1.4-3.8-1.2h-2.5c-0.9,0-1.2,0-1.8,0c0.1,0.6,0.1,1.2,0.1,1.8L229,579.4z M230.8,579.5v-7.8
		h2.2c0.9-0.1,1.8,0.2,2.5,0.8c0.7,0.8,1,1.9,1,3c0.1,1.1-0.3,2.2-1,3.1c-0.6,0.7-1.6,1-2.5,0.9L230.8,579.5z M238.9,577.9
		c0,0.4,0.1,0.8,0.3,1.2c0.2,0.6,0.7,1.2,1.2,1.6c0.9,0.5,1.9,0.8,2.9,0.7c1.2,0.1,2.4-0.3,3.3-1.1c0.6-0.6,0.9-1.5,0.9-2.4
		c0.1-0.9-0.4-1.9-1.2-2.4c-0.7-0.4-1.5-0.7-2.3-0.9c-0.7-0.1-1.3-0.3-2-0.5c-0.6-0.2-1-0.7-1-1.3c0-0.9,0.8-1.5,2-1.5
		c0.7,0,1.3,0.2,1.8,0.7c0.2,0.3,0.4,0.6,0.4,1l2-0.2c-0.1-0.6-0.3-1.1-0.7-1.6c-0.9-1-2.2-1.5-3.5-1.4c-2.4,0-4,1.3-4,3.2
		c0,0.9,0.4,1.7,1.1,2.3c0.6,0.4,1.4,0.7,2.1,0.8c0.8,0.1,1.7,0.3,2.4,0.7c0.5,0.3,0.7,0.8,0.7,1.3c0,1.1-0.8,1.7-2.2,1.7
		c-0.8,0.1-1.5-0.2-2-0.8c-0.3-0.4-0.4-0.8-0.4-1.2L238.9,577.9z M256.4,579.4c-0.6,0.1-1.2,0.1-1.8,0.1h-4.2v-3.3h3.4
		c0.6,0,1.2,0,1.8,0.1v-1.8c-0.6,0.1-1.2,0.1-1.8,0.1h-3.4v-2.9h4c0.6,0,1.2,0,1.8,0.1v-1.8c-0.6,0.1-1.2,0.1-1.8,0.1h-4.2
		c-0.9,0-1.2,0-1.8,0c0.1,0.6,0.1,1.2,0.1,1.8v7.6c0,0.6,0,1.2-0.1,1.8c0.6,0,0.9,0,1.8,0h4.4c0.6,0,1.2,0,1.8,0.1L256.4,579.4z
		 M262.1,571.7h1.8c0.7,0,1.4,0,2.1,0.1v-1.9c-0.7,0.1-1.4,0.1-2.1,0.1h-5.5c-0.6,0-1.3,0-1.9-0.1v1.9c0.6-0.1,1.3-0.1,1.9-0.1h1.9
		v7.6c0,0.6,0,1.2-0.1,1.8h2.1c-0.1-0.6-0.1-1.2-0.1-1.8V571.7z"/>
	<g id="handset_jack" transform="translate(207.141 485)">
		<g id="レイヤー_1_1_">
			<path id="パス_24" class="st3" d="M44.9,38.9V13L22.4,0L0,13v25.9l22.4,13L44.9,38.9z"/>
		</g>
	</g>
	<g id="handset_jack-2" transform="translate(224.391 483.947) rotate(30)">
		<g id="レイヤー_1-2">
			<path id="パス_24-2" class="st4" d="M36,31.1l0-20.8L18,0L0,10.4l0,20.8l18,10.4L36,31.1z"/>
		</g>
	</g>
	<circle id="楕円形_14" class="st3" cx="230" cy="511" r="13"/>
	<line id="線_42" class="st5" x1="230.5" y1="512.5" x2="229.5" y2="902.5"/>
</g>
</svg>
