<svg xmlns="http://www.w3.org/2000/svg" viewBox="0 0 128.603 528.9">
  <defs>
    <style>
      .cls-1 {
        fill: #646469;
      }

      .cls-2 {
        opacity: 0.6;
      }

      .cls-3 {
        fill: #58585c;
      }

      .cls-4, .cls-5, .cls-6 {
        fill: none;
      }

      .cls-4 {
        stroke: #49494d;
        stroke-width: 2px;
      }

      .cls-4, .cls-5 {
        stroke-miterlimit: 10;
      }

      .cls-5 {
        stroke: #4d4d4f;
      }

      .cls-7 {
        fill: #4d4d4f;
      }
    </style>
  </defs>
  <g id="Handset" transform="translate(0.001)">
    <g id="レイヤー_1" data-name="レイヤー 1">
      <g id="Handset-2" data-name="Handset">
        <path id="パス_13" data-name="パス 13" class="cls-1" d="M112.9,15.2H101.3a2.93,2.93,0,0,1-3-2.9V6.6A6.57,6.57,0,0,0,91.8,0h-55a6.57,6.57,0,0,0-6.5,6.6v5.7a3,3,0,0,1-3,2.9H15.7A15.88,15.88,0,0,0,0,31.3V493.1a15.94,15.94,0,0,0,15.7,16.1H29.8a2.93,2.93,0,0,1,3,2.9v10.2a6.57,6.57,0,0,0,6.5,6.6H53.2c.7-8,23.1-7.8,23.5,0H94.2a6.57,6.57,0,0,0,6.5-6.6V512.1a3,3,0,0,1,3-2.9h9.2a15.88,15.88,0,0,0,15.7-16.1V31.3a15.88,15.88,0,0,0-15.7-16.1Z"/>
        <g id="グループ化_22" data-name="グループ化 22" class="cls-2">
          <path id="パス_14" data-name="パス 14" class="cls-1" d="M112.9,15.2H101.3a2.93,2.93,0,0,1-3-2.9V6.6A6.57,6.57,0,0,0,91.8,0h-55a6.57,6.57,0,0,0-6.5,6.6v5.7a3,3,0,0,1-3,2.9H15.7A15.88,15.88,0,0,0,0,31.3V493.1a15.94,15.94,0,0,0,15.7,16.1H29.8a2.93,2.93,0,0,1,3,2.9v10.2a6.57,6.57,0,0,0,6.5,6.6H53.2c.7-8,23.1-7.8,23.5,0H94.2a6.57,6.57,0,0,0,6.5-6.6V512.1a3,3,0,0,1,3-2.9h9.2a15.88,15.88,0,0,0,15.7-16.1V31.3a15.88,15.88,0,0,0-15.7-16.1Z"/>
        </g>
        <path id="パス_15" data-name="パス 15" class="cls-3" d="M119.1,39.1v78.3l-9.9,58.2h-3.5l-2.8-17.1v-86c0-10.1-7.8-18.2-17.4-18.2H43c-9.6,0-17.4,8.2-17.4,18.2v86l-2.9,17.1H19.1L9.4,117.4V39.1c0-8.6,6-15.5,13.4-15.5h9.5a2.9,2.9,0,0,0,2.9-2.9V15.3c0-3.5,2.5-6.4,5.5-6.4H87.5c3,0,5.5,2.9,5.5,6.4v5.4a2.9,2.9,0,0,0,2.9,2.9h9.5C113.1,23.6,119.1,30.6,119.1,39.1Z"/>
        <path id="パス_16" data-name="パス 16" class="cls-3" d="M109.1,349.7l10,53v82.5c0,8.6-6,15.5-13.4,15.5H98.2a2.9,2.9,0,0,0-2.9,2.9v9.7c0,3.5-2.5,6.4-5.5,6.4H77.7c-1.5-8.6-24-8.5-25.5,0H43c-3,0-5.5-2.9-5.5-6.4v-9.7a2.9,2.9,0,0,0-2.9-2.9H22.9c-7.4,0-13.4-7-13.4-15.5V402.8l8.8-53h4.5l2.9,17.4v85.7c0,10.1,7.8,18.2,17.4,18.2H85.6c9.6,0,17.4-8.2,17.4-18.2V367.2l2.8-17.4h3.3Z"/>
        <path id="パス_17" data-name="パス 17" class="cls-1" d="M51.6,22.9H77A3.12,3.12,0,0,1,80.1,26V39.4A3.12,3.12,0,0,1,77,42.5H51.6a3.12,3.12,0,0,1-3.1-3.1V26a3.05,3.05,0,0,1,3.1-3.1Z"/>
        <path id="パス_18" data-name="パス 18" class="cls-3" d="M47,152.7H81.6a3.12,3.12,0,0,1,3.1,3.1V172a3.12,3.12,0,0,1-3.1,3.1H47a3.12,3.12,0,0,1-3.1-3.1V155.8a3.12,3.12,0,0,1,3.1-3.1Z"/>
        <path id="パス_19" data-name="パス 19" class="cls-1" d="M52.2,482.9H77.6a3.12,3.12,0,0,1,3.1,3.1v13.4a3.12,3.12,0,0,1-3.1,3.1H52.2a3.12,3.12,0,0,1-3.1-3.1V486a3.12,3.12,0,0,1,3.1-3.1Z"/>
        <circle id="楕円形_12" data-name="楕円形 12" class="cls-4" cx="28.6" cy="28.6" r="28.6" transform="translate(35.7 74.5)"/>
        <circle id="楕円形_13" data-name="楕円形 13" class="cls-4" cx="28.6" cy="28.6" r="28.6" transform="matrix(0.045, -0.999, 0.999, 0.045, 34.434, 449.49)"/>
        <g id="長方形_15" data-name="長方形 15">
          <path id="パス_20" data-name="パス 20" class="cls-5" d="M38.3,249.3h52a6,6,0,0,1,6,6v18a6,6,0,0,1-6,6h-52a6,6,0,0,1-6-6v-18a6,6,0,0,1,6-6Z"/>
          <path id="パス_21" data-name="パス 21" class="cls-5" d="M38.3,250.3h52a5,5,0,0,1,5,5v18a5,5,0,0,1-5,5h-52a5,5,0,0,1-5-5v-18a5,5,0,0,1,5-5Z"/>
        </g>
        <rect id="長方形_16" data-name="長方形 16" class="cls-6" width="43.3" height="25.7" transform="translate(42.8 255.5)"/>
        <path id="パス_70" data-name="パス 70" class="cls-7" d="M7.29-14.418A19.331,19.331,0,0,1,7.434-11.5v7.488c0,1.242-.558,1.836-1.764,1.836-1.152,0-1.692-.5-2.07-1.908L.09-2.88A5.688,5.688,0,0,0,1.278-.774,5.677,5.677,0,0,0,5.724.9,5.7,5.7,0,0,0,9.864-.558a4.628,4.628,0,0,0,1.242-3.456V-11.52a16.447,16.447,0,0,1,.144-2.9ZM26.784.558c-.45-.954-.666-1.4-.864-1.908-.81-1.944-1.062-2.556-1.332-3.132-.576-1.278-.99-1.692-1.908-1.98a3.978,3.978,0,0,0,1.71-.9,3.921,3.921,0,0,0,1.062-2.952c0-2.592-1.692-4.1-4.608-4.1h-4.68c-1.224,0-1.89-.018-2.682-.054a19.189,19.189,0,0,1,.144,2.646v9.684a17.775,17.775,0,0,1-.144,2.7h3.87a18.976,18.976,0,0,1-.144-2.718V-5.112h1.836a1.967,1.967,0,0,1,1.4.486c.45.4.666.81,1.242,2.376A17.514,17.514,0,0,1,22.572.558ZM17.208-8.19v-3.2h2.826c1.116,0,1.692.522,1.692,1.53a1.57,1.57,0,0,1-1.71,1.674ZM41.6-9.918a5.56,5.56,0,0,0-1.116-2.466,6.267,6.267,0,0,0-5.31-2.358,7.3,7.3,0,0,0-5.166,1.872,8.123,8.123,0,0,0-2.178,5.922A8.3,8.3,0,0,0,29.916-1.08,7.287,7.287,0,0,0,35.244.9a6.452,6.452,0,0,0,5.04-1.962,6.836,6.836,0,0,0,1.494-3.294l-3.744-.558a3.07,3.07,0,0,1-.54,1.548,2.837,2.837,0,0,1-2.358,1.134c-2.232,0-3.564-1.782-3.564-4.716,0-2.97,1.278-4.7,3.474-4.7A2.693,2.693,0,0,1,37.89-9.2Z" transform="translate(42.77 271.34)"/>
      </g>
    </g>
  </g>
</svg>
