<svg xmlns="http://www.w3.org/2000/svg" xmlns:xlink="http://www.w3.org/1999/xlink" viewBox="0 0 68.936 422.959">
  <defs>
    <style>
      .cls-1 {
        fill: #8b8a8a;
      }

      .cls-2 {
        fill: #fff;
      }

      .cls-3 {
        fill: #3c3c3c;
      }

      .cls-4 {
        fill: #505050;
      }

      .cls-5 {
        fill: none;
        stroke: #505050;
        stroke-linecap: round;
        stroke-width: 7px;
      }

      .cls-6 {
        filter: url(#パス_9);
      }
    </style>
    <filter id="パス_9" x="5.056" y="0" width="55.9" height="57.901" filterUnits="userSpaceOnUse">
      <feOffset dy="2" input="SourceAlpha"/>
      <feGaussianBlur result="blur"/>
      <feFlood flood-opacity="0.502"/>
      <feComposite operator="in" in2="blur"/>
      <feComposite in="SourceGraphic"/>
    </filter>
  </defs>
  <g id="グループ化_72" data-name="グループ化 72" transform="translate(-196.994 -483.05)">
    <g class="cls-6" transform="matrix(1, 0, 0, 1, 196.99, 483.05)">
      <path id="パス_9-2" data-name="パス 9" class="cls-1" d="M27.95,0A27.95,27.95,0,1,1,0,27.95,27.95,27.95,0,0,1,27.95,0Z" transform="translate(5.06)"/>
    </g>
    <path id="パス_75" data-name="パス 75" class="cls-2" d="M8.484-10.976A10.563,10.563,0,0,1,8.6-9.17v2.688H2.968v-2.7a11.474,11.474,0,0,1,.112-1.792H.994A10.668,10.668,0,0,1,1.106-9.17v7.532A10.563,10.563,0,0,1,.994.168H3.08a10.988,10.988,0,0,1-.112-1.806V-4.8H8.6v3.164A10.668,10.668,0,0,1,8.484.168H10.57a11.1,11.1,0,0,1-.112-1.806V-9.184a10.914,10.914,0,0,1,.112-1.792ZM21.882.168a14.693,14.693,0,0,1-.714-1.652L18.06-9.562a9.27,9.27,0,0,1-.476-1.414H15.148A8.292,8.292,0,0,1,14.7-9.562L11.62-1.484A15.3,15.3,0,0,1,10.878.168h2.3a6.982,6.982,0,0,1,.42-1.47l.56-1.526h4.48l.56,1.526a9.414,9.414,0,0,1,.392,1.47ZM18.13-4.438H14.658l1.456-4.144c.042-.126.042-.126.266-.784.154.462.2.63.252.784ZM31.7.168a10.563,10.563,0,0,1-.112-1.806V-9.044a12.24,12.24,0,0,1,.112-1.932H29.652a12.24,12.24,0,0,1,.112,1.932v4.7c0,.588.042,1.428.1,1.974-.308-.56-.756-1.288-1.092-1.792L25.228-9.492a7.678,7.678,0,0,1-.854-1.484H22.19A11.662,11.662,0,0,1,22.3-9.17v7.224A15.147,15.147,0,0,1,22.19.168h2.044a15.5,15.5,0,0,1-.112-2.1V-6.524c0-.322-.028-.952-.042-1.218-.042-.518-.042-.518-.056-.714.336.658.686,1.26.952,1.68L28.588-1.33a13.948,13.948,0,0,1,.9,1.5Zm1.26-1.806A11.325,11.325,0,0,1,32.844.21c.574-.028.924-.042,1.778-.042H37.17A4.969,4.969,0,0,0,40.838-1.05,5.894,5.894,0,0,0,42.49-5.5a5.635,5.635,0,0,0-1.554-4.242,4.992,4.992,0,0,0-3.78-1.232H34.622c-.882,0-1.218-.014-1.778-.042a11.736,11.736,0,0,1,.112,1.82Zm1.862.154v-7.84h2.24a3.142,3.142,0,0,1,2.52.84,4.167,4.167,0,0,1,.966,3A4.445,4.445,0,0,1,39.522-2.38a3.082,3.082,0,0,1-2.478.9Zm8.106-1.61a4.786,4.786,0,0,0,.266,1.162,3.3,3.3,0,0,0,1.232,1.6,5.629,5.629,0,0,0,2.94.728A4.64,4.64,0,0,0,50.708-.672a3.257,3.257,0,0,0,.882-2.38A2.763,2.763,0,0,0,50.428-5.46a6.164,6.164,0,0,0-2.282-.854,11.919,11.919,0,0,1-1.974-.5,1.331,1.331,0,0,1-.952-1.274c0-.91.826-1.526,2.044-1.526a2.215,2.215,0,0,1,1.75.672,1.808,1.808,0,0,1,.42.994l2-.238a3.774,3.774,0,0,0-.686-1.624,4.127,4.127,0,0,0-3.486-1.414c-2.408,0-3.976,1.26-3.976,3.206a2.755,2.755,0,0,0,1.078,2.268A4.949,4.949,0,0,0,46.48-4.9a8.827,8.827,0,0,1,2.436.686,1.421,1.421,0,0,1,.7,1.288c0,1.05-.84,1.68-2.24,1.68a2.485,2.485,0,0,1-2.044-.826A2.007,2.007,0,0,1,44.94-3.3ZM60.41-1.6a13.389,13.389,0,0,1-1.792.1h-4.2V-4.8h3.416a10.97,10.97,0,0,1,1.82.1V-6.538a14.571,14.571,0,0,1-1.82.1h-3.4V-9.324h4.032a12.538,12.538,0,0,1,1.806.1v-1.848a14.958,14.958,0,0,1-1.806.1H54.236c-.854,0-1.218-.014-1.778-.042a12.386,12.386,0,0,1,.112,1.806v7.574A11.325,11.325,0,0,1,52.458.21c.56-.028.938-.042,1.778-.042H58.6a12.036,12.036,0,0,1,1.806.1Zm5.712-7.7h1.75a14.721,14.721,0,0,1,2.058.1v-1.876a14.854,14.854,0,0,1-2.058.1H62.328a14.082,14.082,0,0,1-1.9-.1V-9.2a13.9,13.9,0,0,1,1.918-.1h1.89v7.644A11.736,11.736,0,0,1,64.12.168h2.114a11.621,11.621,0,0,1-.112-1.82Z" transform="translate(196 581)"/>
    <g id="handset_jack" transform="translate(207.141 485)">
      <g id="レイヤー_1" data-name="レイヤー 1">
        <path id="パス_24" data-name="パス 24" class="cls-3" d="M44.879,38.865V12.955L22.439,0,0,12.955v25.91L22.439,51.82Z"/>
      </g>
    </g>
    <g id="handset_jack-2" data-name="handset_jack" transform="translate(224.391 483.947) rotate(30)">
      <g id="レイヤー_1-2" data-name="レイヤー 1">
        <path id="パス_24-2" data-name="パス 24" class="cls-4" d="M35.952,31.134V10.378L17.976,0,0,10.378V31.134L17.976,41.512Z"/>
      </g>
    </g>
    <circle id="楕円形_14" data-name="楕円形 14" class="cls-3" cx="13.015" cy="13.015" r="13.015" transform="translate(216.985 497.985)"/>
    <line id="線_42" data-name="線 42" class="cls-5" x1="1" y2="390" transform="translate(229.5 512.5)"/>
  </g>
</svg>
