<svg xmlns="http://www.w3.org/2000/svg" viewBox="0 0 64 30">
  <defs>
    <style>
      .cls-1, .cls-4 {
        fill: none;
      }

      .cls-1 {
        stroke: #1a0101;
        stroke-width: 2px;
      }

      .cls-2 {
        fill: #1a0101;
      }

      .cls-3 {
        stroke: none;
      }
    </style>
  </defs>
  <g id="グループ化_83" data-name="グループ化 83" transform="translate(-241 -127)">
    <g id="長方形_15" data-name="長方形 15" class="cls-1" transform="translate(241 127)">
      <rect class="cls-3" width="64" height="30" rx="6"/>
      <rect class="cls-4" x="1" y="1" width="62" height="28" rx="5"/>
    </g>
    <path id="パス_71" data-name="パス 71" class="cls-2" d="M-14.22-14.418a19.331,19.331,0,0,1,.144,2.916v7.488c0,1.242-.558,1.836-1.764,1.836-1.152,0-1.692-.5-2.07-1.908L-21.42-2.88A5.688,5.688,0,0,0-20.232-.774,5.677,5.677,0,0,0-15.786.9a5.7,5.7,0,0,0,4.14-1.458A4.628,4.628,0,0,0-10.4-4.014V-11.52a16.447,16.447,0,0,1,.144-2.9ZM5.6.558c-.45-.954-.666-1.4-.864-1.908C3.924-3.294,3.672-3.906,3.4-4.482c-.576-1.278-.99-1.692-1.908-1.98a3.978,3.978,0,0,0,1.71-.9,3.921,3.921,0,0,0,1.062-2.952c0-2.592-1.692-4.1-4.608-4.1h-4.68c-1.224,0-1.89-.018-2.682-.054a19.189,19.189,0,0,1,.144,2.646v9.684A17.775,17.775,0,0,1-7.7.558h3.87A18.976,18.976,0,0,1-3.978-2.16V-5.112h1.836a1.967,1.967,0,0,1,1.4.486c.45.4.666.81,1.242,2.376A17.514,17.514,0,0,1,1.386.558ZM-3.978-8.19v-3.2h2.826c1.116,0,1.692.522,1.692,1.53A1.57,1.57,0,0,1-1.17-8.19ZM20.736-9.918a5.56,5.56,0,0,0-1.116-2.466,6.267,6.267,0,0,0-5.31-2.358A7.3,7.3,0,0,0,9.144-12.87,8.123,8.123,0,0,0,6.966-6.948,8.3,8.3,0,0,0,9.054-1.08,7.287,7.287,0,0,0,14.382.9a6.452,6.452,0,0,0,5.04-1.962,6.836,6.836,0,0,0,1.494-3.294l-3.744-.558a3.07,3.07,0,0,1-.54,1.548,2.837,2.837,0,0,1-2.358,1.134c-2.232,0-3.564-1.782-3.564-4.716,0-2.97,1.278-4.7,3.474-4.7A2.693,2.693,0,0,1,17.028-9.2Z" transform="translate(273 149)"/>
  </g>
</svg>
