<svg xmlns="http://www.w3.org/2000/svg" viewBox="0 0 37.956 10.068">
  <defs>
    <style>
      .cls-1 {
        fill: #fff;
      }
    </style>
  </defs>
  <path id="パス_84" data-name="パス 84" class="cls-1" d="M6.912.252a10.006,10.006,0,0,1,.516-1.68L8.94-5.208c.072-.18.276-.828.336-1.032.132-.528.132-.528.192-.756-.072,1.14-.1,1.62-.1,1.908V-1.56a12.335,12.335,0,0,1-.1,1.812h2a11.145,11.145,0,0,1-.1-1.812V-7.68a13.161,13.161,0,0,1,.1-1.824H8.616a7.258,7.258,0,0,1-.444,1.548L6.048-2.364,3.912-7.956A8.039,8.039,0,0,1,3.468-9.5H.8A12.942,12.942,0,0,1,.9-7.68v6.12A12.231,12.231,0,0,1,.8.252h2a11.825,11.825,0,0,1-.1-1.812V-5.052c0-.3-.024-.78-.1-1.944.252.9.42,1.452.564,1.824L4.644-1.44A8.037,8.037,0,0,1,5.16.252ZM19.548-1.572a12.826,12.826,0,0,1-1.656.084H14.46V-3.924h2.748a12.621,12.621,0,0,1,1.68.084V-5.712a14.42,14.42,0,0,1-1.68.084H14.472V-7.776h3.276a12.661,12.661,0,0,1,1.668.084v-1.9a15.069,15.069,0,0,1-1.668.084h-3.72c-.828,0-1.14-.012-1.632-.036a11.444,11.444,0,0,1,.1,1.644V-1.38A10.369,10.369,0,0,1,12.4.288c.492-.024.828-.036,1.644-.036h3.84a11.848,11.848,0,0,1,1.668.084ZM23.4-8.124a6.557,6.557,0,0,1-.78-1.38H20.388a11.686,11.686,0,0,1,.1,1.668V-1.6a11.856,11.856,0,0,1-.1,1.848h2.136a12.28,12.28,0,0,1-.1-1.836v-3.5c0-.24-.024-.744-.036-.948-.036-.42-.036-.42-.048-.564a13.534,13.534,0,0,0,.768,1.344l2.76,4.1a11.455,11.455,0,0,1,.816,1.4h2.256a10.561,10.561,0,0,1-.1-1.668V-7.764a11.582,11.582,0,0,1,.1-1.74H26.8A9.856,9.856,0,0,1,26.9-7.776V-4.14c0,.444.036,1.08.072,1.5a14.713,14.713,0,0,0-.816-1.368ZM36.588-9.5a10.629,10.629,0,0,1,.1,1.728V-3.6A2.636,2.636,0,0,1,36.276-2a2.243,2.243,0,0,1-1.872.768,2.25,2.25,0,0,1-1.812-.684,2.484,2.484,0,0,1-.48-1.68V-7.776a10.259,10.259,0,0,1,.1-1.728H30.036a10.724,10.724,0,0,1,.1,1.728V-3.6A4.147,4.147,0,0,0,31.1-.672,4.377,4.377,0,0,0,34.38.48C37.1.48,38.664-1,38.664-3.588v-4.2a10.843,10.843,0,0,1,.1-1.716Z" transform="translate(-0.804 9.588)"/>
</svg>
