<svg xmlns="http://www.w3.org/2000/svg" viewBox="0 0 109.938 775.284">
  <defs>
    <style>
      .cls-1 {
        fill: #505050;
      }

      .cls-2 {
        fill: #9c9c9c;
      }

      .cls-3 {
        fill: #595959;
      }

      .cls-4, .cls-7 {
        fill: #707075;
      }

      .cls-5 {
        opacity: 0.2;
      }

      .cls-6 {
        opacity: 0.4;
      }

      .cls-8 {
        fill: #646469;
      }

      .cls-9 {
        opacity: 0.5;
      }

      .cls-10, .cls-11 {
        fill: none;
      }

      .cls-10 {
        stroke: #4b4b4d;
        stroke-miterlimit: 10;
      }

      .cls-12 {
        fill: #4b4b4d;
      }

      .cls-13, .cls-14 {
        stroke: none;
      }

      .cls-14 {
        fill: rgba(255,255,255,0.5);
      }
    </style>
  </defs>
  <g id="Off-hook" transform="translate(0.004 0.044)">
    <g id="レイヤー_1" data-name="レイヤー 1">
      <g id="Off-hook-2" data-name="Off-hook">
        <rect id="長方形_28" data-name="長方形 28" class="cls-1" width="7" height="247.2" transform="translate(51.96 528.04)"/>
        <path id="パス_25" data-name="パス 25" class="cls-2" d="M64.36,490.94l-.7,10.7-.1,1-.3,4.4-.1,1-.29,4.3v.1l-.09.9v.1l-.29,4.3v.1l-.09.9v.1l-.29,4.3v.1l-.09.9v.1l-.3,5.2a1.45,1.45,0,0,1-1.5,1.4h-9.8a1.52,1.52,0,0,1-1.5-1.4l-.3-5.2v-.1l-.09-.9v-.1l-.29-4.3v-.1l-.09-.9v-.1l-.29-4.3v-.1l-.09-.9v-.1l-.29-4.3-.1-1-.3-4.4-.1-1-.7-10.7a1.42,1.42,0,0,1,1.5-1.5h15a1.4,1.4,0,0,1,1.58,1.5Z"/>
        <path id="パス_26" data-name="パス 26" class="cls-3" d="M63.66,501.64l-.1,1H46.96l-.1-1Z"/>
        <path id="パス_27" data-name="パス 27" class="cls-3" d="M63.26,507.04l-.1,1H47.36l-.1-1Z"/>
        <path id="パス_28" data-name="パス 28" class="cls-3" d="M62.87,512.34l-.01.1-.09.9H47.75l-.09-.9-.01-.1Z"/>
        <path id="パス_29" data-name="パス 29" class="cls-3" d="M62.47,517.74l-.01.1-.09.9H48.15l-.09-.9-.01-.1Z"/>
        <path id="パス_30" data-name="パス 30" class="cls-3" d="M62.07,523.14l-.01.1-.09.9H48.55l-.09-.9-.01-.1Z"/>
        <path id="パス_31" data-name="パス 31" class="cls-4" d="M109.46,466.14c-.1,9.4-5,12-13.1,13.2-6.9,1-16.9-.4-24.3.2a2.23,2.23,0,0,0-1.3.5,2.62,2.62,0,0,0-.6,1.3c-.1,1,.1,2.2,0,3-.6,4-2.5,6.6-6.9,6.8-5,.2-11.6.2-16.6,0a2.2,2.2,0,0,1-.8-.1h0a7.75,7.75,0,0,1-2.3-.6h0c-2.3-1-3.3-3.2-3.8-6.1-.1-.8.1-2,0-3a1.69,1.69,0,0,0-.3-1h0a1.7,1.7,0,0,0-1.6-.8c-7.3-.7-17.5,1-24.3-.2-7.9-1.4-13.3-3.4-13.2-13.1.5-37.5-1.4-73.2.5-112.3s5.5-81.1,5-122c-.4-35.8-1.3-70-4.3-108.2-.3-4.3-1.1-1.1-1.2-19.1s-.5-66.2.2-91C.76,6.14,4.76,0,13.76,0c26-.1,56.5,0,82.6,0,9,0,13,6.2,13.2,13.6.7,24.6.2,73.4.2,90.9s-.9,14.6-1.2,18.5c-6.3,79-6,153.9,1.3,231.6C109.46,391.24,110,429.74,109.46,466.14Z"/>
        <g id="グループ化_39" data-name="グループ化 39" class="cls-5">
          <path id="パス_32" data-name="パス 32" class="cls-4" d="M109.46,466.14c-.1,9.4-5,12-13.1,13.2-6.9,1-16.9-.4-24.3.2a2.23,2.23,0,0,0-1.3.5,2.62,2.62,0,0,0-.6,1.3c-.1,1,.1,2.2,0,3-.6,4-2.5,6.6-6.9,6.8-5,.2-11.6.2-16.6,0a2.2,2.2,0,0,1-.8-.1h0a7.75,7.75,0,0,1-2.3-.6h0c-2.3-1-3.3-3.2-3.8-6.1-.1-.8.1-2,0-3a1.69,1.69,0,0,0-.3-1h0a1.7,1.7,0,0,0-1.6-.8c-7.3-.7-17.5,1-24.3-.2-7.9-1.4-13.3-3.4-13.2-13.1.5-37.5-1.4-73.2.5-112.3s5.5-81.1,5-122c-.4-35.8-1.3-70-4.3-108.2-.3-4.3-1.1-1.1-1.2-19.1s-.5-66.2.2-91C.76,6.14,4.76,0,13.76,0c26-.1,56.5,0,82.6,0,9,0,13,6.2,13.2,13.6.7,24.6.2,73.4.2,90.9s-.9,14.6-1.2,18.5c-6.3,79-6,153.9,1.3,231.6C109.46,391.24,110,429.74,109.46,466.14Z"/>
        </g>
        <g id="グループ化_41" data-name="グループ化 41" class="cls-6">
          <g id="パス_33" data-name="パス 33" class="cls-7">
            <path class="cls-13" d="M109.46,466.14c-.1,9.4-5,12-13.1,13.2-6.9,1-16.9-.4-24.3.2a2.23,2.23,0,0,0-1.3.5,2.62,2.62,0,0,0-.6,1.3c-.1,1,.1,2.2,0,3-.6,4-2.5,6.6-6.9,6.8-5,.2-11.6.2-16.6,0a2.2,2.2,0,0,1-.8-.1h0a7.75,7.75,0,0,1-2.3-.6h0c-2.3-1-3.3-3.2-3.8-6.1-.1-.8.1-2,0-3a1.69,1.69,0,0,0-.3-1h0a1.7,1.7,0,0,0-1.6-.8c-7.3-.7-17.5,1-24.3-.2-7.9-1.4-13.3-3.4-13.2-13.1.5-37.5-1.4-73.2.5-112.3s5.5-81.1,5-122c-.4-35.8-1.3-70-4.3-108.2-.3-4.3-1.1-1.1-1.2-19.1s-.5-66.2.2-91C.76,6.14,4.76,0,13.76,0c26-.1,56.5,0,82.6,0,9,0,13,6.2,13.2,13.6.7,24.6.2,73.4.2,90.9s-.9,14.6-1.2,18.5c-6.3,79-6,153.9,1.3,231.6C109.46,391.24,110,429.74,109.46,466.14Z"/>
            <path class="cls-14" d="M 54.95999526977539 489.2900085449219 C 57.90635299682617 489.2900085449219 60.744873046875 489.2388305664062 63.16975402832031 489.1420593261719 C 64.74908447265625 489.0701599121094 65.89565277099609 488.6305847167969 66.67493438720703 487.7981262207031 C 67.42692565917969 486.994873046875 67.91858673095703 485.7761840820312 68.17761993408203 484.0730895996094 C 68.20208740234375 483.8453674316406 68.18161010742188 483.4163208007812 68.16349792480469 483.0364990234375 C 68.13581085205078 482.4551391601562 68.10443115234375 481.7962036132812 68.16993713378906 481.1410217285156 L 68.17549896240234 481.0852661132812 L 68.18418121337891 481.0298767089844 C 68.31730651855469 480.1817626953125 68.68318176269531 479.3890686035156 69.24224853515625 478.7376403808594 L 69.35762023925781 478.6032104492188 L 69.49481201171875 478.4911499023438 C 70.19052886962891 477.9228515625 71.03064727783203 477.5959167480469 71.92655944824219 477.5443725585938 C 73.2652587890625 477.436767578125 74.764404296875 477.3844604492188 76.50868225097656 477.3844604492188 C 78.71212005615234 477.3844604492188 81.04312133789062 477.4683837890625 83.29737091064453 477.5494995117188 C 85.51824951171875 477.6294555664062 87.81468200683594 477.7121276855469 89.94987487792969 477.7121276855469 C 92.43511962890625 477.7121276855469 94.43608093261719 477.5975036621094 96.06687164306641 477.361572265625 C 100.2680587768555 476.7391967773438 102.8968734741211 475.7986450195312 104.5906219482422 474.3119506835938 C 106.5067443847656 472.6300048828125 107.4185562133789 470.0265808105469 107.4601211547852 466.1187744140625 L 107.4601821899414 466.114501953125 L 107.4602432250977 466.1103210449219 C 107.7486877441406 446.6644592285156 107.7283706665039 426.2771911621094 107.7086868286133 406.5611877441406 C 107.6915969848633 389.4285278320312 107.673957824707 371.7123413085938 107.8589782714844 354.6830139160156 C 106.0450973510742 335.3601684570312 104.6438140869141 315.9010314941406 103.6937484741211 296.8417663574219 C 102.742561340332 277.7613220214844 102.2097473144531 258.4007568359375 102.1100006103516 239.2979431152344 C 102.0107498168945 220.2812652587891 102.3371810913086 200.8393249511719 103.0802459716797 181.5122528076172 C 103.8169326782227 162.3493194580078 104.9898681640625 142.6094512939453 106.5662078857422 122.8422698974609 C 106.6615524291992 121.6060104370117 106.8185501098633 120.9324417114258 106.9703750610352 120.2810134887695 C 107.3036193847656 118.85107421875 107.7599945068359 116.8927612304688 107.7599945068359 104.5000076293945 C 107.7599945068359 100.2354507446289 107.7898101806641 94.07788848876953 107.8243713378906 86.94807434082031 C 107.929931640625 65.16082000732422 108.0895004272461 32.23569869995117 107.5607452392578 13.65407276153564 C 107.4679946899414 10.22263526916504 106.4961242675781 7.346510410308838 104.7501220703125 5.336635589599609 C 102.8268737792969 3.122635364532471 100.0039978027344 2.00001049041748 96.36000061035156 2.00001049041748 C 87.81224822998047 2.00001049041748 78.97355651855469 1.989510416984558 69.61587524414062 1.978385329246521 C 60.18418502807617 1.967197895050049 50.43143463134766 1.955572843551636 40.93037033081055 1.955572843551636 C 30.42893409729004 1.955572843551636 21.5439338684082 1.970072865486145 13.76768398284912 2.00001049041748 L 13.76387214660645 2.00001049041748 L 13.75999641418457 2.00001049041748 C 10.10780906677246 2.00001049041748 7.284746646881104 3.116947889328003 5.369184494018555 5.31988525390625 C 3.623496770858765 7.327447891235352 2.651809215545654 10.22294807434082 2.559184312820435 13.69644832611084 C 1.933871746063232 35.85026168823242 2.185059309005737 76.27876281738281 2.31999683380127 97.99845123291016 C 2.335559368133545 100.501823425293 2.349434375762939 102.7328872680664 2.359996795654297 104.6288833618164 C 2.430121898651123 117.2558822631836 2.837246894836426 119.2233200073242 3.164371728897095 120.80419921875 C 3.30901837348938 121.5031356811523 3.458577871322632 122.2259140014648 3.554183006286621 123.5874099731445 C 6.725509166717529 163.97216796875 7.497893810272217 199.521240234375 7.859871864318848 231.9155731201172 C 8.223371505737305 261.6527099609375 6.425434112548828 291.9578247070312 4.686746597290039 321.2651977539062 C 4.014246940612793 332.600830078125 3.378996849060059 343.3078308105469 2.857621908187866 354.0370788574219 C 1.695309281349182 377.9569396972656 1.962934255599976 400.9670715332031 2.221746683120728 423.2196960449219 C 2.3848717212677 437.2413330078125 2.553496837615967 451.7403869628906 2.359817981719971 466.2660522460938 C 2.308278560638428 471.3879089355469 3.967643260955811 473.3326416015625 5.220559120178223 474.3497619628906 C 7.157684326171875 475.9223937988281 10.09480953216553 476.6947631835938 13.90755939483643 477.3704528808594 C 15.47812175750732 477.6475830078125 17.42524719238281 477.7823181152344 19.86005973815918 477.7823181152344 C 22.03380966186523 477.7823181152344 24.38812255859375 477.6768188476562 26.66487121582031 477.5748291015625 C 28.97524642944336 477.4713134765625 31.36430931091309 477.3643188476562 33.60730743408203 477.3643188476562 C 35.23429489135742 477.3643188476562 36.63992691040039 477.4201354980469 37.89807891845703 477.5348510742188 C 37.93679809570312 477.5336303710938 37.97548294067383 477.5330200195312 38.01399612426758 477.5330200195312 C 39.26872634887695 477.5330200195312 40.458740234375 478.18701171875 41.13299560546875 479.2434692382812 C 41.5352668762207 479.8416748046875 41.75071716308594 480.5320129394531 41.7601318359375 481.2507019042969 C 41.81206893920898 481.8694763183594 41.78263854980469 482.4875183105469 41.75649642944336 483.0364379882812 C 41.73882675170898 483.4070129394531 41.71890640258789 483.8245239257812 41.74066543579102 484.0561218261719 C 42.31204223632812 487.3096618652344 43.3834228515625 488.182373046875 44.35562133789062 488.6050720214844 C 44.89887237548828 488.8406372070312 45.47299575805664 488.9903869628906 46.06218338012695 489.0502624511719 L 46.26930999755859 489.0713195800781 L 46.46762084960938 489.1345825195312 C 46.4871826171875 489.1407470703125 46.50762176513672 489.1439514160156 46.52843475341797 489.1439514160156 C 46.53237152099609 489.1439514160156 46.53649520874023 489.1438293457031 46.54055786132812 489.1435852050781 L 46.64018249511719 489.1376342773438 L 46.73993301391602 489.1416320800781 C 49.16706085205078 489.2387084960938 52.00949859619141 489.2900085449219 54.95999526977539 489.2900085449219 M 54.95999526977539 491.2900085449219 C 52.05999755859375 491.2900085449219 49.15999603271484 491.2400207519531 46.65999603271484 491.1400146484375 C 46.61615371704102 491.1426391601562 46.57225036621094 491.1439514160156 46.5284309387207 491.1439514160156 C 46.30184173583984 491.1439514160156 46.07639694213867 491.1089782714844 45.8599967956543 491.0400085449219 C 45.06705856323242 490.9594421386719 44.2912483215332 490.757080078125 43.55999755859375 490.4400024414062 C 41.2599983215332 489.4400024414062 40.2599983215332 487.2400207519531 39.7599983215332 484.3399963378906 C 39.65999603271484 483.5400085449219 39.8599967956543 482.3399963378906 39.7599983215332 481.3399963378906 C 39.76805877685547 480.9833984375 39.66305923461914 480.6333312988281 39.45999526977539 480.3399353027344 L 39.45999526977539 480.3399963378906 C 39.14862823486328 479.8356323242188 38.5994758605957 479.5330200195312 38.01398849487305 479.5330200195312 C 37.96285247802734 479.5330200195312 37.91155242919922 479.5353393554688 37.8599967956543 479.5400085449219 C 36.52644729614258 479.4121398925781 35.09601211547852 479.3643493652344 33.6073112487793 479.3643493652344 C 29.20438575744629 479.3643493652344 24.29058265686035 479.7822875976562 19.86008071899414 479.7823181152344 C 17.58827018737793 479.7823181152344 15.4438591003418 479.6724548339844 13.55999660491943 479.3399963378906 C 5.65999698638916 477.9400024414062 0.2599968016147614 475.9400024414062 0.3599967956542969 466.2400207519531 C 0.8599967956542969 428.7400207519531 -1.040003180503845 393.0400085449219 0.8599967956542969 353.9400024414062 C 2.759996891021729 314.8399963378906 6.359996795654297 272.8399963378906 5.859996795654297 231.9400177001953 C 5.459996700286865 196.1400146484375 4.559996604919434 161.9400177001953 1.559996843338013 123.7400131225586 C 1.259996771812439 119.4400100708008 0.4599967896938324 122.640007019043 0.3599967956542969 104.640007019043 C 0.2599968016147614 86.64000701904297 -0.1400032043457031 38.44001007080078 0.5599967837333679 13.64001083374023 C 0.759996771812439 6.140010356903076 4.759996891021729 1.037597667163936e-05 13.75999641418457 1.037597667163936e-05 C 22.42613410949707 -0.03332092240452766 31.59392166137695 -0.04443395882844925 40.93036651611328 -0.04443395882844925 C 59.6049690246582 -0.04443395882844925 78.95946502685547 1.037597667163936e-05 96.36000061035156 1.037597667163936e-05 C 105.3600006103516 1.037597667163936e-05 109.3600006103516 6.200010299682617 109.5599975585938 13.60000991821289 C 110.2599945068359 38.20001220703125 109.7599945068359 87.00000762939453 109.7599945068359 104.5000076293945 C 109.7599945068359 122.0000076293945 108.8600006103516 119.1000137329102 108.5599975585938 123.0000076293945 C 102.2599945068359 202.0000152587891 102.5599975585938 276.9000244140625 109.8600006103516 354.6000061035156 C 109.4599990844727 391.2400207519531 110 429.7400207519531 109.4599990844727 466.1400146484375 C 109.3600006103516 475.5400085449219 104.4599990844727 478.1400146484375 96.36000061035156 479.3399963378906 C 94.42527008056641 479.6203918457031 92.24637603759766 479.7121276855469 89.94984436035156 479.7121276855469 C 85.60874176025391 479.7121276855469 80.84483337402344 479.3844604492188 76.50869750976562 479.3844604492188 C 74.95779418945312 479.3844604492188 73.46285247802734 479.4263305664062 72.05999755859375 479.5400695800781 C 71.58437347412109 479.5636291503906 71.12880706787109 479.7388305664062 70.75999450683594 480.0400695800781 C 70.44318389892578 480.4092712402344 70.23543548583984 480.859375 70.15999603271484 481.3399963378906 C 70.05999755859375 482.3399963378906 70.25999450683594 483.5400695800781 70.15999603271484 484.3399963378906 C 69.55999755859375 488.3399963378906 67.65999603271484 490.9400024414062 63.2599983215332 491.1400146484375 C 60.7599983215332 491.2400207519531 57.8599967956543 491.2900085449219 54.95999526977539 491.2900085449219 Z"/>
          </g>
          <g id="グループ化_40" data-name="グループ化 40" class="cls-5">
            <g id="パス_34" data-name="パス 34" class="cls-7">
              <path class="cls-13" d="M109.46,466.14c-.1,9.4-5,12-13.1,13.2-6.9,1-16.9-.4-24.3.2a2.23,2.23,0,0,0-1.3.5,2.62,2.62,0,0,0-.6,1.3c-.1,1,.1,2.2,0,3-.6,4-2.5,6.6-6.9,6.8-5,.2-11.6.2-16.6,0a2.2,2.2,0,0,1-.8-.1h0a7.75,7.75,0,0,1-2.3-.6h0c-2.3-1-3.3-3.2-3.8-6.1-.1-.8.1-2,0-3a1.69,1.69,0,0,0-.3-1h0a1.7,1.7,0,0,0-1.6-.8c-7.3-.7-17.5,1-24.3-.2-7.9-1.4-13.3-3.4-13.2-13.1.5-37.5-1.4-73.2.5-112.3s5.5-81.1,5-122c-.4-35.8-1.3-70-4.3-108.2-.3-4.3-1.1-1.1-1.2-19.1s-.5-66.2.2-91C.76,6.14,4.76,0,13.76,0c26-.1,56.5,0,82.6,0,9,0,13,6.2,13.2,13.6.7,24.6.2,73.4.2,90.9s-.9,14.6-1.2,18.5c-6.3,79-6,153.9,1.3,231.6C109.46,391.24,110,429.74,109.46,466.14Z"/>
              <path class="cls-14" d="M 54.95999526977539 489.2900085449219 C 57.90635299682617 489.2900085449219 60.744873046875 489.2388305664062 63.16975402832031 489.1420593261719 C 64.74908447265625 489.0701599121094 65.89565277099609 488.6305847167969 66.67493438720703 487.7981262207031 C 67.42692565917969 486.994873046875 67.91858673095703 485.7761840820312 68.17761993408203 484.0730895996094 C 68.20208740234375 483.8453674316406 68.18161010742188 483.4163208007812 68.16349792480469 483.0364990234375 C 68.13581085205078 482.4551391601562 68.10443115234375 481.7962036132812 68.16993713378906 481.1410217285156 L 68.17549896240234 481.0852661132812 L 68.18418121337891 481.0298767089844 C 68.31730651855469 480.1817626953125 68.68318176269531 479.3890686035156 69.24224853515625 478.7376403808594 L 69.35762023925781 478.6032104492188 L 69.49481201171875 478.4911499023438 C 70.19052886962891 477.9228515625 71.03064727783203 477.5959167480469 71.92655944824219 477.5443725585938 C 73.2652587890625 477.436767578125 74.764404296875 477.3844604492188 76.50868225097656 477.3844604492188 C 78.71212005615234 477.3844604492188 81.04312133789062 477.4683837890625 83.29737091064453 477.5494995117188 C 85.51824951171875 477.6294555664062 87.81468200683594 477.7121276855469 89.94987487792969 477.7121276855469 C 92.43511962890625 477.7121276855469 94.43608093261719 477.5975036621094 96.06687164306641 477.361572265625 C 100.2680587768555 476.7391967773438 102.8968734741211 475.7986450195312 104.5906219482422 474.3119506835938 C 106.5067443847656 472.6300048828125 107.4185562133789 470.0265808105469 107.4601211547852 466.1187744140625 L 107.4601821899414 466.114501953125 L 107.4602432250977 466.1103210449219 C 107.7486877441406 446.6644592285156 107.7283706665039 426.2771911621094 107.7086868286133 406.5611877441406 C 107.6915969848633 389.4285278320312 107.673957824707 371.7123413085938 107.8589782714844 354.6830139160156 C 106.0450973510742 335.3601684570312 104.6438140869141 315.9010314941406 103.6937484741211 296.8417663574219 C 102.742561340332 277.7613220214844 102.2097473144531 258.4007568359375 102.1100006103516 239.2979431152344 C 102.0107498168945 220.2812652587891 102.3371810913086 200.8393249511719 103.0802459716797 181.5122528076172 C 103.8169326782227 162.3493194580078 104.9898681640625 142.6094512939453 106.5662078857422 122.8422698974609 C 106.6615524291992 121.6060104370117 106.8185501098633 120.9324417114258 106.9703750610352 120.2810134887695 C 107.3036193847656 118.85107421875 107.7599945068359 116.8927612304688 107.7599945068359 104.5000076293945 C 107.7599945068359 100.2354507446289 107.7898101806641 94.07788848876953 107.8243713378906 86.94807434082031 C 107.929931640625 65.16082000732422 108.0895004272461 32.23569869995117 107.5607452392578 13.65407276153564 C 107.4679946899414 10.22263526916504 106.4961242675781 7.346510410308838 104.7501220703125 5.336635589599609 C 102.8268737792969 3.122635364532471 100.0039978027344 2.00001049041748 96.36000061035156 2.00001049041748 C 87.81224822998047 2.00001049041748 78.97355651855469 1.989510416984558 69.61587524414062 1.978385329246521 C 60.18418502807617 1.967197895050049 50.43143463134766 1.955572843551636 40.93037033081055 1.955572843551636 C 30.42893409729004 1.955572843551636 21.5439338684082 1.970072865486145 13.76768398284912 2.00001049041748 L 13.76387214660645 2.00001049041748 L 13.75999641418457 2.00001049041748 C 10.10780906677246 2.00001049041748 7.284746646881104 3.116947889328003 5.369184494018555 5.31988525390625 C 3.623496770858765 7.327447891235352 2.651809215545654 10.22294807434082 2.559184312820435 13.69644832611084 C 1.933871746063232 35.85026168823242 2.185059309005737 76.27876281738281 2.31999683380127 97.99845123291016 C 2.335559368133545 100.501823425293 2.349434375762939 102.7328872680664 2.359996795654297 104.6288833618164 C 2.430121898651123 117.2558822631836 2.837246894836426 119.2233200073242 3.164371728897095 120.80419921875 C 3.30901837348938 121.5031356811523 3.458577871322632 122.2259140014648 3.554183006286621 123.5874099731445 C 6.725509166717529 163.97216796875 7.497893810272217 199.521240234375 7.859871864318848 231.9155731201172 C 8.223371505737305 261.6527099609375 6.425434112548828 291.9578247070312 4.686746597290039 321.2651977539062 C 4.014246940612793 332.600830078125 3.378996849060059 343.3078308105469 2.857621908187866 354.0370788574219 C 1.695309281349182 377.9569396972656 1.962934255599976 400.9670715332031 2.221746683120728 423.2196960449219 C 2.3848717212677 437.2413330078125 2.553496837615967 451.7403869628906 2.359817981719971 466.2660522460938 C 2.308278560638428 471.3879089355469 3.967643260955811 473.3326416015625 5.220559120178223 474.3497619628906 C 7.157684326171875 475.9223937988281 10.09480953216553 476.6947631835938 13.90755939483643 477.3704528808594 C 15.47812175750732 477.6475830078125 17.42524719238281 477.7823181152344 19.86005973815918 477.7823181152344 C 22.03380966186523 477.7823181152344 24.38812255859375 477.6768188476562 26.66487121582031 477.5748291015625 C 28.97524642944336 477.4713134765625 31.36430931091309 477.3643188476562 33.60730743408203 477.3643188476562 C 35.23429489135742 477.3643188476562 36.63992691040039 477.4201354980469 37.89807891845703 477.5348510742188 C 37.93679809570312 477.5336303710938 37.97548294067383 477.5330200195312 38.01399612426758 477.5330200195312 C 39.26872634887695 477.5330200195312 40.458740234375 478.18701171875 41.13299560546875 479.2434692382812 C 41.5352668762207 479.8416748046875 41.75071716308594 480.5320129394531 41.7601318359375 481.2507019042969 C 41.81206893920898 481.8694763183594 41.78263854980469 482.4875183105469 41.75649642944336 483.0364379882812 C 41.73882675170898 483.4070129394531 41.71890640258789 483.8245239257812 41.74066543579102 484.0561218261719 C 42.31204223632812 487.3096618652344 43.3834228515625 488.182373046875 44.35562133789062 488.6050720214844 C 44.89887237548828 488.8406372070312 45.47299575805664 488.9903869628906 46.06218338012695 489.0502624511719 L 46.26930999755859 489.0713195800781 L 46.46762084960938 489.1345825195312 C 46.4871826171875 489.1407470703125 46.50762176513672 489.1439514160156 46.52843475341797 489.1439514160156 C 46.53237152099609 489.1439514160156 46.53649520874023 489.1438293457031 46.54055786132812 489.1435852050781 L 46.64018249511719 489.1376342773438 L 46.73993301391602 489.1416320800781 C 49.16706085205078 489.2387084960938 52.00949859619141 489.2900085449219 54.95999526977539 489.2900085449219 M 54.95999526977539 491.2900085449219 C 52.05999755859375 491.2900085449219 49.15999603271484 491.2400207519531 46.65999603271484 491.1400146484375 C 46.61615371704102 491.1426391601562 46.57225036621094 491.1439514160156 46.5284309387207 491.1439514160156 C 46.30184173583984 491.1439514160156 46.07639694213867 491.1089782714844 45.8599967956543 491.0400085449219 C 45.06705856323242 490.9594421386719 44.2912483215332 490.757080078125 43.55999755859375 490.4400024414062 C 41.2599983215332 489.4400024414062 40.2599983215332 487.2400207519531 39.7599983215332 484.3399963378906 C 39.65999603271484 483.5400085449219 39.8599967956543 482.3399963378906 39.7599983215332 481.3399963378906 C 39.76805877685547 480.9833984375 39.66305923461914 480.6333312988281 39.45999526977539 480.3399353027344 L 39.45999526977539 480.3399963378906 C 39.14862823486328 479.8356323242188 38.5994758605957 479.5330200195312 38.01398849487305 479.5330200195312 C 37.96285247802734 479.5330200195312 37.91155242919922 479.5353393554688 37.8599967956543 479.5400085449219 C 36.52644729614258 479.4121398925781 35.09601211547852 479.3643493652344 33.6073112487793 479.3643493652344 C 29.20438575744629 479.3643493652344 24.29058265686035 479.7822875976562 19.86008071899414 479.7823181152344 C 17.58827018737793 479.7823181152344 15.4438591003418 479.6724548339844 13.55999660491943 479.3399963378906 C 5.65999698638916 477.9400024414062 0.2599968016147614 475.9400024414062 0.3599967956542969 466.2400207519531 C 0.8599967956542969 428.7400207519531 -1.040003180503845 393.0400085449219 0.8599967956542969 353.9400024414062 C 2.759996891021729 314.8399963378906 6.359996795654297 272.8399963378906 5.859996795654297 231.9400177001953 C 5.459996700286865 196.1400146484375 4.559996604919434 161.9400177001953 1.559996843338013 123.7400131225586 C 1.259996771812439 119.4400100708008 0.4599967896938324 122.640007019043 0.3599967956542969 104.640007019043 C 0.2599968016147614 86.64000701904297 -0.1400032043457031 38.44001007080078 0.5599967837333679 13.64001083374023 C 0.759996771812439 6.140010356903076 4.759996891021729 1.037597667163936e-05 13.75999641418457 1.037597667163936e-05 C 22.42613410949707 -0.03332092240452766 31.59392166137695 -0.04443395882844925 40.93036651611328 -0.04443395882844925 C 59.6049690246582 -0.04443395882844925 78.95946502685547 1.037597667163936e-05 96.36000061035156 1.037597667163936e-05 C 105.3600006103516 1.037597667163936e-05 109.3600006103516 6.200010299682617 109.5599975585938 13.60000991821289 C 110.2599945068359 38.20001220703125 109.7599945068359 87.00000762939453 109.7599945068359 104.5000076293945 C 109.7599945068359 122.0000076293945 108.8600006103516 119.1000137329102 108.5599975585938 123.0000076293945 C 102.2599945068359 202.0000152587891 102.5599975585938 276.9000244140625 109.8600006103516 354.6000061035156 C 109.4599990844727 391.2400207519531 110 429.7400207519531 109.4599990844727 466.1400146484375 C 109.3600006103516 475.5400085449219 104.4599990844727 478.1400146484375 96.36000061035156 479.3399963378906 C 94.42527008056641 479.6203918457031 92.24637603759766 479.7121276855469 89.94984436035156 479.7121276855469 C 85.60874176025391 479.7121276855469 80.84483337402344 479.3844604492188 76.50869750976562 479.3844604492188 C 74.95779418945312 479.3844604492188 73.46285247802734 479.4263305664062 72.05999755859375 479.5400695800781 C 71.58437347412109 479.5636291503906 71.12880706787109 479.7388305664062 70.75999450683594 480.0400695800781 C 70.44318389892578 480.4092712402344 70.23543548583984 480.859375 70.15999603271484 481.3399963378906 C 70.05999755859375 482.3399963378906 70.25999450683594 483.5400695800781 70.15999603271484 484.3399963378906 C 69.55999755859375 488.3399963378906 67.65999603271484 490.9400024414062 63.2599983215332 491.1400146484375 C 60.7599983215332 491.2400207519531 57.8599967956543 491.2900085449219 54.95999526977539 491.2900085449219 Z"/>
            </g>
          </g>
        </g>
        <path id="パス_35" data-name="パス 35" class="cls-8" d="M70.06,484.34c-.6,4-2.5,6.6-6.9,6.8-5,.2-11.6.2-16.6,0a2.2,2.2,0,0,1-.8-.1h0a15.449,15.449,0,0,1-2.3-.6h0c-2.3-1-3.3-3.2-3.8-6.1-.1-.8.1-2,0-3a1.69,1.69,0,0,0-.3-1h0c2.4-19.4,9.7-41.3,16-41.3s12.3,21.2,15.4,41a2.62,2.62,0,0,0-.6,1.3C70,482.34,70.16,483.54,70.06,484.34Z"/>
        <g id="グループ化_42" data-name="グループ化 42" class="cls-9">
          <path id="パス_36" data-name="パス 36" class="cls-8" d="M70.06,484.34c-.6,4-2.5,6.6-6.9,6.8-5,.2-11.6.2-16.6,0a2.2,2.2,0,0,1-.8-.1h0a15.449,15.449,0,0,1-2.3-.6h0c-2.3-1-3.3-3.2-3.8-6.1-.1-.8.1-2,0-3a1.69,1.69,0,0,0-.3-1h0c2.4-19.4,9.7-41.3,16-41.3s12.3,21.2,15.4,41a2.62,2.62,0,0,0-.6,1.3C70,482.34,70.16,483.54,70.06,484.34Z"/>
        </g>
        <g id="長方形_15" data-name="長方形 15">
          <path id="パス_37" data-name="パス 37" class="cls-10" d="M37.26,42.74h35.5a4.06,4.06,0,0,1,4.1,4.1v12.3a4.06,4.06,0,0,1-4.1,4.1H37.26a4.06,4.06,0,0,1-4.1-4.1V46.84a4.12,4.12,0,0,1,4.1-4.1Z"/>
          <path id="パス_38" data-name="パス 38" class="cls-10" d="M37.26,43.44h35.5a3.37,3.37,0,0,1,3.4,3.4v12.3a3.37,3.37,0,0,1-3.4,3.4H37.26a3.37,3.37,0,0,1-3.4-3.4V46.84a3.37,3.37,0,0,1,3.4-3.4Z"/>
        </g>
        <rect id="長方形_29" data-name="長方形 29" class="cls-11" width="29.6" height="17.5" transform="translate(40.36 46.94)"/>
        <path id="パス_116" data-name="パス 116" class="cls-12" d="M4.86-9.612a12.887,12.887,0,0,1,.1,1.944v4.992c0,.828-.372,1.224-1.176,1.224-.768,0-1.128-.336-1.38-1.272l-2.34.8a3.792,3.792,0,0,0,.792,1.4A3.785,3.785,0,0,0,3.816.6a3.8,3.8,0,0,0,2.76-.972,3.085,3.085,0,0,0,.828-2.3v-5a10.965,10.965,0,0,1,.1-1.932Zm13,9.984c-.3-.636-.444-.936-.576-1.272-.54-1.3-.708-1.7-.888-2.088-.384-.852-.66-1.128-1.272-1.32a2.652,2.652,0,0,0,1.14-.6,2.614,2.614,0,0,0,.708-1.968c0-1.728-1.128-2.736-3.072-2.736h-3.12c-.816,0-1.26-.012-1.788-.036a12.793,12.793,0,0,1,.1,1.764v6.456a11.85,11.85,0,0,1-.1,1.8h2.58a12.651,12.651,0,0,1-.1-1.812V-3.408H12.7a1.311,1.311,0,0,1,.936.324c.3.264.444.54.828,1.584A11.676,11.676,0,0,1,15.048.372ZM11.472-5.46V-7.6h1.884c.744,0,1.128.348,1.128,1.02a1.047,1.047,0,0,1-1.14,1.116Zm16.26-1.152a3.707,3.707,0,0,0-.744-1.644,4.178,4.178,0,0,0-3.54-1.572A4.863,4.863,0,0,0,20-8.58a5.415,5.415,0,0,0-1.452,3.948A5.531,5.531,0,0,0,19.944-.72,4.858,4.858,0,0,0,23.5.6a4.3,4.3,0,0,0,3.36-1.308,4.557,4.557,0,0,0,1-2.2l-2.5-.372A2.047,2.047,0,0,1,25-2.244a1.891,1.891,0,0,1-1.572.756c-1.488,0-2.376-1.188-2.376-3.144,0-1.98.852-3.132,2.316-3.132a1.8,1.8,0,0,1,1.9,1.632Z" transform="translate(40.33 57.78)"/>
      </g>
    </g>
  </g>
</svg>
