<svg xmlns="http://www.w3.org/2000/svg" viewBox="0 0 82 15.406">
  <defs>
    <style>
      .cls-1 {
        fill: #fff;
      }

      .cls-2 {
        fill: none;
        stroke: #fff;
        stroke-linecap: square;
        stroke-width: 2px;
      }
    </style>
  </defs>
  <g id="グループ化_78" data-name="グループ化 78" transform="translate(-488.5 -535)">
    <path id="パス_77" data-name="パス 77" class="cls-1" d="M5.838-11.2A4.852,4.852,0,0,0,2.226-9.8,5.994,5.994,0,0,0,.63-5.432C.63-1.876,2.674.406,5.852.406s5.236-2.3,5.236-5.838A6.037,6.037,0,0,0,9.52-9.8,4.906,4.906,0,0,0,5.838-11.2ZM5.88-1.26a3.023,3.023,0,0,1-2.17-.854,4.625,4.625,0,0,1-1.134-3.3c0-2.534,1.274-4.13,3.29-4.13a3.013,3.013,0,0,1,2.156.854A4.522,4.522,0,0,1,9.128-5.432C9.128-2.856,7.882-1.26,5.88-1.26Zm8.26-3.388h3a13.678,13.678,0,0,1,1.9.1V-6.412a13.811,13.811,0,0,1-1.9.1h-3V-9.282h3.724a13.378,13.378,0,0,1,1.918.1v-1.89a14.31,14.31,0,0,1-1.918.1h-3.92c-.854,0-1.2-.014-1.778-.042a12.09,12.09,0,0,1,.112,1.82V-1.82A11.8,11.8,0,0,1,12.166.168h2.086a12.075,12.075,0,0,1-.112-2.016Zm8.456,0h3a13.678,13.678,0,0,1,1.9.1V-6.412a13.811,13.811,0,0,1-1.9.1h-3V-9.282H26.32a13.378,13.378,0,0,1,1.918.1v-1.89a14.31,14.31,0,0,1-1.918.1H22.4c-.854,0-1.2-.014-1.778-.042a12.09,12.09,0,0,1,.112,1.82V-1.82A11.8,11.8,0,0,1,20.622.168h2.086A12.075,12.075,0,0,1,22.6-1.848Z" transform="translate(515 550)"/>
    <g id="グループ化_21" data-name="グループ化 21">
      <line id="線_24" data-name="線 24" class="cls-2" y2="7.5" transform="translate(489.5 536)"/>
      <line id="線_25" data-name="線 25" class="cls-2" y2="7.5" transform="translate(569.5 536)"/>
      <line id="線_26" data-name="線 26" class="cls-2" x2="19" transform="translate(489.5 543.5)"/>
      <line id="線_27" data-name="線 27" class="cls-2" x1="19" transform="translate(550.5 543.5)"/>
    </g>
  </g>
</svg>
