<svg xmlns="http://www.w3.org/2000/svg" viewBox="0 0 109.92 775.3">
  <defs>
    <style>
      .cls-1, .cls-3 {
        fill: #707075;
      }

      .cls-2 {
        opacity: 0.2;
      }

      .cls-4 {
        fill: #505050;
      }

      .cls-5 {
        fill: #9c9c9c;
      }

      .cls-6 {
        fill: #595959;
      }

      .cls-7 {
        fill: #646469;
      }

      .cls-8 {
        opacity: 0.75;
      }

      .cls-9 {
        fill: #444446;
      }

      .cls-10 {
        opacity: 0.5;
      }

      .cls-11 {
        fill: #383838;
      }

      .cls-12 {
        fill: #c3c3cf;
      }

      .cls-13, .cls-14, .cls-15 {
        stroke: none;
      }

      .cls-14 {
        fill: #fff;
      }

      .cls-15 {
        fill: rgba(255,255,255,0.5);
      }
    </style>
  </defs>
  <g id="On-hook" transform="translate(-0.013)">
    <g id="レイヤー_1" data-name="レイヤー 1">
      <g id="On-hook-2" data-name="On-hook">
        <path id="パス_39" data-name="パス 39" class="cls-1" d="M109.46,466.2c-.1,9.4-5,12-13.1,13.2-6.9,1-16.9-.4-24.3.2a2.23,2.23,0,0,0-1.3.5,2.62,2.62,0,0,0-.6,1.3c-.1,1,.1,2.2,0,3-.6,4-2.5,6.6-6.9,6.8-5,.2-11.6.2-16.6,0a2.2,2.2,0,0,1-.8-.1h0a7.75,7.75,0,0,1-2.3-.6h0c-2.3-1-3.3-3.2-3.8-6.1-.1-.8.1-2,0-3a1.69,1.69,0,0,0-.3-1h0a1.7,1.7,0,0,0-1.6-.8c-7.3-.7-17.5,1-24.3-.2C5.66,478,.26,476,.36,466.3.86,428.8-1,393.1.86,354s5.5-81.1,5-122c-.4-35.8-1.3-70-4.3-108.2-.3-4.3-1.1-1.1-1.2-19.1s-.5-66.2.2-91C.76,6.2,4.76.1,13.76.1c26-.1,56.5,0,82.6,0,9,0,13,6.2,13.2,13.6.7,24.6.2,73.4.2,90.9s-.9,14.6-1.2,18.5c-6.3,79-6,153.9,1.3,231.6C109.46,391.3,110,429.8,109.46,466.2Z"/>
        <g id="グループ化_43" data-name="グループ化 43" class="cls-2">
          <g id="パス_40" data-name="パス 40" class="cls-3">
            <path class="cls-13" d="M 54.95999908447266 490.3500061035156 C 51.99643325805664 490.3500061035156 49.14018630981445 490.2984619140625 46.69993591308594 490.2008361816406 L 46.64999771118164 490.1988220214844 L 46.60005950927734 490.2018127441406 C 46.57624816894531 490.2032470703125 46.55205917358398 490.2039489746094 46.52818298339844 490.2039489746094 C 46.40443420410156 490.2039489746094 46.28174591064453 490.1848754882812 46.1636848449707 490.1472473144531 L 46.06455993652344 490.1156311035156 L 45.9610595703125 490.1051330566406 C 45.26949691772461 490.0348815917969 44.59549713134766 489.8590698242188 43.95780944824219 489.58251953125 C 43.06243515014648 489.1932678222656 42.37287139892578 488.5648803710938 41.85068511962891 487.6618957519531 C 41.36110305786133 486.8153991699219 41.00093460083008 485.7008361816406 40.7497444152832 484.2549743652344 C 40.71477127075195 483.9480895996094 40.73556900024414 483.510986328125 40.75762176513672 483.0488891601562 C 40.7828369140625 482.519775390625 40.81127548217773 481.9224853515625 40.76044845581055 481.3573303222656 C 40.75985717773438 480.8177490234375 40.60013580322266 480.2990112304688 40.29659652709961 479.8517761230469 C 39.80578231811523 479.0746459960938 38.9337272644043 478.5930786132812 38.01387405395508 478.5930786132812 C 37.96701812744141 478.5930786132812 37.91983032226562 478.5942993164062 37.87272644042969 478.5967407226562 C 36.62878036499023 478.4807739257812 35.23234176635742 478.42431640625 33.6073112487793 478.42431640625 C 31.38681030273438 478.42431640625 29.00924682617188 478.5308227539062 26.70999717712402 478.6338195800781 C 24.42212295532227 478.736328125 22.05631065368652 478.8423156738281 19.86005973815918 478.8423156738281 C 17.36631011962891 478.8423156738281 15.36237239837646 478.70263671875 13.73380947113037 478.4151916503906 C 9.767372131347656 477.7123107910156 6.694122314453125 476.8941345214844 4.59024715423584 475.1861267089844 C 2.342809677124023 473.361572265625 1.316309809684753 470.5411987304688 1.35993480682373 466.3103332519531 C 1.553934812545776 451.7601318359375 1.39005970954895 437.228271484375 1.231497287750244 423.1748962402344 C 0.9807472825050354 400.9443359375 0.7214972376823425 377.9568786621094 1.858872294425964 354.0475158691406 C 2.384934663772583 342.9883117675781 3.038684844970703 331.9473266601562 3.730809688568115 320.2580871582031 C 5.445684909820557 291.2965698242188 7.2188720703125 261.3490600585938 6.85993480682373 231.9877624511719 C 6.498122215270996 199.6078796386719 5.726434707641602 164.0801391601562 2.556934833526611 123.7217025756836 C 2.46621561050415 122.425048828125 2.329687356948853 121.765251159668 2.18512225151062 121.0668258666992 C 1.848997235298157 119.442512512207 1.430684804916382 117.421012878418 1.359997272491455 104.694450378418 C 1.349434733390808 102.7986373901367 1.335559725761414 100.5678253173828 1.320059776306152 98.06463623046875 C 1.185059785842896 76.33895111083984 0.933809757232666 35.89926147460938 1.559622287750244 13.72819995880127 C 1.658309698104858 10.0260124206543 2.714247226715088 6.920262336730957 4.613309860229492 4.745199680328369 C 6.725122451782227 2.326449632644653 9.802496910095215 1.100012183189392 13.75999736785889 1.100012183189392 C 21.53824806213379 1.070074677467346 30.42449760437012 1.055574655532837 40.93037414550781 1.055574655532837 C 50.4319953918457 1.055574655532837 60.18505859375 1.067137241363525 69.61699676513672 1.078387260437012 C 78.97437286376953 1.089512228965759 87.81281280517578 1.100012183189392 96.36000061035156 1.100012183189392 C 100.3065567016602 1.100012183189392 103.3833694458008 2.338387250900269 105.5050582885742 4.780824661254883 C 107.4048080444336 6.967699527740479 108.461311340332 10.0612621307373 108.5603713989258 13.72701263427734 C 109.0895614624023 32.32388687133789 108.929931640625 65.25901031494141 108.8243713378906 87.05294799804688 C 108.7898101806641 94.18144989013672 108.7599945068359 100.337890625 108.7599945068359 104.6000137329102 C 108.7599945068359 117.1076965332031 108.3076858520508 119.0485153198242 107.9442443847656 120.6079483032227 C 107.7941818237305 121.2520141601562 107.6523742675781 121.8603897094727 107.5629348754883 123.023323059082 C 105.9877471923828 142.7753295898438 104.8156814575195 162.5013885498047 104.0794982910156 181.650634765625 C 103.3369979858398 200.9632568359375 103.0108108520508 220.3905181884766 103.1100006103516 239.3927612304688 C 103.2096862792969 258.4807739257812 103.742057800293 277.8263244628906 104.692497253418 296.8919982910156 C 105.642692565918 315.9530334472656 107.0447235107422 335.4168090820312 108.859489440918 354.7415466308594 C 108.6739120483398 371.7622680664062 108.6915740966797 389.4854431152344 108.7086868286133 406.6251220703125 C 108.7283706665039 426.3424377441406 108.7486877441406 446.7310180664062 108.4601211547852 466.1852111816406 C 108.4152450561523 470.4017639160156 107.3953094482422 473.2406311035156 105.2503128051758 475.1234436035156 C 103.4033737182617 476.7446899414062 100.6163101196289 477.7585144042969 96.21343231201172 478.4108276367188 C 94.53687286376953 478.6537475585938 92.48699951171875 478.7721252441406 89.94987487792969 478.7721252441406 C 87.79668426513672 478.7721252441406 85.49111938476562 478.6891479492188 83.26143646240234 478.60888671875 C 81.01599884033203 478.528076171875 78.69412231445312 478.4444580078125 76.50868225097656 478.4444580078125 C 74.78473663330078 478.4444580078125 73.30703735351562 478.4961242675781 71.99175262451172 478.602294921875 C 71.30491638183594 478.6402282714844 70.66057586669922 478.8901062011719 70.12737274169922 479.3255615234375 L 70.05880737304688 479.3816223144531 L 70.00112152099609 479.4488220214844 C 69.56305694580078 479.9593200683594 69.27637481689453 480.5803833007812 69.172119140625 481.2449645996094 L 69.16774749755859 481.2726440429688 L 69.16493225097656 481.3005065917969 C 69.1068115234375 481.8822631835938 69.13630676269531 482.5020751953125 69.16236877441406 483.0488891601562 C 69.18464660644531 483.5156555175781 69.20564270019531 483.9569091796875 69.16917419433594 484.2642211914062 C 68.87966156005859 486.1835021972656 68.30252075195312 487.5828857421875 67.40499877929688 488.5415649414062 C 66.43932342529297 489.5731201171875 65.07003784179688 490.1159057617188 63.21919631958008 490.2008666992188 C 60.77914428710938 490.2984619140625 57.92319869995117 490.3500061035156 54.95999908447266 490.3500061035156 Z"/>
            <path class="cls-14" d="M 54.95999908447266 489.3500061035156 C 57.90635681152344 489.3500061035156 60.744873046875 489.2988586425781 63.16975402832031 489.2020568847656 C 64.74908447265625 489.1301574707031 65.89565277099609 488.6906127929688 66.67493438720703 487.8581237792969 C 67.42692565917969 487.0548706054688 67.91858673095703 485.836181640625 68.17761993408203 484.1331176757812 C 68.20208740234375 483.9053649902344 68.18161010742188 483.476318359375 68.16349792480469 483.0965270996094 C 68.13581085205078 482.51513671875 68.10443115234375 481.856201171875 68.16993713378906 481.2010192871094 L 68.17549896240234 481.145263671875 L 68.18418121337891 481.0898742675781 C 68.31730651855469 480.2417602539062 68.68318176269531 479.4490661621094 69.24224853515625 478.7976379394531 L 69.35762023925781 478.6632080078125 L 69.49481201171875 478.5511474609375 C 70.19052886962891 477.9828491210938 71.03064727783203 477.6559143066406 71.92655944824219 477.6043701171875 C 73.2652587890625 477.4967651367188 74.764404296875 477.4444580078125 76.50868225097656 477.4444580078125 C 78.71212005615234 477.4444580078125 81.04312133789062 477.5283813476562 83.29737091064453 477.6094970703125 C 85.51824951171875 477.689453125 87.81468200683594 477.7721252441406 89.94987487792969 477.7721252441406 C 92.43511962890625 477.7721252441406 94.43608093261719 477.6575012207031 96.06687164306641 477.4215698242188 C 100.2680587768555 476.7991943359375 102.8968734741211 475.858642578125 104.5906219482422 474.3719482421875 C 106.5067443847656 472.6900024414062 107.4185562133789 470.0865783691406 107.4601211547852 466.1787719726562 L 107.4601821899414 466.1744995117188 L 107.4602508544922 466.1703186035156 C 107.7486877441406 446.7240600585938 107.7283706665039 426.3395080566406 107.7086868286133 406.6261291503906 C 107.6915969848633 389.5013122558594 107.673957824707 371.7934875488281 107.8589782714844 354.7830200195312 C 106.0450973510742 335.4601440429688 104.6438140869141 316.0010375976562 103.6937484741211 296.9417724609375 C 102.742561340332 277.861328125 102.2097473144531 258.5007629394531 102.1100006103516 239.39794921875 C 102.0107498168945 220.3812561035156 102.3371810913086 200.9393310546875 103.0802459716797 181.6122589111328 C 103.8169326782227 162.4493255615234 104.989875793457 142.7094421386719 106.5662078857422 122.942268371582 C 106.6615524291992 121.7060165405273 106.8185501098633 121.0324401855469 106.9703750610352 120.3810119628906 C 107.3036193847656 118.9510726928711 107.7599945068359 116.9927597045898 107.7599945068359 104.6000137329102 C 107.7599945068359 100.33544921875 107.7898101806641 94.17788696289062 107.8243713378906 87.04807281494141 C 107.929931640625 65.26082611083984 108.0895004272461 32.33570098876953 107.5607452392578 13.754075050354 C 107.4679946899414 10.3226375579834 106.4961242675781 7.446512222290039 104.7501220703125 5.436637401580811 C 102.8268737792969 3.222637176513672 100.0039978027344 2.100012302398682 96.36000061035156 2.100012302398682 C 87.81224822998047 2.100012302398682 78.97355651855469 2.08951210975647 69.61587524414062 2.078387260437012 C 60.18418502807617 2.06719970703125 50.43143463134766 2.055574655532837 40.93037414550781 2.055574655532837 C 30.42893409729004 2.055574655532837 21.5439338684082 2.070074796676636 13.76768493652344 2.100012302398682 L 13.76387214660645 2.100012302398682 L 13.75999736785889 2.100012302398682 C 10.10406017303467 2.100012302398682 7.280059814453125 3.211262226104736 5.366559982299805 5.402887344360352 C 3.622434854507446 7.400512218475342 2.651684761047363 10.2880744934082 2.559184789657593 13.75644969940186 C 1.933872222900391 35.91026306152344 2.185059785842896 76.33876037597656 2.319997310638428 98.05844879150391 C 2.335559844970703 100.5618209838867 2.349434852600098 102.7928848266602 2.359997272491455 104.6888885498047 C 2.430122137069702 117.3158874511719 2.837247371673584 119.2833251953125 3.164372205734253 120.8641967773438 C 3.309018850326538 121.5631408691406 3.45857834815979 122.2859115600586 3.554183483123779 123.6474151611328 C 6.725509643554688 164.0321655273438 7.497894287109375 199.5812377929688 7.859872341156006 231.9755706787109 C 8.219246864318848 261.3725891113281 6.444934844970703 291.3381958007812 4.72905969619751 320.317138671875 C 4.037122249603271 332.0034484863281 3.383559703826904 343.0416259765625 2.857747316360474 354.0950622558594 C 1.721747279167175 377.9750061035156 1.980872273445129 400.9474487304688 2.23143482208252 423.16357421875 C 2.39005970954895 437.2230834960938 2.553997278213501 451.7611999511719 2.359818458557129 466.3260498046875 C 2.308279037475586 471.4479064941406 3.967643737792969 473.3926391601562 5.220559597015381 474.4097595214844 C 7.157684803009033 475.9823913574219 10.09480953216553 476.7547607421875 13.90755939483643 477.4304504394531 C 15.47812271118164 477.7075805664062 17.42524719238281 477.8423156738281 19.86005973815918 477.8423156738281 C 22.03380966186523 477.8423156738281 24.38812255859375 477.73681640625 26.66487312316895 477.6348266601562 C 28.97524642944336 477.5313110351562 31.36430931091309 477.42431640625 33.6073112487793 477.42431640625 C 35.23440170288086 477.42431640625 36.6402473449707 477.4801330566406 37.89846038818359 477.5948791503906 C 37.93695831298828 477.5936889648438 37.97547149658203 477.5930786132812 38.01387405395508 477.5930786132812 C 39.26893997192383 477.5930786132812 40.45916748046875 478.2472534179688 41.13331604003906 479.3039245605469 C 41.53544235229492 479.9020080566406 41.7507209777832 480.5921020507812 41.76013565063477 481.3106994628906 C 41.81206893920898 481.9294738769531 41.78263854980469 482.5475158691406 41.75649642944336 483.096435546875 C 41.73882675170898 483.4670104980469 41.71890640258789 483.884521484375 41.74066925048828 484.1161193847656 C 42.31204223632812 487.3696594238281 43.3834228515625 488.2423706054688 44.35562133789062 488.6650695800781 C 44.89887237548828 488.900634765625 45.47299575805664 489.0503845214844 46.06218338012695 489.1102600097656 L 46.26912307739258 489.1312561035156 L 46.46730804443359 489.1944580078125 C 46.487060546875 489.2007751464844 46.50756072998047 489.2039489746094 46.52818298339844 489.2039489746094 C 46.53231048583984 489.2039489746094 46.5364990234375 489.2038269042969 46.54074859619141 489.2035827636719 L 46.64030838012695 489.1976318359375 L 46.73993301391602 489.2016296386719 C 49.16706085205078 489.2987060546875 52.00949859619141 489.3500061035156 54.95999908447266 489.3500061035156 M 54.95999908447266 491.3500061035156 C 52.05999755859375 491.3500061035156 49.15999603271484 491.3000183105469 46.65999603271484 491.2000122070312 C 46.61606979370117 491.20263671875 46.57211303710938 491.2039794921875 46.52821350097656 491.2039794921875 C 46.30170822143555 491.2039794921875 46.07632064819336 491.1689758300781 45.8599967956543 491.1000061035156 C 45.06705856323242 491.0194396972656 44.2912483215332 490.8170776367188 43.55999755859375 490.5 C 41.2599983215332 489.5 40.2599983215332 487.3000183105469 39.7599983215332 484.4000244140625 C 39.65999603271484 483.6000061035156 39.8599967956543 482.4000244140625 39.7599983215332 481.4000244140625 C 39.76805877685547 481.0433349609375 39.66305923461914 480.6932678222656 39.45999908447266 480.3999633789062 L 39.45999908447266 480.4000244140625 C 39.14860916137695 479.8955993652344 38.59940338134766 479.5930480957031 38.01387405395508 479.5930480957031 C 37.96277618408203 479.5930480957031 37.91151428222656 479.5953369140625 37.8599967956543 479.6000061035156 C 36.52644729614258 479.4721374511719 35.09601211547852 479.4243469238281 33.6073112487793 479.4243469238281 C 29.20438575744629 479.4243469238281 24.29058456420898 479.84228515625 19.86008071899414 479.8423156738281 C 17.58827209472656 479.8423156738281 15.4438591003418 479.7324523925781 13.55999755859375 479.4000244140625 C 5.659997463226318 478 0.2599972486495972 476 0.3599972426891327 466.3000183105469 C 0.8599972724914551 428.8000183105469 -1.00000274181366 393.1000061035156 0.8599972724914551 354 C 2.71999716758728 314.9000244140625 6.359997272491455 272.9000244140625 5.859997272491455 232.0000152587891 C 5.459997177124023 196.2000122070312 4.559997081756592 162.0000152587891 1.559997200965881 123.8000106811523 C 1.259997248649597 119.5000152587891 0.4599972665309906 122.7000122070312 0.3599972426891327 104.7000122070312 C 0.2599972486495972 86.70001220703125 -0.1400027424097061 38.5000114440918 0.5599972605705261 13.70001220703125 C 0.7599972486495972 6.20001220703125 4.759997367858887 0.1000122055411339 13.75999736785889 0.1000122055411339 C 22.42613410949707 0.066680908203125 31.59392166137695 0.05556787177920341 40.93036651611328 0.05556787177920341 C 59.6049690246582 0.05556787177920341 78.95946502685547 0.1000122055411339 96.36000061035156 0.1000122055411339 C 105.3600006103516 0.1000122055411339 109.3600006103516 6.300012111663818 109.5599975585938 13.70001220703125 C 110.2599945068359 38.30001068115234 109.7599945068359 87.10001373291016 109.7599945068359 104.6000137329102 C 109.7599945068359 122.1000137329102 108.8600006103516 119.2000122070312 108.5599975585938 123.1000137329102 C 102.2599945068359 202.1000061035156 102.5599975585938 277 109.8600006103516 354.7000122070312 C 109.4599990844727 391.3000183105469 110 429.8000183105469 109.4599990844727 466.2000122070312 C 109.3600006103516 475.6000061035156 104.4599990844727 478.2000122070312 96.36000061035156 479.4000244140625 C 94.42527008056641 479.680419921875 92.24637603759766 479.7721252441406 89.94984436035156 479.7721252441406 C 85.60874176025391 479.7721252441406 80.84483337402344 479.4444580078125 76.50869750976562 479.4444580078125 C 74.95779418945312 479.4444580078125 73.46285247802734 479.486328125 72.05999755859375 479.6000671386719 C 71.58437347412109 479.6236267089844 71.12880706787109 479.798828125 70.75999450683594 480.1000671386719 C 70.44318389892578 480.4692687988281 70.23543548583984 480.9193725585938 70.15999603271484 481.4000244140625 C 70.05999755859375 482.4000244140625 70.25999450683594 483.6000671386719 70.15999603271484 484.4000244140625 C 69.55999755859375 488.4000244140625 67.65999603271484 491 63.2599983215332 491.2000122070312 C 60.7599983215332 491.3000183105469 57.8599967956543 491.3500061035156 54.95999908447266 491.3500061035156 Z"/>
          </g>
        </g>
        <rect id="長方形_30" data-name="長方形 30" class="cls-4" width="7" height="247.2" transform="translate(51.96 528.1)"/>
        <path id="パス_41" data-name="パス 41" class="cls-5" d="M64.36,491l-.7,10.66h0l-.1,1h0l-.3,4.31v.05l-.1,1h0l-.29,4.25v.1l-.09.9v.1l-.29,4.3v.1l-.09.9v.1l-.29,4.3v.1l-.09.9v.1l-.3,5.2a1.45,1.45,0,0,1-1.5,1.4h-9.8a1.52,1.52,0,0,1-1.5-1.4l-.3-5.2v-.1l-.09-.9v-.1l-.29-4.3v-.1l-.09-.9v-.1l-.29-4.3v-.1l-.09-.9v-.1l-.29-4.25h0l-.1-1v-.05l-.3-4.31h0l-.1-1h0L46.16,491a1.42,1.42,0,0,1,1.5-1.5h15a1.4,1.4,0,0,1,1.7,1.5Z"/>
        <path id="パス_42" data-name="パス 42" class="cls-6" d="M63.66,501.66v.04l-.1,1v.04H46.96v-.04l-.1-1v-.04Z"/>
        <path id="パス_43" data-name="パス 43" class="cls-6" d="M63.26,507.05v.05l-.1,1v.05H47.36v-.05l-.1-1v-.05Z"/>
        <path id="パス_44" data-name="パス 44" class="cls-6" d="M62.87,512.4l-.01.1-.09.9H47.75l-.09-.9-.01-.1Z"/>
        <path id="パス_45" data-name="パス 45" class="cls-6" d="M62.47,517.8l-.01.1-.09.9H48.15l-.09-.9-.01-.1Z"/>
        <path id="パス_46" data-name="パス 46" class="cls-6" d="M62.07,523.2l-.01.1-.09.9H48.55l-.09-.9-.01-.1Z"/>
        <path id="パス_47" data-name="パス 47" class="cls-7" d="M70.06,484.4c-.6,4-2.5,6.6-6.9,6.8-5,.2-11.6.2-16.6,0a2.2,2.2,0,0,1-.8-.1h0a15.449,15.449,0,0,1-2.3-.6h0c-2.3-1-3.3-3.2-3.8-6.1-.1-.8.1-2,0-3a1.69,1.69,0,0,0-.3-1h0c0-.3.1-.6.1-.8h31.2c0,.2.1.4.1.6a2.62,2.62,0,0,0-.6,1.3C70,482.4,70.16,483.6,70.06,484.4Z"/>
        <g id="グループ化_44" data-name="グループ化 44" class="cls-8">
          <path id="パス_48" data-name="パス 48" class="cls-7" d="M70.06,484.4c-.6,4-2.5,6.6-6.9,6.8-5,.2-11.6.2-16.6,0a2.2,2.2,0,0,1-.8-.1h0a15.449,15.449,0,0,1-2.3-.6h0c-2.3-1-3.3-3.2-3.8-6.1-.1-.8.1-2,0-3a1.69,1.69,0,0,0-.3-1h0c0-.3.1-.6.1-.8h31.2c0,.2.1.4.1.6a2.62,2.62,0,0,0-.6,1.3C70,482.4,70.16,483.6,70.06,484.4Z"/>
        </g>
        <path id="パス_49" data-name="パス 49" class="cls-9" d="M20,134.6H90.1a19.28,19.28,0,0,0,19.45-19.1V50.1A19.28,19.28,0,0,0,90.1,31H20A19.28,19.28,0,0,0,.58,50.1v65.4A19.27,19.27,0,0,0,20,134.6Z"/>
        <g id="グループ化_45" data-name="グループ化 45" class="cls-10">
          <path id="パス_50" data-name="パス 50" class="cls-9" d="M20,134.6H90.1a19.28,19.28,0,0,0,19.45-19.1V50.1A19.28,19.28,0,0,0,90.1,31H20A19.28,19.28,0,0,0,.58,50.1v65.4A19.27,19.27,0,0,0,20,134.6Z"/>
        </g>
        <path id="パス_51" data-name="パス 51" class="cls-1" d="M13.26,109.4h83.6a12.93,12.93,0,0,0,12.9-12.9V12.9A12.93,12.93,0,0,0,96.86,0H13.26A12.93,12.93,0,0,0,.36,12.9V96.5a12.93,12.93,0,0,0,12.9,12.9Z"/>
        <g id="グループ化_46" data-name="グループ化 46" class="cls-10">
          <g id="パス_52" data-name="パス 52" class="cls-3">
            <path class="cls-13" d="M13.26,109.4h83.6a12.93,12.93,0,0,0,12.9-12.9V12.9A12.93,12.93,0,0,0,96.86,0H13.26A12.93,12.93,0,0,0,.36,12.9V96.5a12.93,12.93,0,0,0,12.9,12.9Z"/>
            <path class="cls-15" d="M 96.85536956787109 107.4000015258789 C 99.76531219482422 107.3932647705078 102.5010757446289 106.2563552856445 104.558708190918 104.1987075805664 C 106.6163558959961 102.1410751342773 107.7532653808594 99.40531158447266 107.7600021362305 96.5 L 107.7600021362305 12.90463161468506 C 107.7532653808594 9.994692802429199 106.6163558959961 7.258924007415771 104.558708190918 5.201292991638184 C 102.5010757446289 3.143646955490112 99.76531219482422 2.006739139556885 96.86000061035156 2.000000715255737 L 13.26463222503662 2.000000715255737 C 10.35469341278076 2.006739139556885 7.618924617767334 3.143646955490112 5.561293601989746 5.201292991638184 C 3.503647565841675 7.258924007415771 2.366739749908447 9.994692802429199 2.3600013256073 12.90000057220459 L 2.3600013256073 96.49536895751953 C 2.366739749908447 99.40531158447266 3.503647565841675 102.1410751342773 5.561293601989746 104.1987075805664 C 7.618924617767334 106.2563552856445 10.35469341278076 107.3932647705078 13.26000118255615 107.4000015258789 L 96.85536956787109 107.4000015258789 M 96.86000061035156 109.4000015258789 L 13.26000118255615 109.4000015258789 C 6.142370700836182 109.3835067749023 0.3764936923980713 103.6176300048828 0.3600013852119446 96.5 L 0.3600013852119446 12.90000057220459 C 0.3764936923980713 5.782370090484619 6.142370700836182 0.01649307087063789 13.26000118255615 7.629394644936838e-07 L 96.86000061035156 7.629394644936838e-07 C 103.9776306152344 0.01649307087063789 109.7435073852539 5.782370090484619 109.7600021362305 12.90000057220459 L 109.7600021362305 96.5 C 109.7435073852539 103.6176300048828 103.9776306152344 109.3835067749023 96.86000061035156 109.4000015258789 Z"/>
          </g>
        </g>
        <circle id="楕円形_15" data-name="楕円形 15" class="cls-7" cx="40.5" cy="40.5" r="40.5" transform="translate(14.56 14.2)"/>
        <g id="グループ化_47" data-name="グループ化 47" class="cls-10">
          <circle id="楕円形_16" data-name="楕円形 16" cx="40.5" cy="40.5" r="40.5" transform="translate(14.56 14.2)"/>
        </g>
        <rect id="長方形_31" data-name="長方形 31" class="cls-11" width="12.4" height="6.5" transform="translate(41.11 31.5)"/>
        <rect id="長方形_32" data-name="長方形 32" class="cls-11" width="12.4" height="6.5" transform="translate(41.11 41.5)"/>
        <rect id="長方形_33" data-name="長方形 33" class="cls-11" width="12.4" height="6.5" transform="translate(41.11 51.4)"/>
        <rect id="長方形_34" data-name="長方形 34" class="cls-11" width="12.4" height="6.5" transform="translate(41.11 61.4)"/>
        <rect id="長方形_35" data-name="長方形 35" class="cls-11" width="12.4" height="6.5" transform="translate(41.11 71.4)"/>
        <rect id="長方形_36" data-name="長方形 36" class="cls-11" width="12.4" height="6.5" transform="translate(56.61 31.5)"/>
        <rect id="長方形_37" data-name="長方形 37" class="cls-11" width="12.4" height="6.5" transform="translate(56.61 41.5)"/>
        <rect id="長方形_38" data-name="長方形 38" class="cls-11" width="12.4" height="6.5" transform="translate(56.61 51.4)"/>
        <rect id="長方形_39" data-name="長方形 39" class="cls-11" width="12.4" height="6.5" transform="translate(56.61 61.4)"/>
        <rect id="長方形_40" data-name="長方形 40" class="cls-11" width="12.4" height="6.5" transform="translate(56.61 71.4)"/>
        <g id="グループ化_48" data-name="グループ化 48" class="cls-10">
          <rect id="長方形_41" data-name="長方形 41" width="12.4" height="6.5" transform="translate(41.11 31.5)"/>
          <rect id="長方形_42" data-name="長方形 42" width="12.4" height="6.5" transform="translate(41.11 41.5)"/>
          <rect id="長方形_43" data-name="長方形 43" width="12.4" height="6.5" transform="translate(41.11 51.4)"/>
          <rect id="長方形_44" data-name="長方形 44" width="12.4" height="6.5" transform="translate(41.11 61.4)"/>
          <rect id="長方形_45" data-name="長方形 45" width="12.4" height="6.5" transform="translate(41.11 71.4)"/>
          <rect id="長方形_46" data-name="長方形 46" width="12.4" height="6.5" transform="translate(56.61 31.5)"/>
          <rect id="長方形_47" data-name="長方形 47" width="12.4" height="6.5" transform="translate(56.61 41.5)"/>
          <rect id="長方形_48" data-name="長方形 48" width="12.4" height="6.5" transform="translate(56.61 51.4)"/>
          <rect id="長方形_49" data-name="長方形 49" width="12.4" height="6.5" transform="translate(56.61 61.4)"/>
          <rect id="長方形_50" data-name="長方形 50" width="12.4" height="6.5" transform="translate(56.61 71.4)"/>
        </g>
        <path id="パス_53" data-name="パス 53" class="cls-9" d="M90.1,344.6H20A19.28,19.28,0,0,0,.58,363.7v65.4A19.27,19.27,0,0,0,20,448.2H90.1a19.28,19.28,0,0,0,19.45-19.1V363.7A19.21,19.21,0,0,0,90.1,344.6Z"/>
        <g id="グループ化_49" data-name="グループ化 49" class="cls-10">
          <path id="パス_54" data-name="パス 54" class="cls-9" d="M90.1,344.6H20A19.28,19.28,0,0,0,.58,363.7v65.4A19.27,19.27,0,0,0,20,448.2H90.1a19.28,19.28,0,0,0,19.45-19.1V363.7A19.21,19.21,0,0,0,90.1,344.6Z"/>
        </g>
        <path id="パス_55" data-name="パス 55" class="cls-1" d="M96.86,369.8H13.26A12.93,12.93,0,0,0,.36,382.7v83.6a12.93,12.93,0,0,0,12.9,12.9h83.6a12.93,12.93,0,0,0,12.9-12.9V382.7a12.87,12.87,0,0,0-12.9-12.9Z"/>
        <g id="グループ化_50" data-name="グループ化 50" class="cls-10">
          <g id="パス_56" data-name="パス 56" class="cls-3">
            <path class="cls-13" d="M96.86,369.8H13.26A12.93,12.93,0,0,0,.36,382.7v83.6a12.93,12.93,0,0,0,12.9,12.9h83.6a12.93,12.93,0,0,0,12.9-12.9V382.7a12.87,12.87,0,0,0-12.9-12.9Z"/>
            <path class="cls-15" d="M 96.8900146484375 371.7999572753906 L 96.89007568359375 371.7999572753906 L 96.86600494384766 371.7999572753906 L 96.86300659179688 371.7999877929688 L 96.86000061035156 371.7999877929688 L 13.26461791992188 371.7999877929688 C 10.35468292236328 371.8067016601562 7.618911743164062 372.943603515625 5.561264038085938 375.0012512207031 C 3.503631591796875 377.0588989257812 2.366729736328125 379.7947082519531 2.360000610351562 382.7000122070312 L 2.360000610351562 466.2953796386719 C 2.366744995117188 469.205322265625 3.503631591796875 471.9410705566406 5.561279296875 473.9986877441406 C 7.618927001953125 476.0563354492188 10.35469818115234 477.1932373046875 13.26000213623047 477.1999816894531 L 96.85535430908203 477.2000122070312 C 99.76529693603516 477.1932678222656 102.5010681152344 476.0563659667969 104.558708190918 473.9986877441406 C 106.6163558959961 471.9410400390625 107.7532501220703 469.2052612304688 107.7599868774414 466.2999572753906 L 107.7600021362305 382.6953430175781 C 107.7633743286133 381.2562561035156 107.4866333007812 379.8521118164062 106.9374618530273 378.5219116210938 C 106.388298034668 377.1917114257812 105.593879699707 376.0012817382812 104.5762939453125 374.9837036132812 C 103.5618667602539 373.96923828125 102.3753128051758 373.1764831542969 101.0496215820312 372.6274108886719 C 99.72409820556641 372.0784301757812 98.32460021972656 371.8000183105469 96.8900146484375 371.7999572753906 M 96.89012145996094 369.7999572753906 C 100.3027877807617 369.8001098632812 103.5767974853516 371.15576171875 105.9905090332031 373.5694885253906 C 108.4114608764648 375.9904479980469 109.7680053710938 379.2762756347656 109.7600021362305 382.7000122070312 L 109.7599868774414 466.2999572753906 C 109.7435073852539 473.4176025390625 103.9776306152344 479.1835021972656 96.86000061035156 479.2000122070312 L 13.26000213623047 479.1999816894531 C 6.142356872558594 479.1835021972656 0.3764801025390625 473.4176025390625 0.3600006103515625 466.3000183105469 L 0.3600006103515625 382.7000122070312 C 0.37646484375 375.5823669433594 6.142341613769531 369.8164367675781 13.26000213623047 369.7999877929688 L 96.86000061035156 369.7999877929688 C 96.8702392578125 369.7999572753906 96.8798828125 369.7999572753906 96.89012145996094 369.7999572753906 Z"/>
          </g>
        </g>
        <circle id="楕円形_17" data-name="楕円形 17" class="cls-7" cx="40.5" cy="40.5" r="40.5" transform="translate(14.56 383.9)"/>
        <g id="グループ化_51" data-name="グループ化 51" class="cls-10">
          <circle id="楕円形_18" data-name="楕円形 18" cx="40.5" cy="40.5" r="40.5" transform="translate(14.56 383.9)"/>
        </g>
        <rect id="長方形_51" data-name="長方形 51" class="cls-11" width="12.4" height="6.5" transform="translate(56.61 441.1)"/>
        <rect id="長方形_52" data-name="長方形 52" class="cls-11" width="12.4" height="6.5" transform="translate(56.61 431.2)"/>
        <rect id="長方形_53" data-name="長方形 53" class="cls-11" width="12.4" height="6.5" transform="translate(56.61 421.2)"/>
        <rect id="長方形_54" data-name="長方形 54" class="cls-11" width="12.4" height="6.5" transform="translate(56.61 411.2)"/>
        <rect id="長方形_55" data-name="長方形 55" class="cls-11" width="12.4" height="6.5" transform="translate(56.61 401.2)"/>
        <rect id="長方形_56" data-name="長方形 56" class="cls-11" width="12.4" height="6.5" transform="translate(41.11 441.1)"/>
        <rect id="長方形_57" data-name="長方形 57" class="cls-11" width="12.4" height="6.5" transform="translate(41.11 431.2)"/>
        <rect id="長方形_58" data-name="長方形 58" class="cls-11" width="12.4" height="6.5" transform="translate(41.11 421.2)"/>
        <rect id="長方形_59" data-name="長方形 59" class="cls-11" width="12.4" height="6.5" transform="translate(41.11 411.2)"/>
        <rect id="長方形_60" data-name="長方形 60" class="cls-11" width="12.4" height="6.5" transform="translate(41.11 401.2)"/>
        <g id="グループ化_52" data-name="グループ化 52" class="cls-10">
          <rect id="長方形_61" data-name="長方形 61" width="12.4" height="6.5" transform="translate(56.61 441.1)"/>
          <rect id="長方形_62" data-name="長方形 62" width="12.4" height="6.5" transform="translate(56.61 431.2)"/>
          <rect id="長方形_63" data-name="長方形 63" width="12.4" height="6.5" transform="translate(56.61 421.2)"/>
          <rect id="長方形_64" data-name="長方形 64" width="12.4" height="6.5" transform="translate(56.61 411.2)"/>
          <rect id="長方形_65" data-name="長方形 65" width="12.4" height="6.5" transform="translate(56.61 401.2)"/>
          <rect id="長方形_66" data-name="長方形 66" width="12.4" height="6.5" transform="translate(41.11 441.1)"/>
          <rect id="長方形_67" data-name="長方形 67" width="12.4" height="6.5" transform="translate(41.11 431.2)"/>
          <rect id="長方形_68" data-name="長方形 68" width="12.4" height="6.5" transform="translate(41.11 421.2)"/>
          <rect id="長方形_69" data-name="長方形 69" width="12.4" height="6.5" transform="translate(41.11 411.2)"/>
          <rect id="長方形_70" data-name="長方形 70" width="12.4" height="6.5" transform="translate(41.11 401.2)"/>
        </g>
        <path id="パス_57" data-name="パス 57" class="cls-11" d="M23.86,183.8H82a3.69,3.69,0,0,0,3.7-3.7V157.3a3.69,3.69,0,0,0-3.7-3.7H23.86a3.69,3.69,0,0,0-3.7,3.7V180a3.78,3.78,0,0,0,3.7,3.8Z"/>
        <path id="パス_114" data-name="パス 114" class="cls-12" d="M3.5-6.76a6.652,6.652,0,0,1-.71-1.25H.62A11.16,11.16,0,0,1,.7-6.52v5.26A10.323,10.323,0,0,1,.62.31H2.75a10.951,10.951,0,0,1-.08-1.56V-3.49A14.316,14.316,0,0,0,2.6-4.98a11.836,11.836,0,0,0,.72,1.23L5.17-.96A10.789,10.789,0,0,1,5.92.31H8.11a12.248,12.248,0,0,1-.08-1.49V-6.49a10.876,10.876,0,0,1,.08-1.52H5.98a10.876,10.876,0,0,1,.08,1.52v2.28c0,.56.02,1.02.06,1.48A13.454,13.454,0,0,0,5.4-3.92ZM17.23-.08a7.811,7.811,0,0,1-.64-.53l-.36-.35a4.395,4.395,0,0,0,.96-2.92c0-2.63-1.57-4.31-4.01-4.31-2.48,0-4.07,1.7-4.07,4.34S10.69.5,13.17.5A3.606,3.606,0,0,0,15.06.04a11.8,11.8,0,0,1,1.05,1.08ZM12.9-1.96c.28.22.46.38.77.66a1.418,1.418,0,0,1-.52.09,1.735,1.735,0,0,1-1.26-.51,3.009,3.009,0,0,1-.71-2.18c0-1.59.75-2.57,1.97-2.57s1.98.99,1.98,2.62a3.013,3.013,0,0,1-.32,1.54,7.913,7.913,0,0,1-.77-.77ZM26.4.31a8.814,8.814,0,0,1,.25-1.09l1.6-5.99c.13-.5.27-.97.37-1.24H26.35a5.506,5.506,0,0,1-.15,1.1l-.63,2.98c-.04.16-.11.64-.14.86-.06.42-.06.42-.08.61-.13-.81-.2-1.14-.28-1.46L24.26-7a8.475,8.475,0,0,1-.23-1.01H22.25a8.6,8.6,0,0,1-.22,1.04l-.8,3.1c-.06.21-.13.57-.28,1.41-.12-.79-.19-1.26-.22-1.41l-.64-3.04a6.623,6.623,0,0,1-.14-1.1H17.67c.1.27.24.73.38,1.24l1.6,6c.15.58.2.79.25,1.08h1.99a7.423,7.423,0,0,1,.22-1.06l.74-2.95c.12-.47.24-1.1.3-1.51.1.66.18,1.12.28,1.51l.76,2.94A9.091,9.091,0,0,1,24.4.31Zm2.71-2.22a5.982,5.982,0,0,1,.97-.07h1.98a5.982,5.982,0,0,1,.97.07v-1.9a5.737,5.737,0,0,1-.97.07H30.08a5.737,5.737,0,0,1-.97-.07ZM38.92.31c.71,0,1.13.02,1.71.07V-1.51a12.664,12.664,0,0,1-1.6.07H36.7a4.093,4.093,0,0,1,1.47-1.39A13.412,13.412,0,0,0,39.62-3.9a2.318,2.318,0,0,0,.92-1.86,2.154,2.154,0,0,0-.33-1.17,3.214,3.214,0,0,0-2.88-1.26,3.338,3.338,0,0,0-2.65,1.03,3.257,3.257,0,0,0-.73,1.78l2.1.22A1.778,1.778,0,0,1,36.3-6a1.135,1.135,0,0,1,1.04-.5c.64,0,1.07.32,1.07.8,0,.46-.21.72-1.07,1.3a14.02,14.02,0,0,0-1.78,1.33A5.141,5.141,0,0,0,34.12-.83,4.977,4.977,0,0,0,33.91.35c.37-.03.6-.04,1.5-.04ZM48.31-6.2a3.23,3.23,0,0,0-.67-1.12A3.144,3.144,0,0,0,45.3-8.2a3.233,3.233,0,0,0-2.82,1.34,5.6,5.6,0,0,0-.83,3.15A4.727,4.727,0,0,0,42.67-.49,3.23,3.23,0,0,0,45.17.52c1.97,0,3.33-1.21,3.33-2.94a2.678,2.678,0,0,0-2.95-2.8,3.037,3.037,0,0,0-1.33.26,1.8,1.8,0,0,0-.63.45,3.419,3.419,0,0,1,.29-1.24,1.4,1.4,0,0,1,1.34-.86,1.043,1.043,0,0,1,1.13.83ZM45.19-3.63a1.213,1.213,0,0,1,1.38,1.24A1.3,1.3,0,0,1,45.15-1.1a1.291,1.291,0,0,1-1.39-1.27A1.264,1.264,0,0,1,45.19-3.63Zm5.14-2.6a10.576,10.576,0,0,1,1.22-.07h.4v5.1A11.476,11.476,0,0,1,51.87.31h2.18a11.574,11.574,0,0,1-.08-1.51V-6.44a15.525,15.525,0,0,1,.07-1.61,9.919,9.919,0,0,1-1.24.04H51.53a6.518,6.518,0,0,1-1.2-.07Z" transform="translate(26.17 169.46)"/>
        <path id="パス_115" data-name="パス 115" class="cls-12" d="M3,.155A4.539,4.539,0,0,1,3.215-.58L3.7-1.95c.065-.18.115-.36.225-.75-.005.075-.005.075-.02.34-.01.155-.025.53-.025.65V-.62a5.443,5.443,0,0,1-.04.775h.985a4.972,4.972,0,0,1-.04-.775v-2.6a5.8,5.8,0,0,1,.04-.78H3.5a3.442,3.442,0,0,1-.185.7L2.57-1.145,1.82-3.3a3.7,3.7,0,0,1-.19-.7H.31a6.9,6.9,0,0,1,.04.78v2.6A5.533,5.533,0,0,1,.31.155H1.3a5.354,5.354,0,0,1-.04-.775V-1.7c0-.265-.02-.675-.05-.99.025.07.025.07.08.25.015.04.165.5.17.53l.46,1.33a3.9,3.9,0,0,1,.215.74Zm6.455,0c-.065-.14-.145-.345-.24-.61L8.13-3.465a3.99,3.99,0,0,1-.17-.54H6.655a3.052,3.052,0,0,1-.16.54L5.415-.455a4.926,4.926,0,0,1-.24.61h1.17a2.881,2.881,0,0,1,.125-.54L6.605-.81H8.03l.135.425a4.06,4.06,0,0,1,.12.54ZM7.785-1.65h-.94l.465-1.5ZM9.845-.56A4.772,4.772,0,0,1,9.8.17c.21-.01.35-.015.735-.015h1.055A1.929,1.929,0,0,0,13-.345a2.207,2.207,0,0,0,.58-1.615,2.1,2.1,0,0,0-.55-1.55,2.017,2.017,0,0,0-1.445-.495H10.54c-.415,0-.54,0-.74-.015a4.3,4.3,0,0,1,.045.735Zm.99-.16V-3.13h.655a1.021,1.021,0,0,1,.775.255,1.272,1.272,0,0,1,.29.93,1.352,1.352,0,0,1-.315.96A.968.968,0,0,1,11.5-.72Zm6.38-.025A6.769,6.769,0,0,1,16.4-.71H15.11v-.84h1.08a6.175,6.175,0,0,1,.75.035V-2.44a5.992,5.992,0,0,1-.75.035H15.11V-3.14h1.3a6.14,6.14,0,0,1,.745.035V-4.04a6.14,6.14,0,0,1-.745.035H14.815c-.39,0-.53,0-.735-.015a5.3,5.3,0,0,1,.04.73V-.56a4.608,4.608,0,0,1-.04.73c.215-.01.355-.015.735-.015H16.39a6.423,6.423,0,0,1,.825.035Zm2.175-3.26a4.67,4.67,0,0,1,.04.74v2.68a4.792,4.792,0,0,1-.04.74h1.1a4.833,4.833,0,0,1-.04-.74v-2.68a4.63,4.63,0,0,1,.04-.74Zm3.16.625a3.326,3.326,0,0,1-.355-.625H21.11a5.58,5.58,0,0,1,.04.745V-.63a5.161,5.161,0,0,1-.04.785h1.065a5.475,5.475,0,0,1-.04-.78v-1.12A7.158,7.158,0,0,0,22.1-2.49a5.918,5.918,0,0,0,.36.615L23.385-.48a5.394,5.394,0,0,1,.375.635h1.1a6.124,6.124,0,0,1-.04-.745V-3.245a5.438,5.438,0,0,1,.04-.76H23.79a5.438,5.438,0,0,1,.04.76v1.14c0,.28.01.51.03.74a6.727,6.727,0,0,0-.36-.595Zm6.31-.625a5.37,5.37,0,0,1,.04.81v2.08c0,.345-.155.51-.49.51s-.47-.14-.575-.53L26.86-.8a1.58,1.58,0,0,0,.33.585A1.577,1.577,0,0,0,28.425.25a1.583,1.583,0,0,0,1.15-.405,1.285,1.285,0,0,0,.345-.96V-3.2a4.569,4.569,0,0,1,.04-.805ZM34.585.155c-.065-.14-.145-.345-.24-.61L33.26-3.465a3.99,3.99,0,0,1-.17-.54H31.785a3.052,3.052,0,0,1-.16.54l-1.08,3.01a4.926,4.926,0,0,1-.24.61h1.17a2.881,2.881,0,0,1,.125-.54l.135-.425H33.16l.135.425a4.061,4.061,0,0,1,.12.54ZM32.915-1.65h-.94l.465-1.5ZM36,.155a6.492,6.492,0,0,1-.04-.755v-.64h.79a1.36,1.36,0,0,0,1.54-1.42c0-.87-.545-1.345-1.535-1.345H35.665c-.32,0-.5,0-.735-.015a5.59,5.59,0,0,1,.04.73v2.7a5.361,5.361,0,0,1-.04.74Zm-.04-2.245V-3.155h.745a.484.484,0,0,1,.555.525.5.5,0,0,1-.555.54ZM42.15.155c-.065-.14-.145-.345-.24-.61l-1.085-3.01a3.99,3.99,0,0,1-.17-.54H39.35a3.052,3.052,0,0,1-.16.54L38.11-.455a4.926,4.926,0,0,1-.24.61h1.17a2.881,2.881,0,0,1,.125-.54L39.3-.81h1.425l.135.425a4.061,4.061,0,0,1,.12.54ZM40.48-1.65h-.94L40-3.15Zm3.455-1.73a3.326,3.326,0,0,1-.355-.625H42.5a5.58,5.58,0,0,1,.04.745V-.63a5.162,5.162,0,0,1-.04.785H43.56a5.476,5.476,0,0,1-.04-.78v-1.12a7.158,7.158,0,0,0-.035-.745,5.918,5.918,0,0,0,.36.615L44.77-.48a5.394,5.394,0,0,1,.375.635h1.1A6.124,6.124,0,0,1,46.2-.59V-3.245a5.438,5.438,0,0,1,.04-.76H45.175a5.438,5.438,0,0,1,.04.76v1.14c0,.28.01.51.03.74a6.728,6.728,0,0,0-.36-.595Z" transform="translate(29.68 178.16)"/>
      </g>
    </g>
  </g>
</svg>
