<svg xmlns="http://www.w3.org/2000/svg" viewBox="0 0 800 800"><defs><style>.cls-1{fill:#a3d9ff;}.cls-2{fill:#6e9cff;}.cls-3{fill:#fafeff;}.cls-11,.cls-15,.cls-25,.cls-3,.cls-6,.cls-8{stroke:#000;}.cls-10,.cls-11,.cls-12,.cls-13,.cls-16,.cls-24,.cls-25,.cls-27,.cls-28,.cls-3,.cls-4,.cls-5,.cls-6,.cls-7,.cls-8,.cls-9{stroke-linecap:round;}.cls-10,.cls-11,.cls-12,.cls-13,.cls-15,.cls-16,.cls-18,.cls-24,.cls-25,.cls-27,.cls-28,.cls-3,.cls-4,.cls-5,.cls-6,.cls-7,.cls-8,.cls-9{stroke-linejoin:round;}.cls-10,.cls-11,.cls-12,.cls-13,.cls-15,.cls-16,.cls-18,.cls-24,.cls-25,.cls-27,.cls-28,.cls-3,.cls-4,.cls-5,.cls-6,.cls-8,.cls-9{stroke-width:2px;}.cls-4{fill:#4a4a4f;}.cls-10,.cls-12,.cls-13,.cls-16,.cls-18,.cls-24,.cls-27,.cls-28,.cls-4,.cls-5,.cls-9{stroke:#1a1a1a;}.cls-5{fill:#fff899;}.cls-6{fill:#f2fcff;}.cls-11,.cls-16,.cls-18,.cls-7{fill:none;}.cls-7{stroke:#4a4a4f;stroke-width:4px;}.cls-8{fill:#ebfbff;}.cls-9{fill:#9cd9ff;}.cls-10{fill:#ffe8bf;}.cls-12,.cls-19{fill:#fff;}.cls-13,.cls-14{fill:#ff6352;}.cls-15,.cls-17{fill:#272833;}.cls-20{fill:#181921;}.cls-21,.cls-25,.cls-27{fill:#fff873;}.cls-22{fill:#102c4f;}.cls-23{fill:#ff8a70;}.cls-26{fill:#0f9c00;}.cls-28{fill:#bfbfcc;}</style></defs><title>アートボード 1</title><g id="background"><rect class="cls-1" width="800" height="800"/></g><g id="on_board" data-name="on board"><rect class="cls-2" y="582.03" width="800" height="217.97"/><path class="cls-3" d="M713.58,362.74c9.71.31,16.07,6.26,23.53,7.93,9.29,2.1,27.67,3.29,31.75,3.29,0,7.66-8.49,36-9.85,44.9-13.33-6.57-34-16.43-51.47-7Z"/><polygon class="cls-4" points="661.54 394.77 581.6 387.1 600.39 307.44 604.6 289.64 613.36 267.73 619.63 255.19 621.02 177.93 624.31 176.84 629.78 177.93 629.78 253.5 636.35 267.73 649.5 272.11 653.12 308.98 661.54 394.77"/><polygon class="cls-5" points="661.54 394.77 581.6 387.1 600.39 307.44 633.07 304.97 653.12 308.98 661.54 394.77"/><polygon class="cls-6" points="478.66 476.9 656.07 483.47 670.3 391.48 481.94 381.63 478.66 476.9"/><polygon class="cls-5" points="322.06 64.04 364.76 57.47 391.05 55.28 442.52 53.09 442.52 65.14 388.86 77.18 388.86 196.55 371.33 197.65 371.33 77.18 322.06 72.8 322.06 64.04"/><polyline class="cls-7" points="566.27 215.17 575.06 223.99 566.35 232.7 576.11 242.81 561.47 251.52 576.8 261.28 558.33 270.69 578.31 280.88 554.15 290.21 580.5 304.97 548.75 314.82 572.83 196.43 583.79 322.49"/><polygon class="cls-6" points="596.93 485.66 617.74 315.92 555.32 308.25 561.89 260.07 475.37 245.83 480.85 199.84 439.23 186.69 330.82 467.05 596.93 485.66"/><path class="cls-6" d="M439.23,186.69c-23-2.19-192.74,14.24-213.55,16.43l8.77,232.17,151.12,9.85,49.28-194.93L462.23,248l3.29-31.76-30.67,3.29Z"/><polygon class="cls-7" points="549.84 196.55 599.12 193.26 576.12 215.17 566.27 215.17 549.84 196.55"/><polygon class="cls-8" points="465.52 216.26 496.18 225.02 492.89 254.59 475.37 254.59 434.85 250.21 462.23 248.02 465.52 216.26"/><polygon class="cls-4" points="692.21 472.52 708.63 358.63 715.2 358.63 704.25 471.43 692.21 472.52"/><polygon class="cls-5" points="108.48 387.19 97.56 192.17 86.61 193.26 89.18 383.79 108.48 387.19"/><path class="cls-6" d="M368.05,447.33c2.19-2.19,30.66-113.89,30.66-113.89L510.42,351l-12.05,64.61,119.37,11L609,486.76,365.1,468.06Z"/><polygon class="cls-4" points="298.38 226.53 284.38 227.71 282.97 212.38 297.44 211.19 298.38 226.53"/><polygon class="cls-4" points="318.77 209.64 318.77 225.02 304.95 226.17 304.01 210.84 318.77 209.64"/><polygon class="cls-4" points="339.58 208.12 339.58 223.47 325.34 224.66 325.34 209.28 339.58 208.12"/><polygon class="cls-9" points="360.38 206.6 360.38 221.93 346.15 223.11 346.15 207.76 360.38 206.6"/><polygon class="cls-9" points="381.55 205.06 380.99 220.38 366.95 221.55 366.95 206.24 381.55 205.06"/><path class="cls-10" d="M187.36,324.68c-17.53-10.95-28.48-20.81-31.4-26.85-.57-4.34-2.1-11.78-8.89-10.94s-19.87.19-22.14,8.22-5.48,10.36-1.09,18.62,7.67,6.79,17.52,12c8.31,4.44,31.79,24.52,35,24.1S187.36,324.68,187.36,324.68Z"/><polygon class="cls-9" points="406.53 203.2 405.28 218.54 387.59 220.02 388.14 204.7 406.53 203.2"/><path class="cls-11" d="M398.71,333.44c-49.28-1.09-123.75,1.1-142.36,4.38"/><path class="cls-12" d="M200.5,372.86c-4.38-3.28-37.24-23-39.43-24.09,4.38-6.57,16.43-27.38,18.62-32.85,9.86,2.19,27.93,16.67,36.42,18.74s33.67,29.44,33.67,29.44Z"/><path class="cls-12" d="M201.59,360.82c-3.28,6.57-6.57,21.9-6.57,26.28s51.47,17.52,51.47,17.52l6.57-43.8"/><path class="cls-12" d="M340.67,429.81c2.19-18.62,4.11-82.3-9.85-101.85C305.9,341.27,255,353.57,245.26,356.1c-4.24,4.72-5.09,4.47-7.53,14.57C235,382,234,408.52,234,414S340.67,429.81,340.67,429.81Z"/><path class="cls-6" d="M716.3,506.47c-6,12.87-20.73,43.85-33.16,61.95-3.44,5-6.7,9.05-9.55,11.42-13.14,10.95-15.33,26.29-47.09,27.38S275,616,242.11,616s-43.8,17.52-53.66-11c-4.8-13.86-13.5-32.15-22.42-49.93-9.4-18.7-19.05-36.84-24.67-48.63-11-23-44.9-82.13-48.18-87.61-12.06-20.1-30.67-36.14-23-42.71s50.11-4.65,92,0c39.42,4.38,64.61,8.76,67.9,12.05a39.25,39.25,0,0,1,7.66,10.95c46,5.47,132.51,32.85,158.79,37.23,20.78,3.46,54.76,5.48,54.76,5.48L448,458.28s48.19,6.57,86.52,7.67,144.55,1.1,163.17,0,24.09-3.29,26.28,3.29S724,490,716.3,506.47Z"/><path class="cls-13" d="M683.14,568.42c-3.44,5-6.7,9.05-9.55,11.42-13.14,10.95-15.33,26.29-47.09,27.38S275,616,242.11,616s-43.8,17.52-53.66-11c-4.8-13.86-13.5-32.15-22.42-49.93,6.14,2,14.31,3.11,27.9,3.94C226.54,561,595.36,566.56,683.14,568.42Z"/><polygon class="cls-4" points="318.77 237.03 318.77 251.59 313.47 251.78 304.64 252.09 304.02 238.04 318.77 237.03"/><polygon class="cls-4" points="339.58 235.72 339.58 250.76 325.34 251.36 325.34 236.72 339.58 235.72"/><polygon class="cls-9" points="360.38 234.43 360.38 249.97 346.15 250.57 346.15 235.42 360.38 234.43"/><polygon class="cls-9" points="381.46 233.12 381.04 249.19 381.03 249.19 366.95 249.78 366.95 234.12 381.46 233.12"/><polygon class="cls-9" points="404.4 231.67 403.03 248.35 401.4 248.42 401.35 248.42 387.63 249 388.06 232.81 404.4 231.67"/><polygon class="cls-9" points="398.77 392.03 481.84 400.48 476.47 430.91 391.05 422.14 398.77 392.03"/><polygon class="cls-9" points="488.51 363.01 483.96 387.06 402.07 378.19 407.47 352.06 488.51 363.01"/><polygon class="cls-9" points="495.08 425.43 528.57 428.04 524.67 454.02 489.61 451.71 495.08 425.43"/><polygon class="cls-9" points="536.2 428.46 569.88 431.08 566.45 456.62 532.31 454.38 536.2 428.46"/><polygon class="cls-9" points="604.53 433.61 600.26 458.7 574.1 456.98 577.51 431.51 604.53 433.61"/><polygon class="cls-9" points="551.37 346.58 570.12 348.81 567.49 366.67 548.75 364.1 551.37 346.58"/><polygon class="cls-9" points="574 322.38 571.56 339.05 552.84 336.82 555.32 320.3 574 322.38"/><polygon class="cls-9" points="579.91 349.97 600.06 352.35 596.93 370.68 577.27 367.99 579.91 349.97"/><polygon class="cls-9" points="604.6 325.77 601.72 342.62 581.35 340.21 583.81 323.46 604.6 325.77"/><polygon class="cls-9" points="481.94 265.54 497.19 267.95 494.94 283.27 479.75 280.88 481.94 265.54"/><polygon class="cls-9" points="505.83 268.97 522.8 271.65 520.63 286.99 503.58 284.29 505.83 268.97"/><polygon class="cls-9" points="548.75 275.4 546.55 290.73 528.23 287.84 530.4 272.51 548.75 275.4"/><path class="cls-13" d="M443,304.47c0-1.14,6.81-15.93,6.81-15.93l46.51,8,2.27,22.76Z"/><path class="cls-6" d="M431.85,302c-7.28,0,3.25,20.13,6.14,24.87s43.46,10.85,50.69,9.67S506,323.35,506,321s1-5.1-4.94-7.81C495.78,310.78,443,302,431.85,302Z"/><path class="cls-13" d="M533.09,386c-.05-1,5.33-14.36,5.33-14.36l41.53,5,3,20Z"/><path class="cls-6" d="M523.14,384.29c-6.45.31,3.74,17.63,6.51,21.69s39,7.69,45.3,6.34,14.74-12.43,14.64-14.52.65-4.54-4.72-6.68C580.12,389.23,533,383.81,523.14,384.29Z"/><circle class="cls-14" cx="737.11" cy="389.29" r="9.86"/><circle class="cls-4" cx="214.73" cy="446.24" r="14.24"/><rect class="cls-4" x="212.25" y="441.87" width="7.67" height="41.78" rx="3.12" ry="3.12" transform="translate(-35.83 18.49) rotate(-4.52)"/><path class="cls-4" d="M194.67,454.09l11.15,11.84,4.26,14.77a7.14,7.14,0,0,0,7.14,4h0a7.06,7.06,0,0,0,6.57-5.06L227,465.47l8.59-13.5,1.75,29.84,4.61,5.29.32,7.08s-12.47-3-24.18-2.21c-10,.68-18.48,5.19-21.66,6.25l-1.29-6.07,4.13-5.74Z"/><circle class="cls-4" cx="329.22" cy="444.35" r="3.29"/><circle class="cls-4" cx="352.83" cy="447.66" r="3.29"/><circle class="cls-4" cx="376.43" cy="450.96" r="3.29"/><circle class="cls-4" cx="400.04" cy="454.27" r="3.29"/><circle class="cls-4" cx="423.65" cy="457.57" r="3.29"/><circle class="cls-4" cx="383.31" cy="489.68" r="3.29"/><circle class="cls-4" cx="401.99" cy="530.85" r="3.29"/><circle class="cls-4" cx="432.58" cy="532.14" r="3.29"/><circle class="cls-4" cx="463.17" cy="533.43" r="3.29"/><circle class="cls-4" cx="493.76" cy="534.71" r="3.29"/><circle class="cls-4" cx="524.35" cy="536" r="3.29"/><circle class="cls-4" cx="589.98" cy="537.37" r="3.29"/><circle class="cls-4" cx="579.68" cy="498" r="3.29"/><circle class="cls-4" cx="608.27" cy="498.8" r="3.29"/><circle class="cls-4" cx="636.86" cy="499.6" r="3.29"/><circle class="cls-4" cx="665.44" cy="500.4" r="3.29"/><circle class="cls-4" cx="617.58" cy="538.35" r="3.29"/><circle class="cls-4" cx="645.18" cy="539.34" r="3.29"/><circle class="cls-4" cx="417.97" cy="491.76" r="3.29"/><circle class="cls-4" cx="452.63" cy="493.84" r="3.29"/><circle class="cls-4" cx="487.28" cy="495.91" r="3.29"/><rect class="cls-15" x="198.5" y="331.71" width="23.59" height="3.18" transform="translate(194.82 -60.49) rotate(30)"/><path class="cls-10" d="M198.5,248.23c-3.42-9.41-22.76-49.34-13.79-57.17s38.09,15.49,46.12,20.13c18.72-10.05,57.44-10.36,76.93-2.94,7.9-7.19,17-33.72,32-30.08s14.58,53.21,11.42,64.57"/><path class="cls-10" d="M346.15,230.5c5.47,5.47,12.23,18.61,13.14,35,1.09,19.72-8.84,42.66-14.24,50.38-7.66,10.95-30.14,23.83-35,26.28-15.33,7.67-29.3,15.09-53.66,17.52-11,1.1-24.27-9.65-30.67-15.33-9.85-8.76-25.18-25.19-30.66-38.33-3.21-7.7-8.76-25.19-3.28-43.8,4.42-15,9.85-20.81,14.23-25.19"/><path class="cls-12" d="M247.59,365.2c-3,.64-29.57-3.29-29.57-3.29l8.76-4.38s-14.24-16.42-17.52-21.9c2.19-2.19,4.45-3.14,7-2.16,2.82,1.07,31.3,18.59,35.68,24.06C249.78,360.82,248.68,364.1,247.59,365.2Z"/><path class="cls-16" d="M339.47,179.28c3.19,10.47-2.08,32.6-6.46,41.36"/><path class="cls-16" d="M188.57,190.2c7.37,2.16,28.32,24.64,31.64,31.54"/><path class="cls-17" d="M303.21,215.71H236.29a13.45,13.45,0,0,1-13.45-13.44V181.94a4.24,4.24,0,0,1,4.24-4.24h85.34a4.23,4.23,0,0,1,4.23,4.24v20.33A13.44,13.44,0,0,1,303.21,215.71Z"/><path class="cls-18" d="M303.21,215.71H236.29a13.45,13.45,0,0,1-13.45-13.44V181.94a4.24,4.24,0,0,1,4.24-4.24h85.34a4.23,4.23,0,0,1,4.23,4.24v20.33A13.44,13.44,0,0,1,303.21,215.71Z"/><path class="cls-19" d="M334.1,163.08c-.13,6.06-1.62,9.15-3.08,11.31-2.39,3.52-10.58,12.87-14.4,14.4-14.4,3.09-61.71,6.17-78.14,4.2-11.75-1.41-15.58-1.41-20.53-4.92-6.18-4.4-15.36-10-18.56-17.59-2-4.64-3.87-9.82,1-12.7,10.13-6,33.29-13.52,47.35-13.21,14.62.32,58.49,4.79,73,9.25C326.77,155.68,334.18,159.53,334.1,163.08Z"/><path class="cls-18" d="M334.1,163.08c-.13,6.06-1.62,9.15-3.08,11.31-2.39,3.52-10.58,12.87-14.4,14.4-14.4,3.09-61.71,6.17-78.14,4.2-11.75-1.41-15.58-1.41-20.53-4.92-6.18-4.4-15.36-10-18.56-17.59-2-4.64-3.87-9.82,1-12.7,10.13-6,33.29-13.52,47.35-13.21,14.62.32,58.49,4.79,73,9.25C326.77,155.68,334.18,159.53,334.1,163.08Z"/><path class="cls-20" d="M252.16,193c-8.76,0-16.72-1.12-24.43-2-5.42-3.85-7.82-7.82-7.82-14.66,0-10.75,7.82-17.59,19.54-19.54,6.84,0,20.36,7.21,21.5,18.57C261.55,181.31,257.67,189.87,252.16,193Z"/><path class="cls-18" d="M252.16,193c-8.76,0-16.72-1.12-24.43-2-5.42-3.85-7.82-7.82-7.82-14.66,0-10.75,7.82-17.59,19.54-19.54,6.84,0,20.36,7.21,21.5,18.57C261.55,181.31,257.67,189.87,252.16,193Z"/><path class="cls-21" d="M227.73,180.84c-.64,4.68,4.83,9.23,11,9.88,6.78.7,13.68-3.39,12.28-9.12a12.68,12.68,0,0,0-13-9.75C232,172.08,228.38,176.09,227.73,180.84Z"/><path class="cls-18" d="M227.73,180.84c-.64,4.68,4.83,9.23,11,9.88,6.78.7,13.68-3.39,12.28-9.12a12.68,12.68,0,0,0-13-9.75C232,172.08,228.38,176.09,227.73,180.84Z"/><path class="cls-21" d="M240.65,165.19c.12,2.93-1.42,5.41-3.38,5.51s-3.51-2.12-3.61-4.92,1.32-5.22,3.21-5.45S240.53,162.26,240.65,165.19Z"/><path class="cls-18" d="M240.65,165.19c.12,2.93-1.42,5.41-3.38,5.51s-3.51-2.12-3.61-4.92,1.32-5.22,3.21-5.45S240.53,162.26,240.65,165.19Z"/><path class="cls-21" d="M229.05,169.55c1.56,2.08,1.75,4.8.41,6s-3.58.39-5-1.68-1.57-4.57-.36-5.76S227.53,167.52,229.05,169.55Z"/><path class="cls-18" d="M229.05,169.55c1.56,2.08,1.75,4.8.41,6s-3.58.39-5-1.68-1.57-4.57-.36-5.76S227.53,167.52,229.05,169.55Z"/><path class="cls-21" d="M254.14,171.77c-2,2.61-5.11,3.6-7,2.28s-1.79-4.33,0-6.87,5-3.78,6.94-2.57S256.17,169.1,254.14,171.77Z"/><path class="cls-18" d="M254.14,171.77c-2,2.61-5.11,3.6-7,2.28s-1.79-4.33,0-6.87,5-3.78,6.94-2.57S256.17,169.1,254.14,171.77Z"/><path class="cls-22" d="M221.86,203.71c-7.5,4.3-24.64,14-16.7,21,8.89,7.77,25.15,8.38,48.21,7.85,22-.51,42.76-4.41,54.49-11.29,13.19-7.75,11.31-12.43,10.75-15.6s-2.5-4.32-5.86-2.93c-9.36,3.85-31.13,6.29-47.89,6.84-11,.36-24.43-1-32.25-2.93C228.7,205.66,222,203.61,221.86,203.71Z"/><path class="cls-18" d="M221.86,203.71c-7.5,4.3-24.64,14-16.7,21,8.89,7.77,25.15,8.38,48.21,7.85,22-.51,42.76-4.41,54.49-11.29,13.19-7.75,11.31-12.43,10.75-15.6s-2.5-4.32-5.86-2.93c-9.36,3.85-31.13,6.29-47.89,6.84-11,.36-24.43-1-32.25-2.93C228.7,205.66,222,203.61,221.86,203.71Z"/><path class="cls-23" d="M284.12,302.18l-.15.32a22,22,0,0,1-2.28,3.75,30.3,30.3,0,0,1-12.52,9.41c-7.71,3.38-17.54,4.41-23.62,2.89a32.88,32.88,0,0,1-9.15-3.65l-.36-.21a29,29,0,0,1-4.48-3.36c-5.09-4.59-8.13-11.75-9.16-18.23,8.21-4.81,20.52-8.91,32.84-9.94s25.2-.09,29.76,3.08C290.39,290,286.54,296.87,284.12,302.18Z"/><path class="cls-18" d="M284.12,302.18l-.15.32a22,22,0,0,1-2.28,3.75,30.3,30.3,0,0,1-12.52,9.41c-7.71,3.38-17.54,4.41-23.62,2.89a32.88,32.88,0,0,1-9.15-3.65l-.36-.21a29,29,0,0,1-4.48-3.36c-5.09-4.59-8.13-11.75-9.16-18.23,8.21-4.81,20.52-8.91,32.84-9.94s25.2-.09,29.76,3.08C290.39,290,286.54,296.87,284.12,302.18Z"/><path class="cls-14" d="M281.69,306.25a30.3,30.3,0,0,1-12.52,9.41c-7.71,3.38-17.54,4.41-23.62,2.89a30.33,30.33,0,0,1-9.19-3.55l0-.1c4.55-11.26,15.57-15.41,25.42-15.41C268.79,299.49,279.32,301.37,281.69,306.25Z"/><path class="cls-18" d="M281.69,306.25a30.3,30.3,0,0,1-12.52,9.41c-7.71,3.38-17.54,4.41-23.62,2.89a30.33,30.33,0,0,1-9.19-3.55l0-.1c4.55-11.26,15.57-15.41,25.42-15.41C268.79,299.49,279.32,301.37,281.69,306.25Z"/><ellipse cx="231.67" cy="256.96" rx="2.39" ry="5.69" transform="translate(-18.17 17.63) rotate(-4.19)"/><ellipse class="cls-18" cx="231.67" cy="256.96" rx="2.39" ry="5.69" transform="translate(-18.17 17.63) rotate(-4.19)"/><ellipse cx="266.19" cy="253.55" rx="2.39" ry="5.69" transform="translate(-17.83 20.15) rotate(-4.19)"/><ellipse class="cls-18" cx="266.19" cy="253.55" rx="2.39" ry="5.69" transform="translate(-17.83 20.15) rotate(-4.19)"/><path class="cls-16" d="M299.06,256.78c6.57-4.38,29.57-15.33,40.52-15.33"/><path class="cls-16" d="M299.06,272.11c10.95-3.28,33.95-3.28,43.8,0"/><path class="cls-24" d="M299.06,288.54c6.57,2.19,31.76,13.14,38.33,18.62"/><path class="cls-24" d="M207.07,266.64c-5.48-4.38-20.81-10.95-26.29-12"/><path class="cls-24" d="M206,278.68c-4.38-1.09-23-2.19-27.38-1.09"/><path class="cls-24" d="M207.07,292.92c-5.48,2.19-21.9,10.95-25.19,15.33"/><path class="cls-12" d="M242.07,365.08c4.42,1.21,37.28,1.21,47.13,1.21a57.74,57.74,0,0,0-6.57-11c8.76-3.28,41.67-17.26,46-19.71,3.45-1.95,4.86-4.41,4.38-5.47-1.08-2.38-3.29-2.2-7.67-1.1-2.34.59-71.09,22-75.56,25.19S240,364.51,242.07,365.08Z"/><path class="cls-10" d="M298,378.34c-7.66,5.48-21.9,14.24-24.09,16.43-4.38,0-11.95.56-12,7.4s-.05,17.78,7.62,21.07,16.43,8.76,25.19,5.48,8.84-12.82,15.33-21.91c5.47-7.66,10.95-15.33,10.95-18.61S298,378.34,298,378.34Z"/><path class="cls-12" d="M316.58,346.58c-4.38,2.19-31.76,31.76-33.95,33.95,8.76,4.38,39.43,20.81,43.81,25.19,5.47-8.76,8.76-26.28,9.85-39.43"/><path class="cls-11" d="M275,406.81c-4.38,2.19-5.47,5.48-4,16.61"/><path class="cls-11" d="M282.63,410.1c-4.38,2.19-4.38,6.57-4,16.66"/><path class="cls-11" d="M291.39,414.48c-4.38,2.19-4.38,6.57-3.55,14.84"/><path class="cls-15" d="M338,374.18l-21.11-4.05,7-32.5a3.43,3.43,0,0,1,3.89-2.43l9.6,1.34A3.48,3.48,0,0,1,340.6,340Z"/><path class="cls-25" d="M335.34,341.79a3.56,3.56,0,1,1-3.06-3.61A3.42,3.42,0,0,1,335.34,341.79Z"/><line x1="319.42" y1="363.94" x2="337.27" y2="367.19"/><polygon class="cls-21" points="337.11 369 319.06 365.67 319.77 362.25 337.42 365.42 337.11 369"/><polygon class="cls-26" points="337.42 365.42 319.77 362.25 320.45 358.98 337.7 361.99 337.42 365.42"/><line x1="320.78" y1="357.4" x2="337.84" y2="360.34"/><polygon class="cls-21" points="337.7 361.99 320.45 358.98 321.11 355.86 337.98 358.73 337.7 361.99"/><polygon class="cls-26" points="337.98 358.73 321.11 355.86 321.73 352.87 338.24 355.61 337.98 358.73"/><line x1="322.03" y1="351.43" x2="338.37" y2="354.1"/><polygon class="cls-21" points="338.24 355.61 321.73 352.87 322.33 350.01 338.49 352.63 338.24 355.61"/><circle class="cls-27" cx="244.85" cy="374.51" r="3.83"/><circle class="cls-27" cx="244.11" cy="389.29" r="3.83"/><rect class="cls-4" x="121.83" y="234.09" width="4.38" height="37.23" rx="2" ry="2" transform="translate(-37.32 22.03) rotate(-8.83)"/><path class="cls-4" d="M142,275.79l-3.44.23a1,1,0,0,1-1.09-.75l-1.77-11.37a1,1,0,0,1,.82-1l3.34-.82a.91.91,0,0,1,1.19.61l1.89,12.2C143.05,275.33,142.62,275.75,142,275.79Z"/><path class="cls-4" d="M146.46,310.17l-17.34.52a1.81,1.81,0,0,1-1.86-1.5l-5.57-36.76a1.81,1.81,0,0,1,1.33-2l16.37-4.62Z"/><path class="cls-4" d="M146.28,310.2l6-2.91a1.77,1.77,0,0,0,1-1.86l-5.84-37.26a1.78,1.78,0,0,0-1.54-1.46l-6.42-.89Z"/><polygon class="cls-5" points="341.77 115.86 364.76 113.32 391.05 122.08 388.98 131.69 370.76 132.03 341.77 118.8 341.77 115.86"/><polygon class="cls-5" points="97.67 175.74 98.65 196.44 78.94 197.65 78.94 186.8 89.78 185.6 90.77 175.74 97.67 175.74"/><path class="cls-6" d="M132.53,562.28c9.17-4.79,26.13,10.5,33.17,22.06s23.12,27.31,39.2,13.65,15.08-35.71,31.16-34.66,16.09,8.4,14.08,18.91-2,18.9,11.05,12.6,41.22-39.91,38.2-17.85,4,22,12.06,17.85S334.57,578,342.61,578s11.25.89,9.14,10.42.91,15.83,12,12.68,17.09-8.4,29.15-5.25S412,603,406.93,614.67s-13.05,12.73-21.09,12.73-24.69-10.5-36-12.08-20.5-.55-34.48,5.24-25.05,10-47.16,4.74-33.17,2.1-52.27,7.35-25.13,3.15-40.21-2.1-14.07-7.35-34.17-4.2-31.17-9.45-37.2-15.75-1-10.51,16.09-11.56,24.12-7.35,16.08-16.8S128.51,564.38,132.53,562.28Z"/><path class="cls-6" d="M102.31,542.24c-7.08,4.58-13.52-1.82-15.81-8.84-2.56-7.82-2.4-15.41,2.72-17.91s12.19,1.45,15.81,8.84S108.51,538.23,102.31,542.24Z"/><path class="cls-6" d="M259.58,539.7c-6.73-5.09-2.9-13.33,2.91-17.88,6.48-5.07,13.66-7.51,17.76-3.56s2.8,12-2.91,17.88S265.47,544.16,259.58,539.7Z"/><path class="cls-28" d="M728.44,189.56c-6.66-5.18-2.73-13.36,3.15-17.83,6.54-5,13.76-7.34,17.8-3.33s2.64,12-3.15,17.84S734.27,194.1,728.44,189.56Z"/><path class="cls-28" d="M675.59,238.6c-11.26-4.5-10.2-15.75-4.77-23,6.06-8,14.3-13,21.58-9.22s9.4,14.08,4.76,23S685.44,242.54,675.59,238.6Z"/><path class="cls-6" d="M58.83,596.91c-1.84,5.23-10.57,6.35-18.69,2.83s-13.49-10.8-10.69-15.59c2.3-3.91,10.58-6.35,18.69-2.83S62.43,586.65,58.83,596.91Z"/><path class="cls-6" d="M455.57,601.11a57.62,57.62,0,0,1,17.82-14.84c9.07-4.92,18.32-8.71,21.69-5.33,4.38,4.38-2.76,21.17-9.85,27.38-8.76,7.66-25.59,17.23-33.61,9.16C447.62,613.45,451.09,606.77,455.57,601.11Z"/><path class="cls-6" d="M525.51,598c-7,10.5-9.44,31,7.34,24.81s24.89-19.13,43-3.72,32.5,7.44,40.89,1.24,14.67-6.2,29.35-2.48,18.87,0,27.26-5,5.24-23.57-8.39-18.61S644,606.71,635.6,598s-23.07-18.61-31.46-13.65-10.48,19.85-23.06,9.92S537,580.66,525.51,598Z"/><path class="cls-6" d="M734.26,598.12c10.41-1,30.25,3.66,29.4,13.32s-8.07,13.11-20.19,9-31.55-1.16-31.55-10C711.93,600.6,722.24,599.27,734.26,598.12Z"/></g></svg>