<svg xmlns="http://www.w3.org/2000/svg" viewBox="0 0 73.682 33.923">
  <defs>
    <style>
      .cls-1 {
        fill: #fff;
      }
    </style>
  </defs>
  <g id="グループ化_79" data-name="グループ化 79" transform="translate(-899.994 -417.772)">
    <path id="パス_85" data-name="パス 85" class="cls-1" d="M3.066.168a11.283,11.283,0,0,1-.112-1.82V-3.99H5.628A3.967,3.967,0,0,0,8.61-5a3.6,3.6,0,0,0,.938-2.576A3.273,3.273,0,0,0,8.68-9.982,3.976,3.976,0,0,0,5.7-10.976H2.772c-.742,0-1.176-.014-1.778-.042a12.64,12.64,0,0,1,.112,1.806v7.574A11.32,11.32,0,0,1,.994.168ZM2.954-5.6V-9.366H5.628a1.911,1.911,0,0,1,1.526.5,1.888,1.888,0,0,1,.462,1.344A1.762,1.762,0,0,1,5.628-5.6Zm14.98-5.376a11.4,11.4,0,0,1,.112,1.918V-4.13a2.556,2.556,0,0,1-2.842,2.9,2.566,2.566,0,0,1-2.87-2.884V-9.058a10.978,10.978,0,0,1,.112-1.918H10.36a11.5,11.5,0,0,1,.112,1.918v4.942A4.51,4.51,0,0,0,11.522-.9,4.823,4.823,0,0,0,15.134.42C18.186.42,19.908-1.2,19.908-4.1v-4.97a11.315,11.315,0,0,1,.112-1.9ZM21.07-3.094a4.786,4.786,0,0,0,.266,1.162,3.3,3.3,0,0,0,1.232,1.6,5.629,5.629,0,0,0,2.94.728A4.64,4.64,0,0,0,28.854-.672a3.257,3.257,0,0,0,.882-2.38A2.763,2.763,0,0,0,28.574-5.46a6.164,6.164,0,0,0-2.282-.854,11.919,11.919,0,0,1-1.974-.5,1.331,1.331,0,0,1-.952-1.274c0-.91.826-1.526,2.044-1.526a2.215,2.215,0,0,1,1.75.672,1.808,1.808,0,0,1,.42.994l2-.238A3.774,3.774,0,0,0,28.9-9.814a4.127,4.127,0,0,0-3.486-1.414c-2.408,0-3.976,1.26-3.976,3.206a2.755,2.755,0,0,0,1.078,2.268,4.949,4.949,0,0,0,2.114.854,8.827,8.827,0,0,1,2.436.686,1.421,1.421,0,0,1,.7,1.288c0,1.05-.84,1.68-2.24,1.68a2.485,2.485,0,0,1-2.044-.826A2.007,2.007,0,0,1,23.086-3.3Zm17.3-7.882a10.563,10.563,0,0,1,.112,1.806v2.688H32.858v-2.7a11.473,11.473,0,0,1,.112-1.792H30.884A10.668,10.668,0,0,1,31-9.17v7.532A10.563,10.563,0,0,1,30.884.168H32.97a10.988,10.988,0,0,1-.112-1.806V-4.8h5.628v3.164A10.668,10.668,0,0,1,38.374.168H40.46a11.1,11.1,0,0,1-.112-1.806V-9.184a10.914,10.914,0,0,1,.112-1.792ZM53.942-1.6a13.389,13.389,0,0,1-1.792.1h-4.2V-4.8h3.416a10.97,10.97,0,0,1,1.82.1V-6.538a14.571,14.571,0,0,1-1.82.1h-3.4V-9.324H52a12.538,12.538,0,0,1,1.806.1v-1.848a14.958,14.958,0,0,1-1.806.1H47.768c-.854,0-1.218-.014-1.778-.042A12.386,12.386,0,0,1,46.1-9.212v7.574A11.325,11.325,0,0,1,45.99.21c.56-.028.938-.042,1.778-.042h4.368a12.036,12.036,0,0,1,1.806.1ZM64.526.168a10.563,10.563,0,0,1-.112-1.806V-9.044a12.24,12.24,0,0,1,.112-1.932H62.482a12.24,12.24,0,0,1,.112,1.932v4.7c0,.588.042,1.428.1,1.974-.308-.56-.756-1.288-1.092-1.792L58.058-9.492a7.678,7.678,0,0,1-.854-1.484H55.02a11.662,11.662,0,0,1,.112,1.806v7.224A15.147,15.147,0,0,1,55.02.168h2.044a15.5,15.5,0,0,1-.112-2.1V-6.524c0-.322-.028-.952-.042-1.218-.042-.518-.042-.518-.056-.714.336.658.686,1.26.952,1.68L61.418-1.33a13.948,13.948,0,0,1,.9,1.5ZM70.868-9.3h1.75a14.721,14.721,0,0,1,2.058.1v-1.876a14.854,14.854,0,0,1-2.058.1H67.074a14.082,14.082,0,0,1-1.9-.1V-9.2a13.9,13.9,0,0,1,1.918-.1h1.89v7.644a11.736,11.736,0,0,1-.112,1.82H70.98a11.621,11.621,0,0,1-.112-1.82Z" transform="translate(899 429)"/>
    <path id="パス_10" data-name="パス 10" class="cls-1" d="M4740.643,432.842h3.953v5.408h2.6l-4.47,5.833-4.619-5.833h2.54Z" transform="translate(-3789.682)"/>
    <path id="パス_11" data-name="パス 11" class="cls-1" d="M4744.717,444.3h6.31l1.262,5.846h1.533v1.727h-12.006v-1.727h1.454Z" transform="translate(-3794.959 -0.181)"/>
  </g>
</svg>
