<svg xmlns="http://www.w3.org/2000/svg" viewBox="0 0 33.275 23.174">
  <defs>
    <style>
      .cls-1 {
        fill: #fff;
      }

      .cls-2 {
        fill: none;
        stroke: #fff;
        stroke-width: 2px;
      }
    </style>
  </defs>
  <g id="グループ化_36" data-name="グループ化 36" transform="translate(-899.505 -304.255)">
    <path id="パス_81" data-name="パス 81" class="cls-1" d="M-11.005.231a10.292,10.292,0,0,1-.088-1.54V-2.937h1.925a3.265,3.265,0,0,0,2.442-.847,2.9,2.9,0,0,0,.781-2.123,2.742,2.742,0,0,0-.715-1.98,3.344,3.344,0,0,0-2.475-.825h-2.343c-.649,0-1.012-.011-1.507-.033A11.212,11.212,0,0,1-12.9-7.238v5.951A10.072,10.072,0,0,1-12.986.231Zm-.088-4.719V-7.161h1.881A1.351,1.351,0,0,1-8.146-6.8a1.3,1.3,0,0,1,.33.946,1.254,1.254,0,0,1-1.4,1.364ZM3.064.231C3.1.011,3.2-.4,3.339-.935L5.1-7.381a13.365,13.365,0,0,1,.418-1.331H3.4a6.61,6.61,0,0,1-.176,1.188L2.359-3.751c-.077.308-.121.539-.253,1.386-.121-.638-.22-1.1-.3-1.375L.732-7.612a11.01,11.01,0,0,1-.253-1.1H-1.161A7.088,7.088,0,0,1-1.4-7.579L-2.481-3.7c-.055.22-.1.4-.286,1.331-.055-.352-.187-1.023-.253-1.32l-.869-3.828a6.318,6.318,0,0,1-.176-1.2H-6.187a11.318,11.318,0,0,1,.429,1.331L-4-.935c.209.792.231.869.286,1.166h1.8A7.123,7.123,0,0,1-1.655-.9l1-3.7A13.722,13.722,0,0,0-.335-6.083c.1.539.209,1.1.319,1.485L1-.913A9.547,9.547,0,0,1,1.248.231Zm10.373,0c-.352-.737-.473-.99-.7-1.551-.913-2.189-1.111-2.475-1.815-2.7a2.331,2.331,0,0,0,1.144-.594,2.345,2.345,0,0,0,.6-1.716c0-1.507-.99-2.387-2.717-2.387H7.21c-.671,0-1.056-.011-1.518-.033A10.751,10.751,0,0,1,5.78-7.227v5.918A9.745,9.745,0,0,1,5.692.231h1.98A10.079,10.079,0,0,1,7.584-1.32V-3.355H8.97a1.247,1.247,0,0,1,.979.4A4.1,4.1,0,0,1,10.7-1.518a8.727,8.727,0,0,1,.55,1.749ZM7.584-4.906V-7.183h2c.792,0,1.2.363,1.2,1.078a1.141,1.141,0,0,1-1.232,1.2ZM-8.476,7.851a3.409,3.409,0,0,0-.638-1.364A3.724,3.724,0,0,0-12.248,5.1,4.038,4.038,0,0,0-15.13,6.135a4.869,4.869,0,0,0-1.364,3.608,5.028,5.028,0,0,0,1.243,3.542,4.135,4.135,0,0,0,3.036,1.133,3.8,3.8,0,0,0,3.025-1.2A4.044,4.044,0,0,0-8.365,11.4l-1.914-.308a2.157,2.157,0,0,1-.341.979,1.888,1.888,0,0,1-1.606.748c-1.474,0-2.365-1.166-2.365-3.091A3.466,3.466,0,0,1-13.81,7.3a2.071,2.071,0,0,1,1.551-.616,1.75,1.75,0,0,1,1.54.726,2.379,2.379,0,0,1,.363.836ZM-3.9,5.1c-2.6,0-4.268,1.815-4.268,4.642,0,2.849,1.672,4.686,4.268,4.686,2.574,0,4.268-1.859,4.268-4.7A4.8,4.8,0,0,0-.9,6.245,4.021,4.021,0,0,0-3.9,5.1Zm.011,7.733c-1.474,0-2.4-1.2-2.4-3.113,0-1.859.924-3.036,2.387-3.036A2.149,2.149,0,0,1-2.338,7.3a3.367,3.367,0,0,1,.814,2.442C-1.523,11.657-2.425,12.834-3.888,12.834ZM3.668,6.553a6.011,6.011,0,0,1-.715-1.265H.907A10.712,10.712,0,0,1,1,6.817v5.72a10.868,10.868,0,0,1-.088,1.694H2.865a11.257,11.257,0,0,1-.088-1.683V9.336c0-.22-.022-.682-.033-.869-.033-.385-.033-.385-.044-.517a12.406,12.406,0,0,0,.7,1.232l2.53,3.762a10.5,10.5,0,0,1,.748,1.287H8.75A9.681,9.681,0,0,1,8.663,12.7V6.883A10.617,10.617,0,0,1,8.75,5.288H6.781a9.035,9.035,0,0,1,.1,1.584V10.2c0,.407.033.99.066,1.375A13.487,13.487,0,0,0,6.2,10.326ZM13.8,6.905h1.32a12.741,12.741,0,0,1,1.661.077V5.211a12.965,12.965,0,0,1-1.661.077H10.543a12.506,12.506,0,0,1-1.562-.077V6.982a12.464,12.464,0,0,1,1.573-.077h1.4v5.786a10.482,10.482,0,0,1-.088,1.54h2.024a10.578,10.578,0,0,1-.088-1.54Z" transform="translate(916 313)"/>
    <line id="線_29" data-name="線 29" class="cls-2" x2="32" transform="translate(900.5 315.5)"/>
  </g>
</svg>
