<svg xmlns="http://www.w3.org/2000/svg" viewBox="0 0 33.024 14.16">
  <defs>
    <style>
      .cls-1 {
        fill: #fff;
      }
    </style>
  </defs>
  <path id="パス_76" data-name="パス 76" class="cls-1" d="M.72-3.536a5.469,5.469,0,0,0,.3,1.328A3.767,3.767,0,0,0,2.432-.384a6.433,6.433,0,0,0,3.36.832A5.3,5.3,0,0,0,9.616-.768a3.723,3.723,0,0,0,1.008-2.72A3.158,3.158,0,0,0,9.3-6.24a7.044,7.044,0,0,0-2.608-.976,13.622,13.622,0,0,1-2.256-.576A1.521,1.521,0,0,1,3.344-9.248c0-1.04.944-1.744,2.336-1.744a2.531,2.531,0,0,1,2,.768,2.067,2.067,0,0,1,.48,1.136l2.288-.272a4.313,4.313,0,0,0-.784-1.856A4.717,4.717,0,0,0,5.68-12.832c-2.752,0-4.544,1.44-4.544,3.664A3.149,3.149,0,0,0,2.368-6.576,5.656,5.656,0,0,0,4.784-5.6a10.088,10.088,0,0,1,2.784.784,1.625,1.625,0,0,1,.8,1.472c0,1.2-.96,1.92-2.56,1.92a2.84,2.84,0,0,1-2.336-.944,2.293,2.293,0,0,1-.448-1.408Zm22.528,3.5a12.957,12.957,0,0,1-1.04-.9L21.76-1.36a5.874,5.874,0,0,0,1.2-1.888,8.264,8.264,0,0,0,.512-2.96c0-4.016-2.32-6.592-5.936-6.592-3.632,0-6.016,2.64-6.016,6.672a6.946,6.946,0,0,0,1.808,4.992,5.644,5.644,0,0,0,4.16,1.6,5.494,5.494,0,0,0,2.944-.752,15.02,15.02,0,0,1,1.52,1.616Zm-5.568-2.8a12.8,12.8,0,0,1,1.28,1.12,3.072,3.072,0,0,1-1.44.32c-2.3,0-3.792-1.872-3.792-4.768a5.284,5.284,0,0,1,1.28-3.808,3.455,3.455,0,0,1,2.48-.976,3.391,3.391,0,0,1,2.464.976,5.183,5.183,0,0,1,1.28,3.728,4.921,4.921,0,0,1-.992,3.424,15.756,15.756,0,0,1-1.248-1.3Zm16.064.976a16.885,16.885,0,0,1-2.272.112h-4.48v-8.448a14.589,14.589,0,0,1,.128-2.352H24.7a15.6,15.6,0,0,1,.128,2.368v8.3A12.7,12.7,0,0,1,24.7.24C25.28.208,25.84.192,26.736.192h4.736A15.532,15.532,0,0,1,33.744.3Z" transform="translate(-0.72 12.832)"/>
</svg>
