<svg xmlns="http://www.w3.org/2000/svg" viewBox="0 0 38.311 11.063">
  <defs>
    <style>
      .cls-1 {
        fill: #fff;
      }
    </style>
  </defs>
  <path id="パス_87" data-name="パス 87" class="cls-1" d="M7.943-10.3a11.515,11.515,0,0,1,.1,1.872V-3.9A2.856,2.856,0,0,1,7.6-2.171a2.43,2.43,0,0,1-2.028.832A2.438,2.438,0,0,1,3.614-2.08a2.691,2.691,0,0,1-.52-1.82V-8.424A11.114,11.114,0,0,1,3.2-10.3H.845a11.617,11.617,0,0,1,.1,1.872V-3.9A4.492,4.492,0,0,0,2-.728,4.742,4.742,0,0,0,5.551.52c2.951,0,4.641-1.6,4.641-4.407v-4.55a11.747,11.747,0,0,1,.1-1.859Zm3.484,7.423a3.659,3.659,0,0,0,.754,2.041A4.458,4.458,0,0,0,15.808.507c2.6,0,4.082-1.209,4.082-3.328a2.972,2.972,0,0,0-.39-1.573,2.928,2.928,0,0,0-1.313-1.131,12.675,12.675,0,0,0-2.561-.7A3.511,3.511,0,0,1,14.4-6.656a1.008,1.008,0,0,1-.442-.845c0-.741.676-1.235,1.69-1.235a1.861,1.861,0,0,1,1.443.546,1.582,1.582,0,0,1,.338.832L19.721-7.6a3.669,3.669,0,0,0-.663-1.586,4.069,4.069,0,0,0-3.393-1.352c-2.4,0-3.926,1.209-3.926,3.12a2.764,2.764,0,0,0,1.118,2.3,5.055,5.055,0,0,0,2.028.78,6.636,6.636,0,0,1,2.223.715,1.041,1.041,0,0,1,.507.936c0,.832-.715,1.352-1.846,1.352a2.1,2.1,0,0,1-1.729-.7,1.711,1.711,0,0,1-.351-1.053ZM28.834-1.7a13.9,13.9,0,0,1-1.794.091H23.322V-4.251H26.3a13.673,13.673,0,0,1,1.82.091V-6.188A15.622,15.622,0,0,1,26.3-6.1H23.335V-8.424h3.549a13.716,13.716,0,0,1,1.807.091v-2.054a16.325,16.325,0,0,1-1.807.091h-4.03c-.9,0-1.235-.013-1.768-.039a12.4,12.4,0,0,1,.1,1.781V-1.5a11.233,11.233,0,0,1-.1,1.807c.533-.026.9-.039,1.781-.039h4.16a12.835,12.835,0,0,1,1.807.091ZM39.156.273C38.74-.6,38.6-.9,38.324-1.56c-1.079-2.587-1.313-2.925-2.145-3.185a2.755,2.755,0,0,0,1.352-.7,2.772,2.772,0,0,0,.715-2.028c0-1.781-1.17-2.821-3.211-2.821H31.8c-.793,0-1.248-.013-1.794-.039a12.706,12.706,0,0,1,.1,1.794v6.994A11.517,11.517,0,0,1,30,.273h2.34a11.911,11.911,0,0,1-.1-1.833V-3.965h1.638a1.473,1.473,0,0,1,1.157.468,4.841,4.841,0,0,1,.884,1.7,10.313,10.313,0,0,1,.65,2.067ZM32.24-5.8V-8.489h2.366c.936,0,1.417.429,1.417,1.274A1.348,1.348,0,0,1,34.567-5.8Z" transform="translate(-0.845 10.543)"/>
</svg>
