<svg xmlns="http://www.w3.org/2000/svg" viewBox="0 0 53.47 52.35"><defs><style>.cls-1,.cls-3{fill:#7c7777;}.cls-1,.cls-2,.cls-4{stroke:#505050;}.cls-1,.cls-2{stroke-width:6px;}.cls-2,.cls-4,.cls-5{fill:none;}.cls-4{stroke-width:3px;}.cls-5{stroke:#e0e0e0;stroke-width:4px;}</style></defs><title>vol-nob</title><g id="レイヤー_2" data-name="レイヤー 2"><g id="レイヤー_1-2" data-name="レイヤー 1"><g id="Controller"><path id="パス_7-3" data-name="パス 7-3" class="cls-1" d="M26.43,26.32,13.63,49l12.8-22.7v-.4L3.73,39.32l22.7-13.4v-.2L0,26l26.4-.3v-.2l-23-12.9,23,12.9v-.3L13.13,2.72l13.3,22.5h0l.3.5h0l13.1-23.3-13.1,23.3,23-13.6-23,13.6h0l26.7-.3-26.7.3L50,38.82l-23.3-13.1h0l13.6,23-13.6-23-.3.6Zm0,0,.3-.5h0l-.3.2Zm0-.4.3-.2h-.3Zm0-.1h.3l-.3-.2Zm.3-.1-.3-.5v.3Z"/><line class="cls-2" x1="26.63" y1="0.02" x2="27.03" y2="52.32"/><g id="楕円形_8-2" data-name="楕円形 8-2"><circle class="cls-3" cx="26.65" cy="26.04" r="25"/><circle class="cls-4" cx="26.65" cy="26.04" r="23.5"/></g><line id="線_23" data-name="線 23" class="cls-5" x1="27.53" y1="25.02" x2="4.53" y2="39.02"/></g></g></g></svg>