<svg xmlns="http://www.w3.org/2000/svg" viewBox="0 0 34.672 13.264">
  <defs>
    <style>
      .cls-1 {
        fill: #fff;
      }
    </style>
  </defs>
  <path id="パス_78" data-name="パス 78" class="cls-1" d="M7.664.192a9.608,9.608,0,0,1,.5-1.6l3.424-9.232a12.577,12.577,0,0,1,.8-1.9H9.744a9.271,9.271,0,0,1-.432,1.68L6.656-2.96c-.1.288-.224.736-.368,1.216-.112-.384-.3-1.024-.384-1.216l-2.656-7.9a10.4,10.4,0,0,1-.432-1.68H.176a15.826,15.826,0,0,1,.8,1.9L4.4-1.408a11.876,11.876,0,0,1,.512,1.6ZM18.576-12.8a5.545,5.545,0,0,0-4.128,1.6,6.85,6.85,0,0,0-1.824,4.992c0,4.064,2.336,6.672,5.968,6.672s5.984-2.624,5.984-6.672A6.9,6.9,0,0,0,22.784-11.2,5.607,5.607,0,0,0,18.576-12.8Zm.048,11.36a3.455,3.455,0,0,1-2.48-.976,5.286,5.286,0,0,1-1.3-3.776c0-2.9,1.456-4.72,3.76-4.72a3.444,3.444,0,0,1,2.464.976,5.168,5.168,0,0,1,1.264,3.728C22.336-3.264,20.912-1.44,18.624-1.44Zm16.224-.416a16.885,16.885,0,0,1-2.272.112H28.1v-8.448a14.589,14.589,0,0,1,.128-2.352H25.808a15.6,15.6,0,0,1,.128,2.368v8.3A12.7,12.7,0,0,1,25.808.24C26.384.208,26.944.192,27.84.192h4.736A15.532,15.532,0,0,1,34.848.3Z" transform="translate(-0.176 12.8)"/>
</svg>
