<svg xmlns="http://www.w3.org/2000/svg" viewBox="0 0 800 800"><defs><style>.cls-1{fill:#6e9cff;}.cls-17,.cls-2,.cls-9{fill:#272833;}.cls-15,.cls-16,.cls-2,.cls-20,.cls-3,.cls-5,.cls-6,.cls-8{stroke:#1a1a1a;}.cls-10,.cls-15,.cls-16,.cls-2,.cls-3,.cls-5,.cls-6{stroke-linecap:round;}.cls-10,.cls-15,.cls-16,.cls-2,.cls-20,.cls-3,.cls-5,.cls-6,.cls-8,.cls-9{stroke-linejoin:round;}.cls-10,.cls-15,.cls-16,.cls-2,.cls-3,.cls-5,.cls-6,.cls-8,.cls-9{stroke-width:4px;}.cls-3,.cls-4{fill:#ffe8bf;}.cls-20,.cls-5,.cls-8{fill:none;}.cls-6,.cls-7{fill:#fff;}.cls-10,.cls-9{stroke:#000;}.cls-10,.cls-11,.cls-16{fill:#fff873;}.cls-12{fill:#0f9c00;}.cls-13{fill:#ff8a70;}.cls-14{fill:#ff6352;}.cls-15{fill:#4a4a4f;}.cls-18{fill:#181921;}.cls-19{fill:#102c4f;}.cls-20{stroke-width:2px;}</style></defs><title>アートボード 2</title><g id="background"><rect class="cls-1" width="800" height="800"/></g><g id="handset"><path class="cls-2" d="M430.09,672.73c2.11,16.71,1.84,44.27.84,57.27s-4,13-4,24c.07,17,3.66,20,55,20C546,774,553,772,552,763c-1-9.43-10.57-18-22.07-26-13-9-10.88-12.36-11.93-41-.53-14.31-12-43.55-29.91-44.75s-45.34-3.58-51.67,4.78A30.31,30.31,0,0,0,430.09,672.73Z"/><path class="cls-3" d="M232,437c-23.75-15.76-47.32-56-55.85-87.9-8.61-6.82-14.82-13.1-16.77-26.1-1.35-9,1-17,5.84-18,5.87-1.21,10.32,2.06,11.67,5-.19-3.25,2-9,6.82-10s6.82,3,9.73,7c-.34-4.39,4.25-8.46,7.78-9s7.06,2.85,8.76,6c1.63-3.95,3.45-7.61,8.75-8s8.53,6.42,10.71,13c2.57,7.8,1.08,16.47,0,24.85C230.41,350,248,371,259,386,267.74,397.92,237.85,425.64,232,437Z"/><path class="cls-2" d="M355.84,673.73C353.73,690.44,354,718,355,731s4,13,4,24c0,16-3.66,20-55,20-68,0-79-1-78-10,1.05-9.43,18.5-19,30-27,13-9,14.95-14.36,16-43,.53-14.31,7.91-41.55,25.84-42.75s45.34-3.58,51.67,4.78A30.31,30.31,0,0,1,355.84,673.73Z"/><path class="cls-4" d="M553,225c9-68-18-119-25-119s-29,30-45,55c-31-17-125-16-140-9-13.87-19.81-55-55-59-53s-34.71,41.19-30.36,111.6L258,204c-25,35-31.95,83.44-18,122,17,47,53,68,75,83s56.08,49.73,74,48c31-3,69-34.36,100-54,30-19,71-61,75-102,3.13-32.1,3-61-20-89"/><path class="cls-5" d="M553,225c9-68-18-119-25-119s-29,30-45,55c-31-17-125-16-140-9-13.87-19.81-55-55-59-53s-34.71,41.19-30.36,111.6L258,204c-25,35-31.95,83.44-18,122,17,47,53,68,75,83s56.08,49.73,74,48c31-3,69-34.36,100-54,30-19,71-61,75-102,3.13-32.1,3-61-20-89"/><path class="cls-6" d="M269,610.07c-10.5,11.51-22,89.93-22,111.6,19-2.17,113-1,128,3.31,4-22.37,6-40.73,10-49.83,4,11.19,11,42.71,12,50.85,21-3.25,139-8.67,156-3.25,0-13-23-102.66-32-116.75-15,2.17-105.64,9.71-134.32,9.6S282.5,610.47,269,610.07Z"/><path class="cls-5" d="M493,257c18-12,64-23,85-22"/><path class="cls-7" d="M393.27,453.57l-.45,6.43-.39,5.58L381,630c-14-1-27-3-45-4s-28,2-45,0-24-4-40-15c0-28,8-95,18-119-7-4-42-42-63-64,5-11,29-54,41-66,6.07,2.28,35.55,28.79,49.64,37.45l1.93,1.19c3.53,2.16,6.2,3.75,7.43,4.36,2.72,1.36,10.4,5,20.26,9.56,10.5,5.92,22.49,12.81,34.16,19.61h0c11.7,6.81,23.05,13.53,32.29,19.07Z"/><path class="cls-8" d="M393.27,453.57l-.45,6.43-.39,5.58L381,630c-14-1-27-3-45-4s-28,2-45,0-24-4-40-15c0-28,8-95,18-119-7-4-42-42-63-64,5-11,29-54,41-66,6.07,2.28,35.55,28.79,49.64,37.45l1.93,1.19c3.53,2.16,6.2,3.75,7.43,4.36,2.72,1.36,10.4,5,20.26,9.56,10.5,5.92,22.49,12.81,34.16,19.61h0c11.7,6.81,23.05,13.53,32.29,19.07Z"/><path class="cls-9" d="M262.5,369.38,243.33,393,288,425.53a4.42,4.42,0,0,0,6.28-1.12l11.66-17.53a4.42,4.42,0,0,0-1.05-6Z"/><path class="cls-10" d="M295,404.14a5.87,5.87,0,0,0-8.33,1.43,6.31,6.31,0,0,0,1.33,8.7,5.87,5.87,0,0,0,8.38-1.55A6.32,6.32,0,0,0,295,404.14Z"/><line x1="251.54" y1="396.72" x2="268.3" y2="375.85"/><polygon class="cls-11" points="266.45 374.49 249.6 395.31 253.47 398.12 270.14 377.2 266.45 374.49"/><polygon class="cls-12" points="270.14 377.2 253.47 398.12 257.34 400.92 273.82 379.91 270.14 377.2"/><line x1="259.27" y1="402.32" x2="275.65" y2="381.26"/><polygon class="cls-11" points="273.82 379.91 257.34 400.92 261.19 403.71 277.49 382.61 273.82 379.91"/><polygon class="cls-12" points="277.49 382.61 261.19 403.71 265.04 406.49 281.14 385.3 277.49 382.61"/><line x1="266.95" y1="407.88" x2="282.97" y2="386.65"/><polygon class="cls-11" points="281.14 385.3 265.04 406.49 268.87 409.27 284.79 387.99 281.14 385.3"/><path class="cls-5" d="M495,280c20-4,70-2,86,4"/><path class="cls-5" d="M493,306c18,0,76,16,88,25"/><path class="cls-5" d="M299,257c-13-6-52.15-15.48-72-13"/><path class="cls-5" d="M525.5,106.68C534,121,540.39,160.05,529,198"/><path class="cls-5" d="M283.31,99.49C296,110,316,158,318,179"/><path class="cls-13" d="M456,335c-.1.22-.2.44-.31.66-5.09,10.74-15,20.48-30.69,27.34-16,7-36.39,9.15-49,6-7.71-1.93-13.36-3.85-19.06-7.37A69.65,69.65,0,0,1,347,354c-10.56-9.51-19-26-19-34,0-9,28-18,63-21s49-3,62,2S461,324,456,335Z"/><path class="cls-8" d="M456,335c-.1.22-.2.44-.31.66-5.09,10.74-15,20.48-30.69,27.34-16,7-36.39,9.15-49,6-7.71-1.93-13.36-3.85-19.06-7.37A69.65,69.65,0,0,1,347,354c-10.56-9.51-19-26-19-34,0-9,28-18,63-21s49-3,62,2S461,324,456,335Z"/><path class="cls-14" d="M455.69,335.66c-5.09,10.74-15,20.48-30.69,27.34-16,7-36.39,9.15-49,6-7.71-1.93-13.36-3.85-19.06-7.37C368,336,388,327,419.5,328,432.9,328.43,445.37,330.82,455.69,335.66Z"/><path class="cls-8" d="M455.69,335.66c-5.09,10.74-15,20.48-30.69,27.34-16,7-36.39,9.15-49,6-7.71-1.93-13.36-3.85-19.06-7.37C368,336,388,327,419.5,328,432.9,328.43,445.37,330.82,455.69,335.66Z"/><path class="cls-5" d="M298,287c-17-6-60-6-75-1"/><path class="cls-5" d="M299,310c-14,0-59,15-70,26"/><ellipse cx="345.68" cy="242.63" rx="5.02" ry="11.92"/><ellipse class="cls-8" cx="345.68" cy="242.63" rx="5.02" ry="11.92"/><ellipse cx="434.32" cy="241.37" rx="5.02" ry="11.92"/><ellipse class="cls-8" cx="434.32" cy="241.37" rx="5.02" ry="11.92"/><path class="cls-3" d="M571,475c13.51,18.07,26,45,35,71,7,4,11.38,13.32,13,19,2,7,1,13-4,16-5.42,3.25-9,1-11.25-1.68.25,3.68-1.68,7.61-4.75,8.68-5.43,1.89-9,0-11.42-4.07C586,588,583.4,590.34,579,591s-7.86-3.59-9.62-7.21c-1.89,4-2.17,8.5-8,8.81S551.32,588,549.58,582c-2.06-7,.7-12,1.85-19.63,2.57-12.41-15.59-43.66-20.12-52.75C521,489,576.24,482,571,475Z"/><path class="cls-7" d="M414.06,472.79c-7.14-2.71-14.37-5-21.68-7.24l-1-.28q-33.68-9.67-68-16.67c2.35-4.6,5.91-7.78,10-10.9C320.88,430.52,304,424,291,420c3.08-5.45,12-15,14.35-16.68,9.29,4.68,15.62,8.05,25.36,13.54,8.74,4.93,20.13,11.66,30,17.6,0,0-3-2.19,1.09.78s23.18,14.13,30.75,17.91c.15.08.57.35.7.43,5.57,3.35,11.35,6.86,16.82,10.36a9.15,9.15,0,0,1,.86.57c2.07,1.66,2.71,3.85,3,6.41C414,471.5,414,472.19,414.06,472.79Z"/><path class="cls-8" d="M414.06,472.79c-7.14-2.71-14.37-5-21.68-7.24l-1-.28q-33.68-9.67-68-16.67c2.35-4.6,5.91-7.78,10-10.9C320.88,430.52,304,424,291,420c3.08-5.45,12-15,14.35-16.68,9.29,4.68,15.62,8.05,25.36,13.54,8.74,4.93,20.13,11.66,30,17.6,0,0-3-2.19,1.09.78s23.18,14.13,30.75,17.91c.15.08.57.35.7.43,5.57,3.35,11.35,6.86,16.82,10.36a9.15,9.15,0,0,1,.86.57c2.07,1.66,2.71,3.85,3,6.41C414,471.5,414,472.19,414.06,472.79Z"/><path class="cls-7" d="M529,527c8-6,47-35,60-44-6-10-45-56-51-62-6.2-6.2-26-19.23-38.17-22.55h0c-.62-.18-1.22-.32-1.8-.44-.14,0-83,36.72-109.69,49.09a44.56,44.56,0,0,0-10.37,14c-.15,2.22-.28,4.5-.39,6.8-.09,2-.16,3.92-.23,5.85-.32,9.8-.32,18.84-.32,22.29,0,8.06-2,123-2,138,17-1,59-9,81-10s70-2,81-2c-1-7.76-14.82-88.15-20.48-110.12C521.37,517.09,525.45,522.43,529,527Zm-29-29a80.25,80.25,0,0,1,16.5,13.85Z"/><path class="cls-8" d="M529,527c8-6,47-35,60-44-6-10-45-56-51-62-6.2-6.2-26-19.23-38.17-22.55h0c-.62-.18-1.22-.32-1.8-.44-.14,0-83,36.72-109.69,49.09a44.56,44.56,0,0,0-10.37,14c-.15,2.22-.28,4.5-.39,6.8-.09,2-.16,3.92-.23,5.85-.32,9.8-.32,18.84-.32,22.29,0,8.06-2,123-2,138,17-1,59-9,81-10s70-2,81-2c-1-7.76-14.82-88.15-20.48-110.12C521.37,517.09,525.45,522.43,529,527Z"/><path class="cls-8" d="M500,498a80.25,80.25,0,0,1,16.5,13.85Z"/><path class="cls-7" d="M345,558.19,300.1,559a2.18,2.18,0,0,1-2.22-2.05l-3.75-64.61a2.17,2.17,0,0,1,2.17-2.3h52.81a2.69,2.69,0,0,1,2.68,2.89l-4.64,63.28A2.18,2.18,0,0,1,345,558.19Z"/><path class="cls-8" d="M345,558.19,300.1,559a2.18,2.18,0,0,1-2.22-2.05l-3.75-64.61a2.17,2.17,0,0,1,2.17-2.3h52.81a2.69,2.69,0,0,1,2.68,2.89l-4.64,63.28A2.18,2.18,0,0,1,345,558.19Z"/><path class="cls-7" d="M335.35,515H309.68a1.27,1.27,0,0,1-1.08-.72l-12-21.46c-.66-1.17,0-2.82,1.08-2.82h50.56c1.13,0,1.76,1.71,1.06,2.87L336.4,514.33A1.25,1.25,0,0,1,335.35,515Z"/><path class="cls-8" d="M335.35,515H309.68a1.27,1.27,0,0,1-1.08-.72l-12-21.46c-.66-1.17,0-2.82,1.08-2.82h50.56c1.13,0,1.76,1.71,1.06,2.87L336.4,514.33A1.25,1.25,0,0,1,335.35,515Z"/><line class="cls-5" x1="314.88" y1="515.09" x2="314.02" y2="557.86"/><line class="cls-5" x1="329.88" y1="515.14" x2="329.02" y2="557.9"/><path class="cls-7" d="M464.48,448.17c-30.08,5.1-58.08,16.81-87.16,25.54l-1,.31c-.2.06-.38.2-.58.05-.73-1.07.41-7.76.45-7.84a20.35,20.35,0,0,1,1.76-5.17,44.56,44.56,0,0,1,10.37-14A29,29,0,0,1,391,445c18.4-12.53,69.16-31.57,103.92-47.87a14.06,14.06,0,0,1,4.88,1.31h0c6.39,3,9.92,10.42,13.27,16.5a379.89,379.89,0,0,0-58.55,20.81A47.63,47.63,0,0,1,464.48,448.17Z"/><path class="cls-8" d="M464.48,448.17c-30.08,5.1-58.08,16.81-87.16,25.54l-1,.31c-.2.06-.38.2-.58.05-.73-1.07.41-7.76.45-7.84a20.35,20.35,0,0,1,1.76-5.17,44.56,44.56,0,0,1,10.37-14A29,29,0,0,1,391,445c18.4-12.53,69.16-31.57,103.92-47.87a14.06,14.06,0,0,1,4.88,1.31h0c6.39,3,9.92,10.42,13.27,16.5a379.89,379.89,0,0,0-58.55,20.81A47.63,47.63,0,0,1,464.48,448.17Z"/><path class="cls-7" d="M476,558.19,431.1,559a2.18,2.18,0,0,1-2.22-2.05l-3.75-64.61a2.17,2.17,0,0,1,2.17-2.3h52.81a2.69,2.69,0,0,1,2.68,2.89l-4.64,63.28A2.18,2.18,0,0,1,476,558.19Z"/><path class="cls-8" d="M476,558.19,431.1,559a2.18,2.18,0,0,1-2.22-2.05l-3.75-64.61a2.17,2.17,0,0,1,2.17-2.3h52.81a2.69,2.69,0,0,1,2.68,2.89l-4.64,63.28A2.18,2.18,0,0,1,476,558.19Z"/><path class="cls-7" d="M466.35,514H440.68a1.28,1.28,0,0,1-1.08-.69l-12-20.6c-.66-1.12,0-2.71,1.08-2.71h50.56c1.13,0,1.76,1.64,1.06,2.75l-12.88,20.6A1.25,1.25,0,0,1,466.35,514Z"/><path class="cls-8" d="M466.35,514H440.68a1.28,1.28,0,0,1-1.08-.69l-12-20.6c-.66-1.12,0-2.71,1.08-2.71h50.56c1.13,0,1.76,1.64,1.06,2.75l-12.88,20.6A1.25,1.25,0,0,1,466.35,514Z"/><line class="cls-5" x1="445.9" y1="514.14" x2="445.02" y2="557.86"/><line class="cls-5" x1="460.9" y1="514.18" x2="460.02" y2="557.9"/><path class="cls-15" d="M228,232.82c-11.53,21.18-12,41.77-8.24,71.88,3.93,31.75,15.55,65.44,33.55,84.17l3.32.34a4.37,4.37,0,0,1,3.88,3.8l2.67,21.57a4.35,4.35,0,0,1-3.79,4.85l-28,2.65c-47.9-25.77-54.91-82.34-58.24-109.29s-8.5-68.64,30.81-112.28l27.82-4.17a4.36,4.36,0,0,1,4.86,3.79l3.13,25.29a4.36,4.36,0,0,1-3,4.7Z"/><path class="cls-3" d="M181,323c2.48,13.65,2,21-6,24-6.82,2.56-15-5-18-17-3.07-12.27,0-25,11-27C174,303,179,312,181,323Z"/><path class="cls-3" d="M233,315c2.07,11.71-2.3,21-11,21-4,0-10.23-4.94-13-16-2-8,1-22,6-24C224.47,292.21,230.93,303.29,233,315Z"/><circle class="cls-16" cx="391" cy="484" r="7"/><circle class="cls-16" cx="453.5" cy="503" r="5.5"/><circle class="cls-16" cx="322.5" cy="503" r="5.5"/><circle class="cls-16" cx="391" cy="520" r="7"/><circle class="cls-16" cx="391" cy="558" r="7"/><circle class="cls-16" cx="391" cy="596" r="7"/><path class="cls-9" d="M565.94,450l-26.29,21.17L502.51,430a4.64,4.64,0,0,1,.69-6.86L522.33,409a4.9,4.9,0,0,1,6.49.58Z"/><path class="cls-10" d="M525.53,420.21c2.3,2.51,1.73,6.39-1.3,8.68s-7.39,2.1-9.7-.45-1.69-6.44,1.37-8.7S523.24,417.7,525.53,420.21Z"/><line x1="535.06" y1="463.13" x2="558.49" y2="444.81"/><polygon class="cls-11" points="560.13 446.6 536.72 464.97 533.4 461.3 556.86 443.03 560.13 446.6"/><polygon class="cls-12" points="556.86 443.03 533.4 461.3 530.1 457.64 553.59 439.47 556.86 443.03"/><line x1="528.44" y1="455.81" x2="551.96" y2="437.69"/><polygon class="cls-11" points="553.59 439.47 530.1 457.64 526.79 453.98 550.33 435.91 553.59 439.47"/><polygon class="cls-12" points="550.33 435.91 526.79 453.98 523.5 450.34 547.08 432.37 550.33 435.91"/><line x1="521.86" y1="448.52" x2="545.46" y2="430.6"/><polygon class="cls-11" points="547.08 432.37 523.5 450.34 520.22 446.7 543.84 428.83 547.08 432.37"/><path class="cls-17" d="M474,169.36H346a27,27,0,0,1-27-27V112.1a8.5,8.5,0,0,1,8.5-8.51h165a8.51,8.51,0,0,1,8.5,8.51v30.29A27,27,0,0,1,474,169.36Z"/><path class="cls-8" d="M474,169.36H346a27,27,0,0,1-27-27V112.1a8.5,8.5,0,0,1,8.5-8.51h165a8.51,8.51,0,0,1,8.5,8.51v30.29A27,27,0,0,1,474,169.36Z"/><path class="cls-7" d="M534,60.42c0,10.18-5.54,21.9-8,25.58-4,6-20,20.27-26,24-9.37,5.82-43.47,8.65-64,10.49-17,1.53-44.35,2.66-59.43,2.17-1.56,0-3.06-.11-4.51-.18-20.44-1-48.44-5.6-54.51-9.94C307,105,294,94,290,80.78c-3.46-11.45-4-26.47,7.1-29.86C316.58,45,376.93,37,401.26,37c25.31,0,89.56,2,114.87,9C526.64,48.84,534,54.45,534,60.42Z"/><path class="cls-8" d="M534,60.42c0,10.18-5.54,21.9-8,25.58-4,6-20,20.27-26,24-9.37,5.82-43.47,8.65-64,10.49-17,1.53-44.35,2.66-59.43,2.17-1.56,0-3.06-.11-4.51-.18-20.44-1-48.44-5.6-54.51-9.94C307,105,294,94,290,80.78c-3.46-11.45-4-26.47,7.1-29.86C316.58,45,376.93,37,401.26,37c25.31,0,89.56,2,114.87,9C526.64,48.84,534,54.45,534,60.42Z"/><path class="cls-18" d="M428.47,121.32a493.59,493.59,0,0,1-51.9,1.34c-11.08-6.68-17.67-17.61-17.17-30,1-23.85,17.6-33.66,41.86-36.77,23.74,2.11,38,14.9,41.86,36.77C445.16,104.11,438.71,114.52,428.47,121.32Z"/><path class="cls-8" d="M428.47,121.32a493.59,493.59,0,0,1-51.9,1.34c-11.08-6.68-17.67-17.61-17.17-30,1-23.85,17.6-33.66,41.86-36.77,23.74,2.11,38,14.9,41.86,36.77C445.16,104.11,438.71,114.52,428.47,121.32Z"/><path class="cls-11" d="M376,102.1c-1.92,10.54,10.9,19.39,24.34,19.39s26.26-8.85,24.33-19.39-10.89-19.38-24.33-19.38S377.9,91.44,376,102.1Z"/><path class="cls-8" d="M376,102.1c-1.92,10.54,10.9,19.39,24.34,19.39s26.26-8.85,24.33-19.39-10.89-19.38-24.33-19.38S377.9,91.44,376,102.1Z"/><ellipse class="cls-11" cx="399.31" cy="69.8" rx="6.81" ry="9.94"/><path class="cls-8" d="M406.13,69.8c0,5.49-3.05,9.94-6.82,9.94s-6.81-4.45-6.81-9.94,3.05-9.94,6.81-9.94S406.13,64.31,406.13,69.8Z"/><ellipse class="cls-11" cx="374.98" cy="80.73" rx="6.86" ry="9.87" transform="translate(23.52 234.36) rotate(-35.76)"/><path class="cls-8" d="M380.39,76.51c3.27,4.36,3.49,9.78.5,12.12s-8.06.69-11.32-3.67-3.49-9.79-.51-12.12S377.12,72.15,380.39,76.51Z"/><ellipse class="cls-11" cx="424.62" cy="78.75" rx="9.86" ry="6.87" transform="translate(109.78 374.35) rotate(-53.7)"/><ellipse class="cls-8" cx="424.62" cy="78.75" rx="9.86" ry="6.87" transform="translate(109.79 374.35) rotate(-53.7)"/><path class="cls-19" d="M318.85,144.05c-13,7.44-19.8,32.16-5.2,41.31s46.73,16.48,86.64,15.56c38-.87,64.24-6.41,85.66-22s18.5-26.54,17.52-32-.45-6.49-6.28-4.09C481,149.49,442,156.16,413,157.12c-19,.62-49.7-2-64.3-4.71-6.75-1.27-18.5-4.58-22.39-6.41S319.15,143.88,318.85,144.05Z"/><path class="cls-20" d="M318.85,144.05c-13,7.44-19.8,32.16-5.2,41.31s46.73,16.48,86.64,15.56c38-.87,64.24-6.41,85.66-22s18.5-26.54,17.52-32-.45-6.49-6.28-4.09C481,149.49,442,156.16,413,157.12c-19,.62-49.7-2-64.3-4.71-6.75-1.27-18.5-4.58-22.39-6.41S319.15,143.88,318.85,144.05Z"/></g></svg>